<?xml version="1.0" standalone="no"?>
<!DOCTYPE svg PUBLIC "-//W3C//DTD SVG 20010904//EN"
 "http://www.w3.org/TR/2001/REC-SVG-20010904/DTD/svg10.dtd">
<svg version="1.0" xmlns="http://www.w3.org/2000/svg"
 width="1042.000000pt" height="1042.000000pt" viewBox="0 0 1042.000000 1042.000000"
 preserveAspectRatio="xMidYMid meet">
<metadata>
Created by potrace 1.11, written by Peter Selinger 2001-2013
</metadata>
<g transform="translate(0.000000,1042.000000) scale(0.100000,-0.100000)"
fill="#000000" stroke="none">
<path d="M2574 10406 c-17 -8 -51 -17 -75 -21 -113 -18 -166 -41 -282 -124
-44 -31 -89 -62 -100 -70 -98 -65 -390 -403 -546 -631 -39 -58 -84 -122 -99
-142 -15 -21 -53 -79 -85 -130 -32 -51 -98 -155 -147 -231 -48 -76 -102 -168
-121 -205 -18 -37 -61 -120 -96 -184 -35 -64 -75 -149 -88 -188 -13 -39 -51
-121 -83 -183 -32 -62 -67 -137 -76 -167 -10 -30 -30 -86 -46 -125 -15 -38
-46 -119 -68 -180 -22 -60 -66 -168 -97 -240 -32 -71 -90 -229 -130 -350 -40
-121 -83 -245 -95 -275 -12 -30 -27 -105 -35 -170 -21 -179 -62 -388 -116
-585 -64 -237 -79 -312 -79 -397 0 -130 39 -232 140 -363 44 -59 47 -66 53
-141 8 -101 33 -246 58 -337 11 -40 27 -101 36 -137 8 -36 21 -90 30 -120 19
-71 52 -230 53 -252 0 -13 -8 -18 -26 -18 -21 0 -24 -3 -15 -14 9 -11 2 -15
-36 -20 -27 -4 -70 -11 -98 -15 l-50 -8 49 -2 c58 -1 52 -21 -6 -23 -35 -1
-68 19 -68 41 0 6 -7 11 -16 11 -14 0 -14 -2 -3 -16 12 -15 10 -16 -19 -10
-24 6 -33 4 -38 -8 -3 -9 -16 -14 -33 -13 -23 2 -26 6 -23 29 4 23 1 28 -18
28 -17 0 -21 -4 -17 -20 4 -15 -1 -22 -18 -26 -13 -3 -29 -3 -34 1 -6 3 -11 1
-11 -4 0 -6 6 -11 13 -11 9 0 9 -2 -1 -9 -8 -4 -12 -19 -10 -32 l3 -24 24 25
c13 14 20 18 16 10 -8 -13 -6 -13 8 -2 9 8 21 11 27 7 5 -3 10 -1 10 5 0 16
38 3 76 -26 31 -24 74 -32 74 -15 0 16 44 -1 74 -28 25 -22 28 -23 22 -6 -6
16 -5 18 5 7 15 -14 69 -16 69 -2 0 18 32 10 37 -9 6 -23 30 -18 36 7 4 15 5
15 6 0 2 -32 21 -19 22 15 l1 32 10 -35 c5 -19 18 -44 28 -55 27 -31 34 -63
16 -81 -12 -12 -20 -13 -36 -4 -11 6 -25 8 -30 5 -5 -3 -12 5 -16 19 -7 31
-39 62 -49 47 -3 -6 -3 -12 2 -12 4 -1 -5 -4 -22 -8 -30 -6 -49 -41 -22 -41
27 0 37 -24 19 -47 -18 -22 -109 -47 -137 -37 -8 3 -15 1 -15 -5 0 -6 -9 -11
-20 -11 -15 0 -20 7 -20 28 0 16 -8 36 -18 45 -20 18 -48 22 -54 9 -1 -4 -20
-18 -41 -31 -21 -13 -36 -28 -34 -35 2 -6 -2 -17 -10 -24 -7 -7 -13 -25 -14
-40 0 -15 -4 -36 -8 -47 -5 -11 -3 -27 3 -37 8 -13 6 -21 -7 -36 -13 -14 -14
-21 -5 -30 9 -9 9 -12 0 -12 -7 0 -12 -7 -12 -15 0 -8 -4 -15 -10 -15 -7 0
-10 -321 -10 -944 l0 -944 32 10 c18 6 46 16 61 24 37 18 53 18 61 -1 6 -16
66 -21 66 -6 0 16 46 61 62 61 19 0 38 -20 38 -42 0 -23 -33 -40 -78 -40 -20
0 -43 -8 -55 -18 -10 -10 -25 -16 -32 -14 -22 9 -25 -10 -11 -64 17 -61 6 -79
-37 -63 -20 8 -27 7 -31 -6 -4 -9 -2 -19 4 -23 17 -11 40 -98 34 -130 -6 -26
-9 -28 -37 -23 -21 4 -28 3 -23 -5 4 -7 15 -12 26 -12 10 0 20 -7 24 -15 3 -8
15 -15 27 -15 11 0 34 -11 51 -25 16 -14 37 -25 47 -25 9 0 22 -5 28 -11 15
-15 -5 -66 -29 -72 -19 -5 -25 -27 -8 -27 6 0 21 -12 33 -26 17 -19 35 -27 72
-31 52 -5 78 -24 68 -49 -7 -18 15 -44 37 -44 15 0 18 -12 22 -75 3 -50 10
-81 22 -93 9 -10 16 -24 16 -30 0 -12 11 -15 60 -16 25 -1 25 -2 25 -84 0 -82
0 -83 23 -77 33 8 77 -14 97 -48 14 -23 23 -28 48 -25 25 2 32 8 33 25 1 27
19 50 44 58 10 3 20 15 23 25 4 16 13 20 44 19 62 -1 75 -10 78 -56 4 -57 -26
-77 -107 -74 -63 3 -72 -7 -43 -45 17 -22 19 -65 6 -112 -9 -28 -7 -32 10 -32
11 0 18 4 15 9 -3 4 6 18 19 31 32 30 92 30 115 0 12 -16 22 -19 47 -14 18 3
47 1 65 -5 26 -9 35 -9 43 2 6 8 24 17 41 21 39 9 69 -16 60 -48 -3 -12 -6
-29 -6 -38 0 -15 -7 -17 -36 -13 -32 4 -36 1 -46 -25 -7 -22 -16 -30 -34 -30
-19 0 -28 -8 -35 -29 -13 -36 -53 -64 -79 -56 -15 5 -23 -3 -39 -41 -12 -26
-19 -49 -16 -52 3 -3 0 -11 -6 -19 -14 -17 7 -127 27 -144 8 -6 14 -20 14 -30
0 -11 5 -19 10 -19 6 0 10 -7 10 -15 0 -18 -5 -18 -31 -4 -11 5 -17 14 -14 20
8 12 -20 23 -39 16 -13 -5 -13 -10 0 -35 8 -17 24 -33 37 -36 21 -6 21 -7 -8
-21 -27 -12 -17 -13 111 -14 140 -1 141 -1 140 22 -1 28 35 35 68 14 29 -19
56 -1 56 37 0 23 3 26 24 20 20 -5 29 1 51 34 24 36 29 39 75 41 38 1 51 -3
59 -17 5 -10 7 -22 3 -28 -14 -18 -68 -51 -97 -58 -39 -10 -55 -24 -55 -47 0
-19 96 -19 4100 -19 3272 0 4101 3 4104 13 2 6 9 86 15 177 19 306 38 384 70
295 9 -25 9 -40 2 -54 -19 -34 -14 -54 11 -48 61 16 92 -44 93 -183 1 -58 2
-126 3 -152 l2 -48 320 0 320 0 0 30 c0 23 -4 30 -20 30 -11 0 -20 -4 -20 -10
0 -5 -6 -10 -14 -10 -8 0 -17 -6 -19 -12 -3 -7 -6 3 -7 22 -7 225 -7 223 -69
317 l-34 53 18 62 c9 35 19 94 22 132 4 64 8 74 44 114 36 42 37 45 23 67 -12
18 -13 27 -5 37 39 45 51 62 51 70 0 4 7 8 15 8 13 0 15 109 15 921 0 805 -2
922 -15 935 -19 19 -19 36 0 160 13 85 15 368 15 2027 0 1060 -2 1927 -4 1927
-17 0 -174 -23 -231 -35 -38 -7 -115 -16 -170 -20 -55 -4 -136 -15 -180 -25
-44 -10 -125 -29 -180 -41 -55 -12 -124 -32 -154 -45 -75 -34 -90 -32 -108 15
-12 31 -24 42 -67 60 -62 25 -70 26 -107 4 -28 -17 -119 -173 -119 -205 0 -7
-11 -29 -24 -48 -13 -19 -27 -46 -31 -60 -4 -14 -12 -31 -18 -38 -16 -20 -27
15 -16 46 13 35 11 75 -7 118 -9 21 -17 70 -19 109 -2 38 -6 82 -10 98 -7 24
-4 28 24 38 29 10 31 14 33 67 1 60 1 66 -8 123 -4 24 -1 47 10 68 16 30 16
36 0 94 -9 34 -16 70 -16 80 1 9 2 23 2 30 4 43 -34 167 -50 167 -4 0 -13 14
-20 30 -7 17 -30 55 -51 86 -22 30 -39 60 -39 67 0 7 -9 23 -20 37 -25 32 -25
50 0 50 31 0 24 26 -14 55 -19 14 -37 38 -41 52 -3 15 -18 41 -32 57 -75 92
-104 141 -99 168 4 22 -2 34 -34 64 -33 32 -38 41 -33 70 5 30 2 36 -26 51
-23 14 -35 30 -46 69 -8 28 -23 59 -34 68 -11 10 -30 37 -41 59 -12 23 -31 52
-41 66 -83 108 -109 147 -109 162 0 9 -7 23 -16 30 -9 7 -21 25 -26 39 -6 14
-12 20 -15 13 -9 -25 -29 -12 -93 62 -36 41 -68 75 -72 75 -5 0 -8 7 -8 15 0
9 6 12 15 9 21 -9 19 10 -5 31 -19 17 -20 17 -20 -1 0 -15 -7 -12 -35 18 -20
21 -43 41 -52 46 -8 5 -15 21 -15 36 0 14 -4 26 -8 26 -4 0 -23 12 -43 28 -20
15 -61 45 -91 66 -31 22 -82 61 -113 88 -31 26 -63 48 -70 48 -7 0 -50 20 -96
44 -45 24 -88 42 -94 39 -7 -3 -13 0 -13 6 0 6 -8 11 -18 11 -18 0 -52 29 -52
43 0 4 12 7 26 7 16 0 24 5 21 13 -2 7 -17 11 -35 10 -23 -2 -32 2 -37 17 -3
11 -21 29 -38 42 -18 12 -47 34 -65 50 -37 32 -55 36 -50 11 5 -30 -23 -26
-74 9 -21 14 -32 17 -47 9 -23 -13 -89 -12 -114 1 -10 5 -26 7 -35 3 -14 -6
-12 -10 13 -31 l30 -24 -28 0 c-16 0 -42 9 -57 20 -27 20 -49 13 -35 -10 3 -5
-1 -10 -9 -10 -9 0 -16 7 -16 15 0 11 -7 14 -24 9 -13 -3 -27 -1 -30 5 -5 7
-12 7 -24 0 -15 -9 -27 -5 -65 22 -31 21 -43 35 -35 40 7 4 20 3 30 -2 14 -7
16 -6 12 6 -3 8 -18 21 -34 28 -25 13 -27 13 -23 -4 3 -11 1 -19 -5 -19 -44 0
-59 44 -18 52 14 3 29 1 34 -4 5 -5 21 -4 38 3 36 14 96 19 109 9 6 -4 25 -11
42 -15 18 -3 39 -14 45 -24 14 -18 48 -35 48 -23 -1 22 -64 70 -84 64 -4 -2
-5 9 -2 23 7 29 -2 54 -13 36 -9 -14 -168 -25 -176 -11 -3 5 -20 10 -38 10
-29 0 -30 -1 -11 -14 18 -14 18 -15 -9 -25 -35 -14 -47 -14 -47 -1 0 6 5 10
11 10 6 0 9 6 6 13 -2 6 -13 12 -25 12 -21 1 -72 41 -72 58 0 5 -11 18 -25 29
-15 12 -27 34 -31 57 -5 32 -9 37 -28 34 -21 -4 -135 62 -136 79 0 14 77 -15
102 -40 15 -14 31 -22 35 -18 10 10 -29 40 -101 77 -55 29 -58 29 -53 10 7
-26 -3 -27 -37 0 -14 11 -30 18 -34 15 -5 -3 -33 6 -61 20 -66 33 -75 27 -15
-11 29 -18 41 -32 35 -38 -7 -7 -19 -4 -37 8 -14 9 -41 17 -60 17 -18 0 -43 9
-55 19 -13 11 -34 22 -48 26 -38 9 -55 24 -39 34 9 6 6 9 -10 9 -13 0 -37 9
-53 21 -16 11 -29 17 -29 13 0 -4 -8 1 -19 10 -10 9 -22 16 -27 15 -14 -3 -63
19 -97 43 -17 12 -46 23 -65 25 -19 1 -45 12 -57 23 -12 11 -30 20 -40 20 -10
0 -27 8 -37 17 -28 25 -86 45 -143 49 l-50 4 40 -21 c23 -13 34 -24 27 -27 -8
-2 -19 1 -25 7 -6 6 -21 11 -34 11 -13 0 -26 7 -29 15 -7 18 -41 20 -46 4 -3
-9 -9 -9 -25 0 -34 18 -2517 15 -2559 -3z m2741 -66 c3 -5 -1 -10 -10 -10 -9
0 -13 5 -10 10 3 6 8 10 10 10 2 0 7 -4 10 -10z m835 -281 c0 -5 8 -9 18 -9
25 0 103 -53 93 -63 -4 -4 -25 3 -46 17 -21 14 -45 26 -55 26 -19 0 -53 33
-44 43 8 8 34 -3 34 -14z m148 -147 c2 -7 -3 -12 -11 -12 -17 0 -49 34 -40 43
8 8 45 -15 51 -31z m-128 -192 c0 -5 -2 -10 -4 -10 -3 0 -8 5 -11 10 -3 6 -1
10 4 10 6 0 11 -4 11 -10z m970 -139 c14 -5 39 -6 55 -4 22 3 37 -3 58 -22 15
-14 27 -30 27 -35 0 -6 6 -10 14 -10 14 0 33 -37 24 -45 -9 -10 -78 50 -78 67
0 10 -5 18 -11 18 -6 0 -9 -7 -5 -15 7 -20 -7 -19 -84 6 -97 32 -110 38 -110
49 0 11 63 5 110 -9z m-52 -69 c2 -7 -1 -12 -6 -12 -18 0 -42 12 -42 21 0 13
43 4 48 -9z m-283 -22 c3 -5 -3 -10 -14 -10 -12 0 -21 5 -21 10 0 6 6 10 14
10 8 0 18 -4 21 -10z m424 -12 c19 -7 22 -11 12 -21 -9 -9 -19 -7 -46 7 -19
11 -35 23 -35 28 0 9 18 5 69 -14z m51 -90 c0 -13 -23 -5 -28 10 -2 7 2 10 12
6 9 -3 16 -11 16 -16z m96 -3 c18 -15 18 -15 -5 -13 -14 2 -26 9 -29 16 -5 17
10 15 34 -3z m72 -45 c7 -11 8 -20 2 -20 -5 0 -14 9 -20 20 -6 11 -7 20 -3 20
5 0 14 -9 21 -20z m117 -46 c19 -16 23 -23 12 -20 -10 3 -24 6 -30 6 -7 0 -18
9 -25 20 -18 30 6 26 43 -6z m79 -65 c-8 -13 -24 -1 -24 18 0 13 3 13 15 3 8
-7 12 -16 9 -21z m-133 1 c-11 -11 -20 -14 -28 -7 -21 15 -15 24 15 24 26 0
27 -2 13 -17z m82 -37 c18 -6 24 -33 7 -33 -18 0 -70 43 -70 58 0 12 4 11 23
-2 12 -9 30 -19 40 -23z m125 7 c12 -11 23 -20 26 -20 2 0 17 -12 33 -27 16
-16 41 -38 57 -51 48 -40 20 -37 -39 4 -31 21 -59 43 -63 49 -4 6 -22 17 -39
24 -33 13 -39 22 -26 34 11 12 29 8 51 -13z m20 -99 c22 -20 29 -41 13 -41
-12 0 -71 59 -71 71 0 11 24 -1 58 -30z m-1758 -6 c0 -5 -5 -3 -10 5 -5 8 -10
20 -10 25 0 6 5 3 10 -5 5 -8 10 -19 10 -25z m-135 5 c3 -5 1 -10 -4 -10 -6 0
-11 5 -11 10 0 6 2 10 4 10 3 0 8 -4 11 -10z m247 -24 c20 -19 34 -36 31 -40
-3 -3 5 -10 18 -15 13 -5 37 -23 53 -40 17 -17 36 -31 43 -31 7 0 18 -11 23
-24 5 -13 37 -55 71 -93 35 -38 72 -93 86 -125 14 -32 30 -55 37 -52 6 2 23
-7 38 -21 15 -14 31 -25 35 -25 10 0 57 -59 66 -82 3 -10 14 -18 24 -18 10 0
27 -12 37 -27 18 -24 18 -26 2 -35 -13 -8 -15 -13 -5 -24 6 -7 9 -21 5 -29 -4
-10 1 -15 15 -15 13 0 19 5 16 13 -20 48 -20 50 -6 45 8 -2 15 -14 17 -26 2
-12 12 -27 22 -32 10 -5 22 -19 25 -30 4 -11 17 -32 30 -46 14 -15 30 -39 37
-55 14 -31 28 -38 28 -15 0 8 6 17 13 19 7 3 5 6 -5 6 -10 1 -18 5 -18 10 0 5
-6 16 -12 23 -22 24 -58 77 -58 86 0 5 -12 19 -26 33 -15 13 -36 44 -47 69
-11 25 -45 72 -76 105 -77 82 -131 151 -131 167 1 7 10 2 21 -12 12 -14 52
-58 90 -98 38 -40 69 -77 69 -82 0 -6 7 -10 15 -10 9 0 19 -10 24 -23 8 -22
40 -55 48 -49 10 7 23 0 23 -14 0 -14 -3 -14 -15 -4 -25 21 -17 -5 10 -30 14
-13 25 -28 25 -33 0 -5 27 -38 60 -73 33 -36 67 -79 76 -97 9 -17 23 -39 31
-49 8 -9 16 -24 17 -33 1 -9 10 -25 19 -36 9 -10 17 -29 17 -40 0 -20 -1 -21
-25 -5 -13 9 -27 16 -30 16 -14 0 51 -73 72 -81 13 -5 23 -15 23 -23 0 -8 11
-26 25 -40 14 -14 25 -37 25 -51 0 -14 5 -25 11 -25 11 0 86 -79 103 -109 6
-11 29 -46 51 -78 22 -32 51 -78 64 -103 13 -25 37 -62 54 -84 55 -69 75 -100
112 -173 33 -65 55 -96 55 -77 0 3 -15 34 -33 68 -35 65 -51 110 -36 100 5 -3
19 -24 30 -47 12 -23 33 -56 48 -74 14 -18 35 -43 46 -57 11 -14 26 -28 33
-31 16 -6 -31 77 -75 132 -18 23 -33 46 -33 51 0 5 -13 23 -30 40 -16 18 -30
39 -30 47 0 23 -25 68 -57 103 -46 49 -53 60 -53 82 0 23 -17 27 -22 5 -6 -26
-27 -1 -31 38 -4 36 -34 77 -57 77 -5 0 -10 9 -10 20 0 11 -6 20 -14 20 -15 0
-50 42 -90 113 -37 63 -10 65 30 2 24 -39 30 -44 40 -31 10 14 13 14 28 -2 9
-10 16 -24 16 -31 0 -6 11 -22 24 -34 13 -12 32 -36 42 -53 19 -31 74 -109
135 -189 17 -22 39 -55 51 -72 11 -18 24 -33 29 -33 5 0 9 -13 9 -29 0 -32 38
-65 64 -55 20 8 20 18 2 33 -8 7 -33 41 -56 76 -23 35 -48 66 -56 69 -8 3 -14
14 -14 24 0 10 -19 36 -43 59 -23 22 -51 58 -62 79 -11 22 -32 55 -47 75 -16
20 -28 49 -28 63 0 23 -15 61 -30 76 -3 3 -5 14 -5 24 0 11 -6 21 -12 24 -21
6 -15 -33 12 -84 28 -52 28 -54 17 -54 -11 0 -72 102 -72 121 0 8 -9 20 -20
27 -11 7 -20 22 -20 33 0 12 -9 36 -20 54 l-20 33 22 5 c26 7 58 -18 91 -73
11 -19 24 -37 28 -40 3 -3 10 -16 14 -30 4 -14 15 -36 25 -50 10 -14 21 -35
24 -47 4 -13 13 -23 20 -23 6 0 23 -19 36 -41 14 -23 35 -52 48 -64 12 -12 22
-32 22 -43 0 -12 9 -26 20 -32 14 -7 20 -21 20 -45 0 -36 21 -65 49 -65 20 0
92 -105 85 -125 -3 -7 -1 -16 5 -20 6 -3 11 -15 11 -25 0 -10 16 -36 36 -57
41 -44 84 -123 84 -153 0 -19 -4 -21 -30 -15 -23 5 -32 3 -36 -10 -5 -12 -14
-15 -30 -11 -14 4 -24 2 -24 -4 0 -14 -33 -13 -49 3 -10 10 -12 8 -9 -7 3 -16
-17 -26 -132 -64 -74 -25 -171 -60 -215 -78 -44 -18 -112 -42 -151 -54 -68
-21 -73 -21 -98 -5 -14 10 -26 21 -26 25 0 4 -11 12 -25 18 -14 6 -25 17 -25
23 0 7 -16 26 -37 44 -27 24 -36 39 -36 63 0 17 -6 33 -14 36 -7 3 -13 12 -13
20 0 8 -6 16 -12 18 -8 3 -12 19 -10 41 3 30 1 36 -12 31 -28 -11 -18 22 14
46 17 13 30 27 30 32 0 12 -32 6 -49 -10 -10 -9 -17 -10 -24 -3 -16 16 3 31
60 51 34 12 47 22 45 33 -3 17 70 57 104 57 16 0 16 1 2 13 -9 6 -19 21 -22
33 -7 24 9 34 102 60 34 10 62 23 62 30 0 18 -17 27 -22 12 -2 -6 -44 -19 -94
-29 -49 -9 -97 -20 -106 -24 -13 -5 -18 -2 -18 9 0 9 5 16 12 16 6 0 3 9 -7
20 -10 12 -25 18 -33 15 -13 -5 -37 19 -115 110 -14 17 -29 27 -32 23 -8 -8
131 -177 152 -185 14 -6 18 -43 5 -43 -4 0 -14 6 -21 13 -10 10 -14 9 -22 -5
-6 -10 -19 -18 -29 -18 -26 0 -34 -17 -14 -28 9 -5 14 -14 10 -21 -10 -16 -36
-14 -36 4 0 19 -13 19 -50 0 -19 -10 -40 -13 -56 -9 -26 7 -26 8 -8 21 17 13
14 14 -32 8 -45 -6 -52 -4 -56 13 -4 15 -12 18 -35 15 -23 -4 -35 1 -50 21
-11 13 -31 28 -45 31 -30 8 -98 71 -98 92 0 10 -7 14 -19 10 -26 -6 -123 90
-103 102 13 8 -20 46 -94 108 -24 20 -31 36 -33 73 -1 10 -7 7 -20 -10 l-19
-24 -21 24 c-11 14 -20 33 -21 44 0 17 2 17 24 3 21 -14 26 -15 36 -1 8 9 21
12 33 8 11 -4 23 -1 28 7 8 11 11 11 20 -3 5 -10 16 -18 24 -18 18 0 8 37 -15
53 -9 7 -21 23 -25 37 -4 14 -13 29 -19 33 -8 6 -8 10 2 14 21 8 13 23 -13 23
-18 0 -25 -5 -25 -20 0 -11 -2 -20 -5 -20 -2 0 -24 19 -49 43 -65 62 -73 67
-91 61 -11 -5 -14 -2 -9 10 3 9 1 16 -5 16 -14 0 -15 -32 -1 -46 5 -5 10 -24
12 -42 1 -18 7 -31 13 -29 5 2 9 17 7 33 -3 28 -2 28 42 -20 25 -27 46 -53 46
-58 0 -4 7 -8 15 -8 8 0 15 -4 15 -10 0 -5 4 -10 9 -10 5 0 7 9 4 20 -3 11 -1
20 4 20 11 0 49 -39 42 -43 -2 -2 -21 -11 -41 -22 l-37 -19 -25 27 c-14 15
-30 27 -37 27 -7 0 -5 -8 6 -20 14 -16 16 -23 7 -32 -10 -10 -18 -6 -38 15
-27 30 -54 36 -54 12 0 -8 5 -15 10 -15 6 0 10 -7 10 -15 0 -8 -4 -15 -10 -15
-16 0 -60 23 -60 32 0 4 -7 8 -15 8 -9 0 -12 6 -9 15 4 9 0 15 -10 15 -9 0
-16 5 -16 10 0 6 -5 10 -11 10 -8 0 -8 -4 -1 -13 6 -7 7 -18 3 -26 -14 -21
-20 1 -20 67 1 76 -5 94 -41 131 -16 15 -32 41 -35 57 -4 16 -11 39 -16 52 -5
13 -9 31 -9 42 0 27 35 14 65 -24 23 -28 23 -32 8 -43 -23 -17 -10 -27 16 -13
17 9 21 19 19 50 -2 22 -7 40 -12 40 -4 0 -5 7 -2 16 4 10 -3 23 -20 36 -14
12 -23 27 -20 35 3 8 1 11 -4 8 -6 -3 -10 -13 -10 -21 0 -8 -7 -14 -15 -14
-19 0 -19 29 0 53 15 20 11 42 -12 69 -9 10 -11 18 -4 22 6 4 8 27 6 54 -3 26
-2 40 1 32 11 -25 87 -101 112 -111 13 -5 22 -17 22 -29 0 -11 4 -20 9 -20 11
0 34 -61 26 -69 -14 -14 -45 -9 -55 9 -6 11 -17 20 -25 20 -7 0 -15 6 -18 13
-2 6 -7 9 -11 6 -4 -4 4 -18 18 -32 14 -15 26 -33 26 -41 0 -9 14 -19 33 -24
21 -5 33 -15 35 -29 2 -14 18 -27 46 -39 23 -11 44 -23 45 -29 1 -5 9 -9 17
-7 8 2 14 -2 14 -8 0 -5 7 -10 15 -10 14 0 14 3 0 30 -8 16 -15 36 -15 45 0 8
-4 15 -10 15 -5 0 -12 11 -16 25 -3 14 -11 25 -18 25 -10 0 -56 62 -56 75 0
14 18 2 30 -20 10 -18 17 -22 26 -14 8 7 13 6 17 -3 2 -7 8 -9 13 -5 4 4 3 17
-4 27 -27 43 -7 40 41 -6 20 -20 37 -31 37 -25 0 6 5 11 10 11 6 0 10 -6 10
-13 0 -7 9 -18 20 -25 11 -7 20 -22 20 -33 0 -15 4 -19 16 -15 22 8 59 -23
108 -92 23 -31 58 -75 78 -97 21 -22 38 -45 38 -51 0 -6 9 -19 20 -29 11 -10
18 -21 15 -23 -3 -3 -16 5 -30 18 -34 32 -40 21 -11 -19 14 -18 26 -27 28 -20
2 7 24 -11 48 -39 24 -29 49 -52 57 -52 7 0 12 -5 10 -11 -1 -6 6 -13 17 -14
10 -2 30 -14 43 -27 l26 -23 -24 43 c-13 24 -44 64 -68 90 -24 26 -63 74 -88
106 -24 33 -64 80 -88 105 -25 25 -45 52 -45 60 0 7 -24 39 -53 71 -30 32 -63
77 -75 101 -11 24 -59 84 -107 132 -62 64 -84 93 -80 107 4 12 -16 39 -70 96
-80 83 -93 110 -23 50 24 -20 73 -62 111 -94 37 -31 67 -61 67 -67 0 -6 21
-31 46 -55 46 -46 110 -139 96 -141 -4 -1 -10 -1 -14 0 -5 0 -8 -4 -8 -9 0 -6
14 -13 30 -16 17 -4 30 -10 30 -15 0 -5 8 -17 18 -27 31 -32 82 -110 82 -125
0 -16 39 -68 40 -53 0 11 65 -70 82 -104 7 -14 22 -34 32 -45 l19 -20 -8 20
c-4 11 -10 31 -13 43 -2 13 -15 34 -28 47 -13 13 -24 30 -24 37 1 24 90 -87
101 -124 13 -49 34 -70 64 -62 18 5 34 -5 80 -52 43 -44 59 -54 65 -44 6 9 -3
23 -30 44 -47 38 -100 100 -100 115 0 7 -8 10 -18 7 -12 -4 -27 7 -52 40 -19
25 -49 60 -65 77 -17 18 -38 44 -48 60 -17 26 -17 27 1 27 12 0 22 -12 31 -35
11 -32 31 -48 31 -25 0 6 4 10 9 10 13 0 66 -53 67 -67 1 -7 2 -16 2 -20 1 -5
21 -8 44 -8 29 0 42 -4 41 -12 -2 -7 3 -13 11 -13 8 0 16 -4 18 -9 2 -4 14
-12 28 -16 21 -6 18 -1 -18 34 -42 40 -116 71 -97 41 5 -9 4 -11 -3 -6 -7 4
-12 13 -12 20 0 7 -9 21 -20 31 -11 10 -20 23 -20 29 0 6 -16 25 -36 41 -88
73 -144 142 -144 180 0 12 59 3 95 -15 47 -24 57 -18 23 12 -137 123 -178 163
-175 172 2 6 -9 27 -24 47 -33 42 -35 49 -15 49 8 0 17 6 20 13 3 6 3 1 0 -12
-4 -14 -2 -21 4 -17 5 3 25 -13 43 -36 19 -22 69 -77 111 -121 43 -44 80 -89
84 -99 3 -11 23 -36 45 -55 21 -19 39 -41 39 -49 0 -7 10 -19 23 -25 12 -7 40
-32 63 -56 22 -24 43 -40 47 -37 12 12 8 24 -7 24 -8 0 -16 7 -20 15 -3 8 -12
15 -19 15 -8 0 -19 11 -25 24 -9 20 -8 25 4 30 22 8 9 22 -26 29 -30 7 -67 42
-125 120 -16 22 -39 50 -52 63 -13 13 -23 30 -23 37 0 8 -12 28 -27 44 -16 17
-50 55 -76 87 -52 60 -95 92 -83 61 10 -27 -4 -38 -25 -19 -34 31 -17 81 19
52 9 -7 4 3 -11 23 -15 20 -27 41 -27 46 0 13 -66 73 -80 73 -6 0 -10 11 -10
25 0 14 -4 25 -8 25 -5 0 -14 11 -20 25 -16 34 -4 31 40 -9z m68 -1 c18 -19
31 -37 28 -40 -6 -7 -78 55 -78 67 0 16 17 7 50 -27z m-377 -9 c9 -7 17 -18
17 -24 0 -6 9 -16 20 -22 11 -6 20 -18 20 -27 0 -13 -5 -12 -26 8 -54 51 -79
101 -31 65z m-48 -36 c3 -5 2 -10 -4 -10 -5 0 -13 5 -16 10 -3 6 -2 10 4 10 5
0 13 -4 16 -10z m2120 -33 c11 -9 17 -18 13 -22 -4 -4 -19 5 -33 19 -14 14
-32 26 -40 26 -8 0 -15 5 -15 10 0 11 39 -7 75 -33z m-2245 -2 c14 -19 14 -19
-2 -6 -10 7 -18 18 -18 24 0 6 1 8 3 6 1 -2 9 -13 17 -24z m294 19 c9 -3 16
-9 16 -13 0 -3 32 -40 71 -81 71 -74 109 -130 89 -130 -5 0 -18 9 -27 20 -10
11 -26 29 -36 40 -10 12 -23 18 -29 14 -7 -5 -8 -3 -3 5 4 8 -4 25 -22 44 -34
38 -86 107 -79 107 2 0 11 -3 20 -6z m140 -23 c10 -11 16 -25 14 -32 -4 -13
-48 27 -48 43 0 14 16 9 34 -11z m-214 -41 l35 -30 -30 6 c-28 7 -54 29 -55
47 0 14 15 7 50 -23z m2170 0 c0 -5 -4 -10 -10 -10 -5 0 -10 5 -10 10 0 6 5
10 10 10 6 0 10 -4 10 -10z m-1838 -45 c7 -33 0 -37 -28 -18 -31 20 -31 38 0
41 18 1 25 -4 28 -23z m-457 -12 c14 -15 25 -32 25 -37 0 -5 -9 2 -20 15 -12
13 -28 30 -37 37 -9 6 -12 12 -5 12 6 0 23 -12 37 -27z m384 -12 c26 -36 29
-60 5 -40 -21 17 -47 69 -35 69 5 0 19 -13 30 -29z m346 -19 c-4 -4 -13 2 -21
12 -21 30 -17 39 7 15 11 -11 18 -24 14 -27z m383 -74 c23 -39 41 -73 38 -75
-8 -8 -85 82 -86 99 0 9 -3 23 -6 32 -3 9 -2 16 2 16 5 -1 28 -33 52 -72z
m-793 35 c14 -15 25 -32 25 -38 0 -5 16 -21 35 -34 19 -13 35 -28 35 -32 0 -5
22 -45 50 -89 40 -65 46 -80 31 -80 -18 0 -81 70 -81 89 0 6 -5 11 -10 11 -6
0 -16 12 -22 28 -7 15 -32 55 -55 89 -55 81 -60 111 -8 56z m-44 -21 c7 -20 6
-20 -16 -10 -26 12 -30 20 -18 32 11 11 25 2 34 -22z m-476 8 c3 -5 2 -10 -4
-10 -5 0 -13 5 -16 10 -3 6 -2 10 4 10 5 0 13 -4 16 -10z m349 -61 c31 -34 56
-70 56 -79 0 -10 15 -28 33 -39 28 -17 53 -44 110 -118 7 -10 3 -13 -17 -13
-16 0 -29 7 -33 18 -3 9 -30 40 -60 69 -39 38 -52 46 -47 30 6 -22 30 -56 49
-69 7 -5 6 -8 -1 -8 -19 0 -42 25 -118 129 -11 14 -13 20 -6 14 21 -19 40 -16
40 6 0 11 -3 22 -8 25 -15 9 -73 96 -64 96 5 0 35 -28 66 -61z m601 51 c3 -5
2 -10 -4 -10 -5 0 -13 5 -16 10 -3 6 -2 10 4 10 5 0 13 -4 16 -10z m180 -16
c14 -15 25 -32 25 -39 0 -7 7 -19 16 -26 25 -21 64 -86 63 -106 0 -14 -3 -12
-12 7 -6 14 -24 39 -39 55 -16 17 -40 49 -55 73 -15 23 -31 42 -35 42 -4 0 -8
5 -8 10 0 18 20 11 45 -16z m1564 -57 c21 -29 50 -63 65 -76 14 -14 26 -30 26
-36 0 -6 11 -22 25 -35 14 -13 25 -33 25 -44 -1 -18 -6 -15 -37 19 -19 22 -47
58 -61 80 -15 22 -48 63 -74 92 -51 55 -63 82 -28 63 11 -6 37 -34 59 -63z
m-1630 38 c1 -10 12 -27 22 -38 17 -19 26 -57 14 -57 -10 0 -54 55 -55 67 0 6
-5 13 -11 15 -5 2 -7 11 -3 21 8 22 28 17 33 -8z m-1011 -10 c-3 -3 -9 2 -12
12 -6 14 -5 15 5 6 7 -7 10 -15 7 -18z m217 -15 c3 -5 1 -10 -4 -10 -6 0 -11
5 -11 10 0 6 2 10 4 10 3 0 8 -4 11 -10z m130 0 c3 -6 -1 -7 -9 -4 -18 7 -21
14 -7 14 6 0 13 -4 16 -10z m275 -10 c0 -5 -4 -10 -10 -10 -5 0 -10 5 -10 10
0 6 5 10 10 10 6 0 10 -4 10 -10z m-1015 -20 c3 -5 1 -10 -4 -10 -6 0 -11 5
-11 10 0 6 2 10 4 10 3 0 8 -4 11 -10z m1510 -76 c29 -50 23 -80 -10 -44 -10
11 -15 20 -11 20 4 0 0 10 -8 22 -9 12 -16 28 -16 35 0 26 19 12 45 -33z
m-1115 17 c0 -5 8 -11 19 -14 12 -3 19 -13 19 -31 0 -30 -21 -30 -27 0 -1 10
-10 27 -19 37 -9 10 -11 17 -4 17 7 0 12 -4 12 -9z m740 -60 c21 -18 29 -31
22 -35 -10 -6 -72 46 -72 59 0 12 20 3 50 -24z m690 19 c0 -5 -4 -10 -10 -10
-5 0 -10 5 -10 10 0 6 5 10 10 10 6 0 10 -4 10 -10z m-1600 -60 c24 -48 24
-50 3 -51 -11 0 -13 -3 -5 -6 6 -2 12 -15 12 -28 0 -35 27 -57 61 -50 27 6 29
5 29 -25 0 -19 6 -33 16 -37 12 -4 13 -8 3 -13 -16 -10 24 -76 51 -85 11 -4
20 -13 20 -21 0 -8 8 -14 18 -14 20 0 44 -53 35 -76 -3 -9 8 -27 26 -45 18
-17 31 -38 29 -47 -1 -9 1 -22 5 -29 4 -6 3 -14 -3 -18 -14 -9 -12 -25 3 -25
22 0 78 -31 84 -46 3 -8 15 -14 28 -14 12 0 33 -8 46 -18 13 -10 42 -27 64
-37 22 -11 42 -23 45 -26 3 -3 16 -9 30 -12 14 -3 36 -16 50 -29 15 -15 25
-18 28 -10 6 18 19 15 24 -6 3 -9 39 -40 82 -67 42 -28 99 -69 126 -93 27 -24
66 -56 88 -72 48 -35 82 -77 76 -94 -3 -7 2 -19 11 -26 20 -17 2 -40 -31 -40
-17 0 -24 -6 -24 -20 0 -13 7 -20 20 -20 11 0 20 -6 20 -14 0 -8 6 -16 13 -19
6 -2 8 -8 4 -13 -4 -5 -11 -4 -15 2 -14 21 -39 22 -56 2 -13 -15 -15 -23 -5
-34 14 -17 -4 -44 -29 -44 -13 0 -12 3 3 14 18 13 17 14 -8 31 -17 11 -39 16
-63 13 -29 -3 -35 -1 -31 13 3 11 -4 21 -20 28 -32 15 -43 14 -43 -4 0 -9 10
-15 26 -15 20 0 25 -4 20 -16 -3 -9 -6 -22 -6 -30 0 -22 -31 -17 -37 6 -3 11
-9 20 -15 20 -5 0 -19 9 -31 21 -12 12 -38 33 -57 47 -19 15 -37 30 -40 34 -3
4 -28 14 -55 24 -28 9 -69 29 -92 45 -23 16 -46 29 -52 29 -17 0 -40 30 -35
45 7 17 54 21 54 5 0 -5 12 -10 28 -10 15 0 44 -11 64 -25 39 -26 62 -32 56
-14 -2 6 -7 9 -11 7 -5 -2 -13 5 -18 15 -6 9 -16 17 -23 17 -8 0 -19 7 -26 15
-7 8 -21 15 -32 15 -11 0 -26 7 -34 15 -9 8 -24 15 -36 15 -11 0 -18 5 -16 12
5 14 93 40 136 39 17 -1 32 4 32 9 0 6 -7 10 -15 10 -19 0 -19 10 -1 24 8 6
18 22 21 36 6 23 1 28 -47 50 -57 25 -81 44 -71 54 4 3 1 6 -5 6 -6 0 -19 8
-29 19 -20 20 -63 34 -63 20 0 -5 -4 -9 -10 -9 -5 0 -10 7 -10 15 0 9 -9 15
-25 15 -14 0 -28 6 -31 14 -3 8 -17 17 -32 21 -56 14 -221 163 -206 187 5 8
11 6 19 -5 13 -19 35 -23 35 -7 0 6 -5 10 -12 10 -6 0 -28 17 -49 38 -21 20
-46 43 -54 50 -24 20 -14 46 18 50 41 5 42 24 5 79 -47 68 -92 159 -84 172 4
6 0 14 -8 17 -17 6 -21 31 -10 58 10 26 22 19 44 -24z m1617 8 c-3 -7 -5 -2
-5 12 0 14 2 19 5 13 2 -7 2 -19 0 -25z m-2027 12 c0 -5 -4 -10 -10 -10 -5 0
-10 5 -10 10 0 6 5 10 10 10 6 0 10 -4 10 -10z m890 -10 c0 -5 -4 -10 -10 -10
-5 0 -10 5 -10 10 0 6 5 10 10 10 6 0 10 -4 10 -10z m-800 -101 c0 -20 -39 -7
-55 19 -10 15 -24 31 -32 35 -7 4 -13 15 -13 23 0 11 16 2 50 -26 28 -23 50
-46 50 -51z m1985 53 c-6 -7 -35 18 -35 31 0 5 9 2 20 -8 11 -10 18 -20 15
-23z m-845 -4 c0 -6 -7 -5 -15 2 -8 7 -15 17 -15 22 0 6 7 5 15 -2 8 -7 15
-17 15 -22z m-600 -8 c9 -16 8 -20 -5 -20 -8 0 -15 2 -15 4 0 2 -3 11 -6 20
-9 23 13 20 26 -4z m705 -51 c26 -38 44 -73 40 -77 -7 -8 -64 57 -65 74 0 6
-9 19 -20 29 -21 19 -27 45 -11 45 5 0 31 -32 56 -71z m680 20 c14 -22 -3 -18
-26 7 -23 25 -23 26 -2 15 12 -6 25 -16 28 -22z m-38 -49 l14 -35 -30 32 c-35
36 -38 46 -14 41 9 -2 23 -19 30 -38z m-97 10 c0 -5 -4 -10 -10 -10 -5 0 -10
5 -10 10 0 6 5 10 10 10 6 0 10 -4 10 -10z m208 -51 c2 -23 2 -23 -13 -5 -18
24 -20 39 -2 34 6 -3 13 -15 15 -29z m-2038 -6 c29 -26 39 -56 21 -67 -15 -9
-69 17 -78 38 -12 27 -5 56 13 56 8 0 28 -12 44 -27z m875 7 c-3 -5 -10 -10
-16 -10 -5 0 -9 5 -9 10 0 6 7 10 16 10 8 0 12 -4 9 -10z m1035 -20 c12 -8 11
-10 -7 -10 -13 0 -23 5 -23 10 0 13 11 13 30 0z m-500 -42 c0 -6 -6 -5 -15 2
-8 7 -15 14 -15 16 0 2 7 1 15 -2 8 -4 15 -11 15 -16z m-1264 -54 c3 -19 11
-34 18 -34 6 0 35 -25 63 -55 29 -30 58 -55 65 -55 18 0 61 -69 54 -87 -4 -10
-13 -12 -28 -7 -13 4 -31 7 -41 8 -10 1 -22 8 -27 16 -19 30 -19 2 0 -37 11
-23 21 -55 22 -73 3 -37 13 -46 32 -30 21 16 66 1 76 -26 12 -31 2 -59 -15
-44 -6 5 -15 7 -18 4 -4 -4 -18 1 -33 11 -14 9 -47 20 -72 24 -46 6 -72 31
-32 31 26 0 22 22 -6 30 -36 10 -84 53 -79 71 7 20 -15 39 -47 43 -43 5 -78
18 -72 27 3 6 14 7 25 4 23 -8 24 2 3 26 -13 14 -21 16 -35 8 -17 -9 -19 -6
-19 32 0 32 -4 42 -20 46 -24 6 -27 45 -6 62 11 10 21 9 46 -4 17 -9 34 -23
37 -31 3 -7 12 -14 20 -14 8 0 28 -13 45 -30 37 -37 46 -39 19 -4 -12 15 -21
31 -21 36 0 5 -9 19 -20 31 -26 27 -22 49 10 57 37 10 49 2 56 -36z m1874 -16
c0 -16 -18 -7 -34 17 -25 38 -19 53 9 20 13 -16 24 -33 25 -37z m50 -18 c12
-17 19 -36 16 -43 -3 -7 -7 -3 -11 11 -4 12 -11 22 -16 22 -4 0 -13 9 -19 20
-17 32 6 24 30 -10z m-10 -52 c0 -5 -7 -8 -15 -8 -10 0 -15 10 -15 27 0 26 1
26 15 7 8 -10 15 -22 15 -26z m240 -31 c0 -5 -4 -5 -10 -2 -5 3 -10 14 -10 23
0 15 2 15 10 2 5 -8 10 -19 10 -23z m-2390 8 c7 -9 10 -18 6 -22 -8 -9 -56 14
-56 27 0 15 36 12 50 -5z m1580 -35 c0 -5 -4 -10 -10 -10 -5 0 -10 5 -10 10 0
6 5 10 10 10 6 0 10 -4 10 -10z m40 -25 c0 -5 -5 -3 -10 5 -5 8 -10 20 -10 25
0 6 5 3 10 -5 5 -8 10 -19 10 -25z m519 -41 c43 -69 48 -95 9 -53 -19 21 -38
52 -66 112 -2 4 0 7 5 7 5 0 28 -30 52 -66z m-1621 -37 c2 -10 -3 -17 -12 -17
-18 0 -29 16 -21 31 9 14 29 6 33 -14z m487 -28 c12 -19 -5 -23 -22 -6 -16 16
-16 17 -1 17 9 0 20 -5 23 -11z m1635 -74 c0 -16 -29 -1 -38 20 -18 39 -14 42
13 13 14 -15 25 -30 25 -33z m10 45 c0 -5 -7 -7 -15 -4 -8 4 -15 8 -15 10 0 2
7 4 15 4 8 0 15 -4 15 -10z m-2583 -92 c38 -27 39 -30 16 -50 -49 -42 -89 -20
-77 41 8 37 17 38 61 9z m2588 -69 c11 -17 -1 -21 -15 -4 -8 9 -8 15 -2 15 6
0 14 -5 17 -11z m-1995 -19 c0 -5 -7 -10 -15 -10 -8 0 -15 5 -15 10 0 6 7 10
15 10 8 0 15 -4 15 -10z m2130 -10 c0 -5 -7 -10 -16 -10 -8 0 -12 5 -9 10 3 6
10 10 16 10 5 0 9 -4 9 -10z m-2710 -25 c10 6 50 -16 50 -27 0 -9 -102 2 -114
12 -17 16 4 30 30 20 14 -6 30 -8 34 -5z m2651 5 c21 -12 23 -18 10 -38 -6
-11 -14 -8 -35 13 -14 14 -26 28 -26 30 0 9 31 5 51 -5z m-2461 -18 c0 -14 -8
-19 -30 -19 -22 0 -30 5 -30 19 0 13 8 18 30 18 22 0 30 -5 30 -18z m778 -19
c7 -7 9 -13 4 -13 -6 0 -18 -3 -28 -7 -13 -5 -16 -3 -11 10 5 12 1 17 -13 17
-20 0 -26 11 -14 23 7 6 39 -10 62 -30z m-223 -2 c3 -5 2 -12 -3 -15 -12 -7
-52 4 -52 15 0 12 47 12 55 0z m120 -1 c-3 -5 -10 -10 -16 -10 -5 0 -9 5 -9
10 0 6 7 10 16 10 8 0 12 -4 9 -10z m2910 0 c3 -5 2 -10 -4 -10 -5 0 -13 5
-16 10 -3 6 -2 10 4 10 5 0 13 -4 16 -10z m-1050 -77 c12 -19 26 -30 34 -27
18 6 61 -22 61 -40 0 -8 6 -17 13 -19 9 -4 9 -8 1 -14 -24 -17 -10 -69 43
-162 31 -53 60 -101 65 -108 15 -19 0 -33 -37 -33 -20 0 -38 -6 -42 -15 -8
-13 -11 -13 -31 1 -16 11 -22 25 -22 54 0 22 -9 55 -20 75 -24 43 -24 45 -4
45 15 0 15 2 1 24 -9 13 -16 34 -16 47 0 13 -1 34 -1 46 0 12 -5 25 -11 28 -6
4 -14 18 -19 31 -5 13 -17 24 -26 24 -19 0 -74 50 -74 68 0 9 11 12 32 10 24
-2 38 -12 53 -35z m-85 -52 c0 -21 -16 -2 -24 29 -7 24 -6 24 8 6 9 -11 16
-27 16 -35z m-815 -71 c3 -5 2 -10 -4 -10 -5 0 -13 5 -16 10 -3 6 -2 10 4 10
5 0 13 -4 16 -10z m49 4 c20 -8 21 -24 2 -24 -8 0 -25 -12 -38 -27 -22 -26
-60 -53 -73 -53 -15 0 -1 28 22 45 15 11 37 30 48 41 11 12 21 22 22 23 1 1 8
-2 17 -5z m1029 -35 c13 -6 32 -27 41 -46 15 -31 15 -36 1 -50 -14 -14 -14
-17 0 -32 21 -24 21 -48 0 -31 -8 7 -15 18 -15 24 0 6 -9 17 -19 23 -34 21
-63 98 -44 116 8 9 8 9 36 -4z m-1323 -9 c0 -5 -5 -10 -11 -10 -5 0 -7 5 -4
10 3 6 8 10 11 10 2 0 4 -4 4 -10z m1185 -37 c8 -28 -6 -30 -30 -3 -22 24 -13
63 9 39 8 -8 17 -24 21 -36z m-1863 -54 c15 -10 34 -19 43 -19 8 0 15 -5 15
-11 0 -12 -27 -6 -87 22 -24 10 -43 24 -43 30 0 14 38 3 72 -22z m758 21 c0
-5 -2 -10 -4 -10 -3 0 -8 5 -11 10 -3 6 -1 10 4 10 6 0 11 -4 11 -10z m70 -10
c0 -5 -4 -10 -10 -10 -5 0 -10 5 -10 10 0 6 5 10 10 10 6 0 10 -4 10 -10z
m-220 -26 c0 -8 -10 -14 -25 -14 -23 0 -34 18 -19 32 10 10 44 -4 44 -18z m45
16 c3 -5 1 -10 -4 -10 -6 0 -11 5 -11 10 0 6 2 10 4 10 3 0 8 -4 11 -10z
m-445 -92 c0 -17 -24 -19 -54 -4 -40 19 -60 41 -51 56 6 11 105 -38 105 -52z
m-397 27 c-4 -15 -36 -12 -41 3 -3 9 3 13 19 10 13 -1 23 -7 22 -13z m992 -5
c3 -5 -1 -10 -10 -10 -9 0 -13 5 -10 10 3 6 8 10 10 10 2 0 7 -4 10 -10z
m-884 -21 c35 -6 77 -18 92 -26 16 -8 35 -12 42 -9 8 3 19 -1 25 -9 6 -7 23
-16 38 -20 35 -8 72 -43 72 -67 0 -15 -5 -18 -19 -13 -11 3 -23 0 -27 -7 -4
-6 -2 -14 4 -16 13 -4 17 -43 5 -41 -22 4 -25 -3 -7 -15 31 -23 7 -38 -39 -24
-20 6 -37 15 -37 19 0 5 -7 6 -15 3 -8 -4 -12 -10 -9 -15 3 -5 9 -7 14 -4 5 3
15 -4 23 -15 8 -11 26 -21 40 -22 21 -2 25 -6 22 -23 -3 -11 -1 -33 4 -50 9
-30 15 -19 11 23 -1 16 4 22 19 22 12 0 21 -3 21 -8 0 -8 92 -32 99 -26 2 2
-2 10 -8 18 -9 10 -9 16 -1 21 22 14 33 -11 21 -46 -11 -31 -15 -97 -4 -71 3
9 12 5 29 -13 13 -15 22 -31 18 -36 -3 -5 3 -30 12 -56 13 -35 15 -48 6 -51
-7 -2 -12 -11 -12 -19 0 -9 -6 -13 -15 -9 -9 3 -15 0 -15 -9 0 -8 -4 -15 -9
-15 -5 0 -16 -6 -23 -14 -18 -17 -97 -56 -115 -56 -7 0 -13 -6 -13 -14 0 -7
-16 -21 -35 -30 -19 -9 -35 -20 -35 -24 0 -4 -23 -20 -51 -35 -28 -16 -53 -35
-56 -43 -3 -8 -11 -14 -18 -14 -7 0 -15 -7 -19 -15 -3 -8 -13 -15 -22 -15 -10
0 -14 -5 -11 -14 4 -10 1 -13 -8 -10 -8 4 -34 -13 -62 -39 -70 -66 -186 -157
-200 -157 -7 0 -13 -4 -13 -10 0 -5 -9 -10 -20 -10 -11 0 -20 -4 -20 -10 0 -5
-7 -10 -15 -10 -8 0 -15 -4 -15 -10 0 -5 -11 -10 -24 -10 -15 0 -26 -7 -29
-20 -3 -14 -14 -20 -32 -20 -15 0 -39 -9 -55 -20 -23 -17 -33 -18 -59 -9 -17
6 -32 18 -33 27 0 10 -2 22 -2 27 -1 6 -12 25 -26 43 -17 23 -27 29 -34 21 -8
-7 -6 -13 7 -20 21 -12 22 -32 2 -49 -13 -11 -20 -10 -41 0 -13 8 -22 20 -20
27 3 7 3 13 0 13 -2 0 -9 -11 -14 -25 -8 -21 -14 -24 -37 -19 -42 9 -74 49
-67 82 l7 27 -25 -22 c-32 -30 -52 -30 -45 -1 5 16 -4 31 -34 60 -21 21 -39
43 -39 49 0 7 -10 9 -25 6 -18 -3 -30 2 -40 16 -7 11 -25 20 -39 20 -16 0 -28
6 -32 19 -4 13 -11 17 -24 13 -21 -7 -37 24 -19 36 8 4 -8 27 -46 65 -54 54
-57 60 -52 97 5 33 1 42 -24 64 -38 34 -43 55 -25 92 9 17 16 38 15 48 0 10
-3 13 -6 6 -7 -18 -32 -16 -39 2 -9 23 15 48 32 34 11 -9 14 -8 14 4 0 8 -6
17 -12 20 -10 3 -10 9 0 26 16 27 15 34 -2 28 -8 -3 -17 -3 -21 1 -3 4 -14 7
-22 7 -25 0 -26 22 -2 46 18 18 29 21 68 16 35 -4 51 -1 68 13 18 14 20 19 8
24 -13 5 -22 36 -11 36 3 0 25 -13 49 -30 48 -32 121 -44 98 -16 -8 10 -9 16
-1 21 5 3 10 0 10 -8 0 -7 11 -24 24 -36 24 -23 46 -21 46 3 0 7 10 18 23 24
33 16 105 24 112 12 3 -5 26 -10 50 -10 24 0 47 -5 51 -11 4 -7 22 -9 50 -4
41 6 45 4 54 -20 8 -21 13 -25 24 -16 12 10 58 16 93 12 7 0 10 -9 7 -18 -5
-17 -5 -17 9 0 15 18 47 23 47 7 0 -16 26 -12 41 6 9 11 23 14 48 11 52 -7
128 -16 191 -22 l55 -5 -25 20 c-14 11 -31 20 -37 20 -7 0 -13 5 -13 10 0 6
-16 10 -35 10 -23 0 -34 -4 -32 -12 1 -7 -7 -13 -18 -13 -15 0 -19 6 -17 23 3
17 -2 22 -20 22 -13 0 -29 9 -36 21 -11 18 -11 23 5 35 17 13 17 15 1 28 -29
22 -21 35 25 38 l42 3 -1 46 -2 45 78 12 c52 7 90 8 112 2 43 -13 91 -13 83 0
-3 6 -17 10 -30 10 -15 0 -29 9 -36 23 -7 12 -17 26 -23 30 -7 6 -5 7 5 4 10
-3 46 -11 80 -18z m779 -28 c0 -5 -9 -11 -21 -14 -16 -4 -18 -3 -8 9 13 16 29
19 29 5z m60 -16 c0 -8 -4 -15 -9 -15 -13 0 -22 16 -14 24 11 11 23 6 23 -9z
m1539 -14 c12 -16 21 -34 21 -39 0 -6 5 -12 12 -14 13 -5 22 -134 10 -142 -25
-15 -69 81 -89 197 -7 37 19 36 46 -2z m-106 -2 c3 -13 1 -19 -6 -16 -15 5
-22 37 -9 37 5 0 12 -9 15 -21z m-1592 -40 c-25 -20 -46 -26 -36 -9 3 6 12 10
20 10 7 0 16 7 19 16 4 9 10 14 14 10 4 -4 -4 -16 -17 -27z m109 17 c0 -7 -7
-19 -15 -26 -13 -11 -15 -8 -15 14 0 16 5 26 15 26 8 0 15 -6 15 -14z m90 -12
c0 -8 -4 -12 -10 -9 -5 3 -10 13 -10 21 0 8 5 12 10 9 6 -3 10 -13 10 -21z
m2091 4 c11 -21 11 -22 -4 -9 -10 7 -17 17 -17 22 0 15 9 10 21 -13z m-2115
-49 c0 -29 22 -63 44 -67 8 -2 17 -8 18 -13 2 -5 10 -9 18 -9 8 0 14 -4 14 -8
0 -4 20 -24 44 -45 34 -28 43 -32 39 -17 -3 11 0 20 6 20 6 0 11 -5 11 -11 0
-5 4 -7 10 -4 12 7 60 -42 60 -61 0 -8 -7 -14 -15 -14 -8 0 -15 5 -15 10 0 6
-9 1 -20 -10 -11 -11 -29 -20 -40 -20 -11 0 -44 -8 -74 -19 -44 -15 -57 -16
-76 -6 -13 7 -35 12 -49 10 -15 -2 -32 2 -40 8 -8 7 -28 17 -45 22 -22 7 -30
16 -28 28 3 15 -3 18 -30 15 -18 -2 -35 -6 -38 -10 -3 -4 -16 -5 -28 -1 -27 7
-29 38 -3 52 17 9 37 68 27 79 -6 5 -40 -28 -54 -53 -11 -20 -12 -20 -18 3 -3
12 -12 22 -19 22 -7 0 -16 8 -19 17 -5 12 5 29 35 56 23 21 39 32 36 24 -3 -9
6 -23 22 -35 27 -19 28 -19 39 -1 7 11 18 16 28 12 11 -4 23 2 35 18 18 22 20
23 30 7 12 -21 29 -24 29 -5 0 13 38 36 55 32 6 -1 10 -13 11 -26z m-533 -5
c12 -13 -6 -34 -29 -34 -22 0 -23 3 -14 20 10 19 31 26 43 14z m607 2 c0 -11
-19 -15 -25 -6 -3 5 1 10 9 10 9 0 16 -2 16 -4z m1395 -36 c0 -29 -32 -41 -41
-16 -9 24 4 48 23 44 12 -2 18 -12 18 -28z m-115 -40 c0 -11 -7 -20 -15 -20
-15 0 -21 21 -8 33 12 13 23 7 23 -13z m-130 -73 c19 -16 41 -46 48 -65 7 -20
18 -43 26 -51 19 -23 66 -130 66 -152 0 -10 5 -21 10 -24 15 -9 12 -35 -5 -35
-17 0 -35 30 -35 60 0 13 -5 20 -12 18 -23 -8 -20 -37 6 -59 14 -13 26 -28 26
-35 0 -7 11 -34 24 -61 12 -26 24 -68 25 -93 1 -25 9 -73 17 -108 12 -46 15
-97 12 -180 -4 -112 -5 -120 -38 -177 -74 -128 -280 -287 -549 -422 -90 -46
-172 -83 -181 -83 -10 0 -23 -7 -30 -15 -7 -8 -16 -15 -21 -15 -5 0 -32 -11
-61 -24 -68 -30 -125 -52 -213 -81 -174 -56 -190 -60 -290 -60 -89 0 -106 3
-160 28 -33 16 -85 51 -116 78 -31 27 -62 49 -68 49 -6 0 -11 7 -11 15 0 8 -3
15 -8 15 -4 0 -25 18 -47 41 -22 22 -62 63 -88 90 -27 27 -78 88 -114 136 -36
49 -69 89 -73 91 -5 2 -18 35 -30 73 -21 66 -21 72 -5 111 21 53 69 123 120
174 50 50 263 223 290 235 11 5 35 21 53 35 17 15 32 22 32 16 0 -6 -24 -29
-52 -51 -29 -22 -66 -51 -82 -65 -16 -14 -32 -26 -36 -26 -4 0 -47 -40 -97
-88 l-91 -89 20 -31 c11 -18 25 -32 30 -32 6 0 6 -6 -2 -15 -6 -8 -9 -19 -5
-26 6 -8 9 -8 15 1 17 28 17 -18 -1 -54 l-18 -37 25 -21 c20 -18 24 -30 22
-71 -1 -50 12 -70 39 -60 7 3 16 -2 19 -11 3 -9 14 -16 23 -16 14 1 14 2 -1
14 -22 16 -23 44 -4 71 8 11 19 40 26 65 17 63 31 90 47 90 10 0 12 -13 7 -57
-3 -32 -10 -70 -16 -85 -12 -31 -5 -70 16 -91 8 -8 19 -30 24 -48 l9 -34 8 28
c6 21 13 27 29 25 13 -2 20 2 18 10 -2 10 4 11 19 7 12 -4 27 -8 33 -10 6 -1
18 -5 26 -8 23 -9 78 -3 92 11 15 15 40 16 55 1 18 -18 46 -3 38 21 -4 14 -2
20 9 20 28 0 29 -22 2 -47 -15 -14 -24 -28 -21 -32 4 -3 14 4 22 17 9 12 26
22 38 22 15 0 25 7 28 21 3 12 10 18 17 14 13 -8 53 17 86 52 13 14 28 22 33
18 6 -3 11 -1 11 4 0 6 10 11 23 11 48 0 34 25 -26 46 -15 6 -17 13 -12 41 7
39 -14 54 -47 34 -10 -6 -23 -9 -28 -6 -16 10 -12 35 5 35 8 0 15 8 15 19 0
10 11 34 24 54 33 49 43 82 22 74 -8 -3 -18 -1 -22 4 -8 14 45 69 68 69 10 0
18 5 18 10 0 6 11 10 25 10 18 0 25 5 25 20 0 18 5 20 39 14 33 -5 41 -3 50
15 7 13 22 21 36 21 30 0 32 15 5 30 -22 12 -26 43 -7 57 6 5 39 10 72 11 37
0 61 5 64 13 2 6 12 20 22 30 11 11 19 27 19 37 0 13 8 18 28 17 17 0 27 5 27
15 0 8 3 20 6 25 4 6 9 27 13 48 7 36 6 38 -13 27 -12 -6 -21 -15 -21 -20 0
-36 -110 -33 -129 4 l-11 21 5 -21 c5 -20 0 -22 -67 -30 -40 -4 -83 -7 -95 -6
-12 2 -24 -2 -28 -7 -8 -13 -35 -2 -35 14 0 8 9 10 28 7 27 -5 27 -5 8 17 -11
11 -23 21 -27 21 -5 0 -20 10 -34 22 -14 12 -38 24 -53 26 -14 2 -28 5 -30 7
-2 1 29 19 69 39 40 20 77 40 83 45 6 5 26 12 44 16 17 3 32 11 32 16 0 5 9 9
20 9 11 0 52 15 92 34 39 19 76 32 80 30 5 -3 15 -1 22 6 33 27 217 70 299 70
l74 0 19 -42 c10 -24 32 -57 49 -73 16 -17 50 -55 74 -85 25 -29 47 -48 49
-41 2 6 0 17 -6 24 -5 7 -12 25 -16 41 -12 49 -56 116 -77 116 -21 0 -59 37
-59 58 0 26 89 5 130 -31z m354 -90 c17 -25 26 -51 26 -78 0 -23 6 -55 14 -72
18 -43 36 -130 36 -178 0 -36 23 -113 40 -132 4 -5 5 23 2 62 -3 49 -1 71 7
71 6 0 11 -4 11 -9 0 -5 8 -11 18 -13 18 -5 134 -254 152 -327 5 -19 18 -47
29 -62 12 -16 21 -34 21 -41 0 -7 11 -32 24 -55 13 -23 27 -57 31 -75 4 -18
10 -46 15 -63 5 -16 14 -61 20 -100 7 -38 24 -90 38 -115 14 -24 31 -78 39
-120 35 -199 73 -377 103 -480 63 -217 116 -528 132 -765 10 -156 9 -199 -6
-328 -24 -212 -95 -470 -179 -647 -52 -112 -87 -197 -87 -215 0 -8 -4 -23 -9
-33 -28 -54 -66 -268 -81 -462 -22 -276 -51 -416 -125 -601 -63 -159 -129
-253 -331 -476 -148 -163 -540 -420 -689 -451 -111 -24 -122 -24 -128 -3 -3
14 -11 18 -24 15 -14 -4 -31 8 -61 40 -23 25 -47 46 -53 46 -5 0 -12 7 -16 16
-3 8 -16 20 -29 25 -27 10 -30 27 -11 54 19 25 -2 67 -47 95 -19 11 -36 29
-39 40 -3 11 -14 20 -25 20 -24 0 -46 25 -37 40 5 8 14 5 30 -10 29 -27 40
-14 50 58 7 53 7 54 -14 43 -12 -7 -21 -20 -21 -30 0 -10 -7 -24 -15 -31 -12
-10 -16 -8 -25 15 -14 37 -13 39 21 52 27 10 30 16 27 45 -2 28 -7 34 -31 36
-19 2 -33 -3 -47 -20 l-19 -23 -36 35 c-25 24 -43 34 -61 32 -16 -2 -24 1 -24
12 0 9 7 16 15 16 21 0 35 32 30 69 -3 22 1 34 10 38 20 7 19 57 -1 74 -14 12
-14 14 0 24 14 10 12 13 -10 24 -23 10 -26 9 -20 -4 10 -27 -25 -31 -45 -4
-25 33 -24 39 11 39 19 0 30 5 30 14 0 8 7 16 15 19 8 4 14 19 15 34 2 140 3
143 45 180 22 19 39 40 37 46 -2 5 7 29 19 52 22 41 22 44 6 69 -9 14 -17 34
-17 46 0 11 -6 19 -12 17 -8 -1 -14 11 -16 31 -2 17 -7 32 -11 32 -11 0 -20
46 -12 57 16 24 83 65 96 59 8 -3 16 -18 16 -33 1 -18 3 -22 6 -10 8 30 72 87
97 87 19 0 28 10 45 51 13 28 19 54 15 57 -4 4 -9 1 -11 -5 -3 -7 -13 -13 -23
-13 -10 0 -22 -5 -26 -11 -3 -6 -17 -8 -30 -5 -20 5 -24 3 -24 -18 0 -17 -10
-30 -34 -44 -23 -14 -36 -17 -39 -9 -2 8 -19 5 -53 -8 -27 -10 -77 -20 -110
-21 -34 0 -66 -4 -73 -8 -10 -7 -31 30 -31 55 0 24 -19 5 -27 -27 -5 -22 -17
-40 -33 -48 -14 -7 -38 -20 -55 -28 -16 -9 -49 -19 -73 -23 -41 -7 -45 -5 -81
32 -44 47 -68 94 -73 143 -3 29 1 36 25 48 16 8 39 15 50 17 12 2 48 11 79 20
52 14 61 14 88 0 29 -15 30 -15 30 8 0 27 17 47 40 47 26 0 100 39 107 56 7
19 -15 36 -38 29 -9 -3 -26 4 -39 15 -25 22 -40 26 -40 10 0 -5 5 -10 11 -10
6 0 9 -6 6 -12 -2 -7 5 -20 15 -30 19 -16 19 -16 -1 -23 -31 -9 -64 12 -57 37
8 34 -12 61 -39 54 -18 -5 -25 -1 -30 13 -4 15 -13 18 -45 15 -22 -2 -53 -10
-69 -19 -42 -21 -61 -19 -61 8 1 20 2 21 14 5 7 -10 16 -18 20 -18 10 0 29 53
27 77 -1 11 3 24 8 28 18 11 1 58 -35 95 -22 24 -37 52 -44 87 -13 60 -35 86
-45 54 -8 -26 -25 -27 -25 -2 0 10 9 25 20 32 17 11 21 26 23 78 1 41 6 65 14
68 7 3 13 9 13 14 0 12 42 53 55 54 5 1 27 9 48 19 33 15 38 21 33 41 -4 16
-1 27 9 33 14 7 14 11 -3 33 -10 13 -22 37 -26 52 -4 19 -12 27 -21 23 -16 -6
-55 54 -55 85 0 10 -4 19 -10 19 -5 0 -15 18 -21 40 -7 22 -16 40 -22 40 -5 0
-7 6 -4 14 3 7 0 22 -7 32 -14 20 -15 72 -2 92 4 7 16 12 27 12 10 0 19 5 19
11 0 6 -6 9 -14 6 -8 -3 -17 -3 -20 1 -12 11 -47 9 -42 -3 5 -14 -10 -42 -19
-34 -3 4 -6 27 -7 53 0 25 -5 49 -10 52 -5 3 -6 15 -3 26 4 12 0 27 -10 39
-15 15 -15 21 -5 34 10 12 10 15 -1 15 -16 0 -59 39 -59 54 0 6 -9 22 -19 36
-15 18 -17 29 -9 43 7 13 6 23 -1 30 -6 6 -11 23 -11 38 0 17 -9 35 -25 47
-14 11 -25 25 -25 32 0 6 -16 27 -36 45 -32 31 -36 38 -30 70 6 33 5 36 -29
52 -37 18 -38 20 -35 71 1 21 -3 32 -12 32 -12 0 -42 41 -59 80 -4 9 -18 33
-32 53 -19 29 -24 44 -18 65 6 23 7 65 2 102 0 5 -7 7 -15 4 -16 -6 -40 30
-33 49 5 16 -31 118 -50 139 -8 9 -12 21 -9 27 3 5 -2 11 -11 13 -12 2 -18 13
-18 32 -1 16 -6 31 -13 34 -7 2 -12 -1 -12 -7 0 -24 -15 -9 -17 15 0 15 -5 29
-11 33 -5 3 -8 17 -7 31 2 24 5 25 72 26 127 3 285 -72 518 -247 88 -65 183
-131 212 -146 l52 -27 89 18 c193 37 430 108 607 184 213 90 483 251 650 386
89 72 221 210 239 249 22 49 38 202 25 254 -21 85 -39 212 -39 276 0 38 -5 78
-12 90 -26 48 -2 247 30 247 5 0 12 10 15 22 7 25 7 25 41 -25z m-394 2 c0 -5
-4 -9 -10 -9 -5 0 -10 7 -10 16 0 8 5 12 10 9 6 -3 10 -10 10 -16z m-1544 -16
c-10 -10 -19 5 -10 18 6 11 8 11 12 0 2 -7 1 -15 -2 -18z m1748 -38 l7 -30
-22 22 c-14 14 -19 27 -15 39 8 22 21 9 30 -31z m-1214 -145 c0 -5 -4 -10 -10
-10 -5 0 -10 5 -10 10 0 6 5 10 10 10 6 0 10 -4 10 -10z m19 -27 c79 -5 108
-49 49 -74 -18 -7 -37 -15 -43 -16 -34 -7 -84 -31 -78 -36 3 -4 0 -7 -7 -7 -9
0 -11 10 -7 35 3 19 2 35 -4 35 -5 0 -9 7 -9 15 0 8 -9 15 -20 15 -11 0 -20
-4 -20 -10 0 -5 -5 -10 -10 -10 -6 0 -3 11 6 25 9 14 24 25 34 25 10 0 23 7
30 15 10 12 16 13 28 3 8 -7 31 -14 51 -15z m119 -21 c3 -9 -2 -13 -14 -10 -9
1 -19 9 -22 16 -3 9 2 13 14 10 9 -1 19 -9 22 -16z m1112 -52 c0 -5 -2 -10 -4
-10 -3 0 -8 5 -11 10 -3 6 -1 10 4 10 6 0 11 -4 11 -10z m-1340 -60 c0 -5 -4
-10 -9 -10 -6 0 -13 5 -16 10 -3 6 1 10 9 10 9 0 16 -4 16 -10z m313 -13 c36
-16 34 -32 -8 -74 -35 -35 -55 -36 -55 -3 0 10 -5 22 -10 25 -6 4 -8 16 -4 27
4 13 -1 24 -13 34 -16 13 -14 14 22 8 22 -3 52 -11 68 -17z m-353 3 c0 -16
-41 -33 -53 -21 -7 7 -3 13 14 20 32 13 39 13 39 1z m-540 -46 c0 -36 0 -36
24 -20 38 24 40 3 3 -27 -18 -14 -122 -100 -232 -191 -161 -134 -292 -226
-321 -226 -10 0 12 37 35 58 14 14 18 19 8 12 -22 -16 -23 -15 -31 43 -5 31
-4 47 3 47 6 0 11 -5 11 -12 0 -9 3 -9 12 0 9 9 9 18 0 37 -15 31 -10 40 29
60 16 9 28 19 25 23 -2 4 6 8 19 8 13 1 37 11 53 23 16 11 33 17 37 13 5 -4 5
1 2 10 -4 12 -2 15 8 11 8 -3 18 2 21 11 3 8 36 32 72 52 37 20 69 39 72 43 6
7 77 43 105 52 39 13 45 10 45 -27z m773 -17 c8 -21 -7 -39 -26 -31 -17 6 -22
25 -10 37 11 11 31 8 36 -6z m-502 -266 c-25 -25 -27 -19 -4 16 9 14 19 21 21
15 2 -6 -6 -20 -17 -31z m-1611 9 c0 -11 -7 -20 -15 -20 -13 0 -13 3 -3 20 7
11 14 20 15 20 2 0 3 -9 3 -20z m1584 -62 c-15 -51 -24 -68 -34 -68 -15 0 -12
38 6 65 20 31 38 33 28 3z m-534 -43 c0 -18 -4 -23 -15 -19 -16 6 -20 26 -8
37 13 14 23 6 23 -18z m990 10 c-7 -8 -17 -12 -22 -9 -6 4 -5 10 3 15 22 14
33 10 19 -6z m-1783 -57 c6 -7 13 -22 17 -33 7 -19 6 -19 -11 -2 -10 10 -27
24 -38 32 -20 14 -20 14 1 15 12 0 26 -6 31 -12z m808 -50 c14 -126 12 -153
-11 -156 -21 -3 -22 0 -23 99 0 56 2 106 5 110 13 21 22 5 29 -53z m1025 -18
c0 -5 -9 -14 -19 -20 -16 -8 -21 -6 -26 10 -9 29 2 42 26 30 10 -6 19 -15 19
-20z m-2495 -77 c28 -3 56 -11 63 -16 10 -8 16 -7 23 6 14 24 74 22 98 -2 10
-10 23 -16 28 -11 12 11 131 21 138 11 3 -5 -1 -11 -7 -14 -7 -2 -10 -8 -6
-12 13 -13 38 4 38 25 0 15 5 20 16 18 21 -4 63 -59 49 -65 -6 -2 -35 -20 -65
-39 -110 -73 -201 -122 -268 -144 -31 -10 -88 -30 -127 -45 -75 -29 -199 -65
-227 -65 -14 0 -18 8 -18 36 0 19 -5 44 -11 55 -7 15 -7 29 0 51 9 26 8 31 -9
35 -17 5 -19 11 -14 42 3 20 13 51 22 69 14 30 13 34 -4 47 -30 21 -9 29 30
11 42 -20 75 -20 101 -2 26 18 55 25 80 20 11 -3 43 -7 70 -11z m505 -24 c0
-5 -4 -9 -10 -9 -5 0 -10 7 -10 16 0 8 5 12 10 9 6 -3 10 -10 10 -16z m1320
-9 c0 -5 -4 -10 -10 -10 -5 0 -10 5 -10 10 0 6 5 10 10 10 6 0 10 -4 10 -10z
m323 -57 c-7 -2 -19 -2 -25 0 -7 3 -2 5 12 5 14 0 19 -2 13 -5z m-1284 -172
c-6 -2 -21 7 -33 19 l-21 23 33 -19 c18 -10 28 -20 21 -23z m41 -41 c0 -10 7
-23 15 -30 8 -7 15 -19 15 -27 0 -7 8 -30 19 -51 26 -52 67 -221 80 -327 35
-311 18 -442 -68 -519 -21 -19 -20 -18 3 25 44 80 58 165 53 312 -5 148 -28
323 -50 382 -8 22 -20 60 -28 85 -7 25 -16 50 -20 55 -6 8 -49 115 -49 122 0
1 7 0 15 -3 8 -4 15 -14 15 -24z m-638 -66 c9 -3 19 -13 22 -22 3 -10 8 -22
11 -28 3 -6 -14 -11 -47 -12 -65 -2 -126 -11 -153 -22 -11 -4 -40 -13 -65 -20
-25 -6 -58 -18 -75 -24 -71 -30 -145 -38 -145 -17 0 14 188 113 276 146 81 30
88 31 123 18 20 -7 43 -16 53 -19z m-92 -187 c0 -6 11 -33 25 -59 23 -43 25
-78 4 -78 -12 0 -29 35 -29 59 0 17 -6 20 -37 18 -44 -2 -56 22 -27 54 19 21
64 26 64 6z m1328 -171 c3 -12 -1 -17 -10 -14 -7 3 -15 13 -16 22 -3 12 1 17
10 14 7 -3 15 -13 16 -22z m-1178 -10 c0 -8 -7 -13 -16 -12 -9 0 -19 -5 -22
-13 -4 -11 4 -13 37 -7 l43 6 -5 -57 c-8 -99 -34 -141 -65 -104 -22 27 -58 18
-66 -15 -6 -24 -10 -25 -94 -28 -13 -1 -29 -8 -35 -17 -15 -19 -87 -35 -87
-19 0 19 -29 42 -45 36 -19 -7 -36 25 -24 46 5 9 24 20 41 23 38 9 70 25 81
43 4 6 15 12 22 12 8 0 15 5 15 10 0 6 -5 10 -12 10 -9 0 -9 3 0 12 10 10 17
10 34 -1 20 -12 23 -12 33 4 5 10 22 32 36 49 23 26 29 28 43 17 13 -11 16
-11 17 0 0 10 2 11 6 2 3 -10 8 -9 20 2 18 19 43 19 43 1z m-1230 -226 c-68
-62 -88 -73 -71 -41 13 23 109 101 125 101 6 0 -18 -27 -54 -60z m1170 5 c0
-8 5 -15 12 -15 6 0 9 -2 6 -5 -3 -3 -13 -3 -22 1 -17 7 -22 34 -6 34 6 0 10
-7 10 -15z m-1260 -89 c0 -7 -12 -31 -26 -52 -21 -30 -24 -42 -15 -56 6 -10
11 -22 11 -28 0 -34 70 -183 125 -265 36 -52 65 -99 65 -104 0 -5 3 -11 8 -13
4 -1 38 -40 76 -86 38 -46 109 -119 158 -162 79 -70 94 -79 141 -86 113 -16
205 -3 402 56 99 30 169 41 115 18 -14 -5 -33 -14 -42 -19 -34 -17 -165 -60
-248 -81 -51 -13 -119 -22 -170 -22 -75 -1 -92 2 -143 28 -102 52 -335 289
-500 510 l-67 88 0 70 c0 76 18 122 71 183 34 39 39 41 39 21z m954 -11 c-6
-16 -34 -21 -34 -7 0 13 11 22 26 22 8 0 11 -6 8 -15z m206 -10 c-7 -8 -21
-15 -32 -15 -17 0 -18 3 -8 15 7 8 21 15 32 15 17 0 18 -3 8 -15z m-71 -20
c18 -18 7 -45 -18 -45 -11 0 -23 -5 -26 -10 -4 -6 -10 -8 -15 -5 -4 3 -6 -4
-3 -15 6 -23 4 -24 -31 -10 -30 11 -34 44 -10 78 11 16 22 21 36 16 15 -4 18
-3 13 6 -10 16 34 3 54 -15z m-115 -114 c21 -18 20 -40 -1 -48 -10 -4 -31 -16
-48 -28 -39 -27 -101 -27 -121 0 -19 25 -18 49 4 68 28 26 138 31 166 8z
m-1199 -86 c0 -14 -8 -21 -27 -23 -30 -4 -38 14 -16 36 18 18 43 10 43 -13z
m-110 -55 c-3 -5 -10 -10 -16 -10 -5 0 -9 5 -9 10 0 6 7 10 16 10 8 0 12 -4 9
-10z m-118 -36 c2 -6 -9 -14 -24 -17 -34 -6 -40 -2 -23 18 14 17 41 17 47 -1z
m-2517 -134 c0 -13 -5 -18 -15 -14 -8 4 -15 12 -15 20 0 8 7 14 15 14 8 0 15
-9 15 -20z m3330 -205 c0 -8 -2 -15 -4 -15 -2 0 -6 7 -10 15 -3 8 -1 15 4 15
6 0 10 -7 10 -15z m770 -75 c0 -5 -5 -10 -11 -10 -5 0 -7 5 -4 10 3 6 8 10 11
10 2 0 4 -4 4 -10z m-995 -20 c3 -5 1 -10 -4 -10 -6 0 -11 5 -11 10 0 6 2 10
4 10 3 0 8 -4 11 -10z m35 -41 c0 -6 -4 -7 -10 -4 -5 3 -10 11 -10 16 0 6 5 7
10 4 6 -3 10 -11 10 -16z m-3313 -36 c5 -15 -36 -28 -49 -15 -6 6 -7 15 -3 22
9 14 47 9 52 -7z m3393 -33 c6 -11 7 -20 2 -20 -5 0 -17 9 -27 20 -16 18 -16
20 -2 20 9 0 21 -9 27 -20z m72 -70 c12 -11 17 -20 11 -20 -5 0 -18 9 -28 20
-10 11 -15 20 -11 20 4 0 16 -9 28 -20z m-165 -32 c-3 -8 -6 -5 -6 6 -1 11 2
17 5 13 3 -3 4 -12 1 -19z m-3257 -22 c0 -9 -14 -56 -32 -107 -7 -20 -15 -25
-29 -22 -10 3 -19 0 -19 -6 0 -17 -21 -13 -36 7 -11 14 -13 15 -14 2 0 -9 5
-21 12 -28 9 -9 9 -15 0 -24 -9 -9 -12 -9 -12 3 0 8 -9 25 -21 37 -11 12 -17
26 -14 32 3 5 -12 14 -34 20 -45 12 -58 25 -42 44 6 7 8 16 4 19 -3 4 24 4 61
0 62 -6 68 -4 89 19 12 14 29 28 37 30 17 5 50 -12 50 -26z m3950 24 c-8 -5
-24 -10 -35 -10 -17 0 -17 2 -5 10 8 5 24 10 35 10 17 0 17 -2 5 -10z m-387
-45 c34 -7 31 -29 -5 -33 -19 -2 -28 2 -33 17 -3 12 -14 21 -23 21 -10 0 -22
8 -29 19 -11 18 -11 18 25 0 20 -10 50 -21 65 -24z m197 -10 c-8 -10 -29 -14
-70 -12 -67 2 -67 14 0 20 25 2 53 4 64 5 15 2 16 -1 6 -13z m1707 9 c-3 -3
-12 -4 -19 -1 -8 3 -5 6 6 6 11 1 17 -2 13 -5z m-2112 -44 c3 -5 -1 -10 -10
-10 -9 0 -13 5 -10 10 3 6 8 10 10 10 2 0 7 -4 10 -10z m65 -40 c0 -5 -4 -10
-10 -10 -5 0 -10 5 -10 10 0 6 5 10 10 10 6 0 10 -4 10 -10z m86 -11 c5 -8 9
-8 14 1 6 9 12 6 21 -11 7 -13 13 -28 14 -33 0 -5 6 -11 14 -14 10 -3 12 0 8
12 -4 10 -1 16 7 16 8 0 16 -7 20 -15 3 -8 13 -15 21 -15 9 0 13 5 10 10 -11
18 6 50 25 50 20 0 40 -27 40 -53 0 -10 -8 -13 -25 -9 -23 4 -25 1 -25 -32 0
-23 5 -39 15 -42 8 -4 15 -12 15 -20 0 -8 -7 -14 -15 -14 -8 0 -15 -4 -15 -10
0 -5 9 -10 20 -10 11 0 20 -6 20 -14 0 -24 18 -28 51 -12 34 17 56 12 64 -14
7 -22 -4 -70 -16 -70 -4 0 -14 -10 -20 -22 -10 -18 -8 -24 7 -35 20 -14 18
-18 -13 -27 -22 -7 -23 -5 -23 48 0 53 1 56 26 56 14 0 23 4 19 10 -11 17 -61
11 -80 -10 -10 -11 -24 -20 -31 -20 -7 0 -17 -8 -23 -17 -9 -17 -11 -17 -25 2
-9 11 -19 30 -22 42 -5 18 -11 21 -35 16 -22 -4 -29 -2 -29 10 0 8 -6 20 -14
26 -8 7 -17 25 -21 40 -4 19 -17 33 -40 44 -31 15 -34 20 -31 53 3 27 9 40 25
46 12 4 21 16 21 28 0 22 15 27 26 9z m261 -147 c-3 -22 -9 -28 -35 -30 -29
-3 -32 -1 -32 26 0 25 4 29 19 25 10 -3 22 0 26 6 11 19 26 1 22 -27z m-3347
-52 c0 -5 -2 -10 -4 -10 -3 0 -8 5 -11 10 -3 6 -1 10 4 10 6 0 11 -4 11 -10z
m12 -34 c16 -23 8 -54 -14 -60 -34 -9 -38 -8 -38 9 0 8 -4 15 -10 15 -6 0 -6
8 1 23 11 24 48 32 61 13z m3078 -36 c0 -5 -7 -7 -15 -4 -8 4 -12 10 -9 15 6
11 24 2 24 -11z m-3272 -63 c4 -30 0 -32 -28 -17 -12 6 -16 17 -13 30 8 30 37
21 41 -13z m-398 -38 c0 -5 -4 -9 -10 -9 -5 0 -10 7 -10 16 0 8 5 12 10 9 6
-3 10 -10 10 -16z m630 -19 c0 -11 5 -20 11 -20 5 0 8 -4 5 -9 -3 -4 1 -17 9
-27 26 -34 19 -49 -25 -50 -22 -1 -37 2 -34 7 3 5 1 9 -5 9 -5 0 -11 12 -13
28 -3 23 -7 27 -30 24 -25 -2 -28 1 -28 25 0 20 3 24 9 14 5 -7 14 -10 20 -7
6 4 11 3 11 -2 0 -6 10 -5 25 1 14 7 25 15 25 20 0 4 5 7 10 7 6 0 10 -9 10
-20z m3190 10 c0 -5 -4 -10 -10 -10 -5 0 -10 5 -10 10 0 6 5 10 10 10 6 0 10
-4 10 -10z m90 -25 c10 -12 10 -15 -3 -15 -23 0 -47 11 -47 21 0 15 37 10 50
-6z m-77 -19 c21 -16 21 -22 1 -30 -20 -8 -54 11 -54 29 0 18 29 19 53 1z
m-3375 -39 c11 0 26 -12 32 -25 6 -15 16 -22 25 -18 20 7 19 -18 0 -34 -10 -9
-19 -9 -27 -2 -13 10 -18 12 -39 12 -5 0 -7 5 -4 10 12 19 -34 10 -70 -14 -79
-54 -98 10 -22 76 l42 37 21 -20 c12 -11 31 -21 42 -22z m-198 -127 c0 -5 -7
-10 -16 -10 -8 0 -12 5 -9 10 3 6 10 10 16 10 5 0 9 -4 9 -10z m43 -7 c-7 -2
-19 -2 -25 0 -7 3 -2 5 12 5 14 0 19 -2 13 -5z m4467 -8 c0 -35 -192 -135
-246 -127 -18 3 -21 8 -15 30 5 19 21 34 53 50 114 57 208 78 208 47z m-295
-105 c-10 -11 -20 -18 -23 -15 -7 6 18 35 31 35 5 0 2 -9 -8 -20z m-4448 -26
c-3 -3 -12 -4 -19 -1 -8 3 -5 6 6 6 11 1 17 -2 13 -5z m-48 -51 c-1 -22 -2
-23 -6 -8 -3 11 -10 23 -17 27 -7 5 -5 8 7 8 12 0 17 -7 16 -27z m6531 17 c0
-5 -7 -10 -15 -10 -8 0 -15 5 -15 10 0 6 7 10 15 10 8 0 15 -4 15 -10z m-6670
-114 c0 -8 -5 -18 -10 -21 -6 -3 -10 3 -10 14 0 12 5 21 10 21 6 0 10 -6 10
-14z m6308 -137 c-12 -18 -9 -24 26 -55 42 -36 66 -36 42 1 -13 20 -13 24 -1
29 19 7 38 -29 31 -59 -3 -13 -22 -39 -41 -59 -50 -52 -82 -49 -136 12 -29 33
-43 43 -47 33 -3 -8 -22 -32 -44 -54 -38 -39 -39 -39 -66 -22 -62 40 -95 88
-68 98 7 3 48 11 92 17 43 7 86 18 94 25 23 19 57 27 65 15 3 -5 13 -10 21
-10 8 0 13 4 10 9 -9 14 4 41 20 41 12 0 12 -4 2 -21z m-6160 -326 c-2 -9 -23
-27 -47 -40 -43 -23 -70 -31 -42 -14 12 8 12 12 -3 26 -25 25 -1 41 67 44 22
1 28 -3 25 -16z m829 -59 c-3 -3 -12 -4 -19 -1 -8 3 -5 6 6 6 11 1 17 -2 13
-5z m4390 -72 c17 -11 -1 -35 -23 -30 -25 4 -32 38 -7 38 10 0 23 -4 30 -8z
m-242 -77 c-2 -35 -17 -47 -56 -43 -26 2 -35 8 -37 26 -4 24 23 40 68 41 21 1
25 -3 25 -24z m1752 -107 c-3 -8 -6 -5 -6 6 -1 11 2 17 5 13 3 -3 4 -12 1 -19z
m-2637 -79 c0 -14 -17 -10 -23 5 -4 10 -1 13 9 9 7 -3 14 -9 14 -14z m35 -19
c3 -5 2 -10 -4 -10 -5 0 -13 5 -16 10 -3 6 -2 10 4 10 5 0 13 -4 16 -10z m72
-45 c18 -16 23 -24 13 -25 -18 0 -30 8 -49 33 -20 26 3 21 36 -8z m83 -51 c0
-2 -7 -4 -15 -4 -8 0 -15 4 -15 10 0 5 7 7 15 4 8 -4 15 -8 15 -10z m86 -50
c37 -22 57 -44 40 -44 -8 0 -96 61 -96 66 0 8 12 4 56 -22z m-4141 -94 c-3 -5
-10 -10 -16 -10 -5 0 -9 5 -9 10 0 6 7 10 16 10 8 0 12 -4 9 -10z m290 -131
c10 -15 -1 -23 -20 -15 -9 3 -13 10 -10 16 8 13 22 13 30 -1z m4405 -88 c0 -5
16 -12 35 -15 19 -4 40 -12 47 -19 20 -19 149 -80 192 -92 47 -13 66 -42 20
-31 -34 9 -334 153 -334 161 0 3 9 5 20 5 11 0 20 -4 20 -9z m280 -61 c0 -5
-4 -10 -10 -10 -5 0 -10 5 -10 10 0 6 5 10 10 10 6 0 10 -4 10 -10z m-3951 -9
c17 -11 7 -41 -13 -41 -32 0 -66 -23 -61 -40 7 -24 -19 -45 -33 -27 -8 9 -3
26 19 65 31 53 54 64 88 43z m-559 -51 c37 -37 21 -78 -44 -109 -37 -18 -48
-20 -72 -10 -68 27 -73 31 -72 61 1 16 4 26 7 21 14 -19 67 -6 98 25 37 37 55
40 83 12z m316 -57 c-3 -8 -6 -17 -6 -19 0 -2 -11 -4 -24 -4 -32 0 -44 20 -22
35 22 16 59 7 52 -12z m4399 -33 c84 -31 143 -59 151 -72 5 -7 2 -8 -7 -2 -8
5 -21 9 -29 9 -8 0 -22 5 -30 10 -34 23 -63 35 -82 35 -10 0 -38 10 -61 22
-23 12 -46 21 -50 20 -12 -3 -47 17 -47 27 0 5 21 1 48 -9 26 -10 74 -28 107
-40z m1590 20 c3 -5 1 -10 -4 -10 -6 0 -11 5 -11 10 0 6 2 10 4 10 3 0 8 -4
11 -10z m-5627 -96 c18 -8 32 -19 32 -24 0 -21 -13 -40 -28 -40 -34 0 -66 52
-45 73 8 9 5 10 41 -9z m4252 -4 c31 -17 32 -19 12 -20 -27 0 -62 17 -62 30 0
14 10 12 50 -10z m-5036 -26 c3 -8 10 -13 15 -9 6 3 18 -6 27 -20 16 -24 16
-27 -2 -47 -11 -11 -36 -32 -57 -45 -33 -20 -41 -22 -55 -11 -25 19 -41 41
-42 56 0 22 50 81 73 85 12 2 25 5 28 6 4 0 10 -6 13 -15z m5133 -21 c5 -15
-33 -5 -47 12 -9 11 -6 12 16 6 15 -4 29 -12 31 -18z m-5309 -8 c16 -35 16
-35 -18 -35 -22 0 -30 5 -30 18 0 18 18 42 30 42 4 0 12 -11 18 -25z m510
-112 c4 -28 -39 -73 -69 -73 -19 0 -21 4 -16 36 8 47 25 66 56 62 18 -2 27
-10 29 -25z m322 -31 c0 -11 -11 -24 -25 -30 -21 -10 -25 -9 -25 5 0 15 27 42
43 43 4 0 7 -8 7 -18z m390 -37 c7 -9 19 -14 27 -11 28 11 10 -59 -25 -94 -24
-23 -124 -20 -157 5 -15 11 -26 25 -24 30 2 6 33 9 69 8 49 -1 67 2 76 15 9
13 9 19 -4 28 -16 12 -9 34 12 34 8 0 19 -7 26 -15z m-426 -37 c25 -35 19 -46
-24 -50 -22 -2 -40 0 -40 5 0 4 -5 5 -11 1 -16 -10 11 39 30 53 22 17 28 16
45 -9z m42 -130 l-7 -58 61 1 c74 2 90 -9 64 -45 -29 -39 -60 -52 -80 -35 -9
8 -25 13 -34 11 -22 -4 -42 22 -42 53 0 34 -33 62 -52 46 -8 -7 -19 -10 -24
-7 -9 5 -77 -15 -88 -27 -9 -8 -48 -9 -56 -1 -12 11 49 64 80 70 18 4 35 11
38 15 3 5 18 9 33 9 16 0 33 6 39 13 7 7 26 13 43 13 l31 0 -6 -58z m471 -63
c-11 -7 -25 -11 -33 -8 -22 8 -6 23 24 23 25 -1 26 -2 9 -15z m-751 -4 c-4 -5
-1 -11 6 -13 14 -5 2 -28 -16 -28 -7 0 -21 7 -32 15 -16 13 -17 16 -4 25 19
12 53 13 46 1z m814 -81 c0 -5 -4 -10 -10 -10 -5 0 -10 5 -10 10 0 6 5 10 10
10 6 0 10 -4 10 -10z m-290 -62 c10 -38 10 -51 0 -62 -6 -8 -9 -24 -5 -36 5
-15 2 -20 -12 -20 -38 0 -50 41 -19 62 8 5 7 13 -1 28 -16 24 -16 31 -3 66 13
33 23 24 40 -38z m686 37 c4 -8 12 -15 19 -15 29 0 82 -42 103 -81 33 -62 27
-69 -18 -20 -22 24 -59 54 -82 66 -26 14 -44 31 -46 44 -4 24 16 29 24 6z
m-528 -67 c-3 -25 -34 -36 -50 -20 -17 17 -1 42 27 42 22 0 26 -4 23 -22z
m-413 -22 c0 -24 -8 -33 -45 -54 -34 -19 -53 -23 -73 -18 -43 11 -32 43 28 77
63 36 90 35 90 -5z m145 -66 c0 -5 7 -7 16 -3 12 4 15 1 12 -13 -3 -14 -11
-18 -31 -16 -19 2 -27 -2 -27 -13 0 -9 -4 -13 -10 -10 -14 9 -12 52 3 58 21 9
37 8 37 -3z m264 -71 c17 -16 -11 -59 -39 -59 -22 0 -25 4 -25 33 0 19 3 37 7
40 7 8 43 -1 57 -14z m7916 -24 c18 -22 -8 -29 -31 -9 -10 9 -19 20 -19 25 0
11 38 -1 50 -16z m-8060 5 c0 -5 -7 -10 -15 -10 -8 0 -15 5 -15 10 0 6 7 10
15 10 8 0 15 -4 15 -10z m-360 -14 c0 -22 -26 -66 -46 -76 -26 -14 -29 -48 -3
-41 44 12 56 11 77 -9 41 -39 25 -79 -31 -80 -12 0 -31 -7 -42 -15 -13 -10
-30 -13 -53 -9 -24 5 -37 2 -44 -7 -8 -11 -9 -10 -4 4 6 20 2 21 -27 5 -12 -7
-32 -14 -45 -15 -27 -4 -65 14 -56 28 4 6 13 4 25 -7 22 -20 54 -11 45 12 -3
9 -3 21 1 27 5 7 8 30 8 51 0 38 2 40 46 55 25 9 60 28 78 44 18 15 37 25 42
21 5 -3 9 0 9 5 0 6 5 11 10 11 6 0 10 -2 10 -4z m510 -52 c0 -16 -16 -19 -25
-4 -8 13 4 32 16 25 5 -4 9 -13 9 -21z m-72 -52 c3 -23 26 -30 37 -12 3 6 19
10 36 10 28 0 29 -1 29 -53 0 -56 -6 -66 -57 -94 -13 -7 -36 -13 -52 -13 -37
0 -47 26 -26 66 20 39 19 62 -2 60 -13 -1 -17 5 -15 19 8 46 44 58 50 17z
m-268 14 c0 -3 -4 -8 -10 -11 -5 -3 -10 -1 -10 4 0 6 5 11 10 11 6 0 10 -2 10
-4z m1000 -95 c0 -14 -18 -23 -30 -16 -6 4 -8 11 -5 16 8 12 35 12 35 0z m400
-61 c0 -5 -6 -10 -14 -10 -8 0 -18 5 -21 10 -3 6 3 10 14 10 12 0 21 -4 21
-10z m-1770 -124 c-14 -14 -22 -2 -14 18 5 14 9 15 15 4 4 -7 4 -17 -1 -22z"/>
<path d="M6220 8921 c0 -5 7 -15 17 -22 15 -13 15 -12 4 9 -12 23 -21 28 -21
13z"/>
<path d="M5935 8710 c3 -5 8 -10 11 -10 2 0 4 5 4 10 0 6 -5 10 -11 10 -5 0
-7 -4 -4 -10z"/>
<path d="M6452 8598 c9 -13 24 -24 34 -26 15 -3 12 2 -10 22 -36 32 -43 33
-24 4z"/>
<path d="M5756 8562 c-3 -5 1 -9 9 -9 8 0 15 4 15 9 0 4 -4 8 -9 8 -6 0 -12
-4 -15 -8z"/>
<path d="M6360 8481 c0 -4 9 -20 20 -34 11 -14 20 -34 20 -45 0 -11 7 -23 16
-26 22 -8 22 -9 16 22 -8 41 -72 116 -72 83z"/>
<path d="M6610 8482 c0 -5 7 -15 15 -22 8 -7 15 -8 15 -2 0 5 -7 15 -15 22 -8
7 -15 8 -15 2z"/>
<path d="M5954 8466 c-3 -8 6 -28 20 -43 14 -15 26 -32 26 -37 0 -5 11 -19 24
-31 13 -12 29 -32 35 -43 7 -12 16 -22 21 -22 4 0 22 -13 38 -30 46 -45 68
-38 24 8 -78 81 -119 129 -147 170 -31 47 -33 48 -41 28z"/>
<path d="M6035 8430 c10 -11 20 -20 23 -20 3 0 -3 9 -13 20 -10 11 -20 20 -23
20 -3 0 3 -9 13 -20z"/>
<path d="M6130 8334 c0 -3 16 -22 35 -42 20 -20 33 -29 29 -19 -3 9 -10 17
-15 17 -5 0 -9 6 -9 13 0 7 -9 18 -20 25 -11 7 -20 10 -20 6z"/>
<path d="M5807 8312 c8 -22 24 -42 33 -42 5 0 3 11 -3 25 -14 29 -39 43 -30
17z"/>
<path d="M6560 8286 c0 -2 7 -9 15 -16 13 -11 14 -10 9 4 -5 14 -24 23 -24 12z"/>
<path d="M5757 8236 c-4 -10 21 -65 39 -85 6 -6 34 27 34 41 -1 19 -36 58 -53
58 -8 0 -17 -6 -20 -14z"/>
<path d="M5990 8245 c0 -3 8 -18 18 -32 9 -15 12 -24 5 -20 -6 4 -14 3 -18 -3
-3 -5 1 -10 10 -10 20 0 31 28 18 48 -10 16 -33 28 -33 17z"/>
<path d="M6780 8229 c0 -5 5 -7 10 -4 6 3 10 8 10 11 0 2 -4 4 -10 4 -5 0 -10
-5 -10 -11z"/>
<path d="M6850 8208 c0 -9 16 -34 35 -55 31 -33 35 -35 41 -18 5 11 3 20 -4
23 -7 2 -12 10 -12 18 0 8 -9 14 -20 14 -10 0 -24 8 -29 18 -10 16 -10 16 -11
0z"/>
<path d="M6203 8151 c7 -21 15 -27 29 -23 18 4 18 6 -3 28 -30 32 -40 30 -26
-5z"/>
<path d="M5820 8126 c0 -9 5 -16 10 -16 6 0 10 4 10 9 0 6 -4 13 -10 16 -5 3
-10 -1 -10 -9z"/>
<path d="M6646 8115 c4 -8 8 -15 10 -15 2 0 4 7 4 15 0 8 -4 15 -10 15 -5 0
-7 -7 -4 -15z"/>
<path d="M7160 8112 c0 -4 4 -12 9 -17 5 -6 11 -21 13 -35 1 -14 9 -25 17 -25
23 0 23 19 1 45 -11 13 -20 27 -20 32 0 4 -4 8 -10 8 -5 0 -10 -4 -10 -8z"/>
<path d="M6296 8067 c3 -10 9 -15 12 -12 3 3 0 11 -7 18 -10 9 -11 8 -5 -6z"/>
<path d="M6840 8062 c0 -13 39 -32 45 -22 3 5 -3 14 -14 19 -23 13 -31 14 -31
3z"/>
<path d="M6575 8010 c3 -5 11 -10 16 -10 6 0 7 5 4 10 -3 6 -11 10 -16 10 -6
0 -7 -4 -4 -10z"/>
<path d="M6165 7980 c3 -5 8 -10 11 -10 2 0 4 5 4 10 0 6 -5 10 -11 10 -5 0
-7 -4 -4 -10z"/>
<path d="M6080 7940 c0 -5 7 -10 16 -10 8 0 12 5 9 10 -3 6 -10 10 -16 10 -5
0 -9 -4 -9 -10z"/>
<path d="M6580 7925 c7 -8 9 -15 4 -15 -4 0 5 -13 21 -30 16 -16 30 -28 33
-26 4 5 -25 53 -45 74 -17 17 -28 15 -13 -3z"/>
<path d="M6740 7934 c0 -12 30 -34 47 -34 15 0 14 3 -7 20 -25 20 -40 25 -40
14z"/>
<path d="M6563 7838 c2 -7 10 -12 16 -10 7 1 10 -2 7 -6 -3 -5 2 -16 12 -24
15 -14 19 -14 37 5 19 19 19 20 1 13 -13 -4 -23 0 -33 14 -15 22 -48 28 -40 8z"/>
<path d="M7075 7810 c3 -5 8 -10 11 -10 2 0 4 5 4 10 0 6 -5 10 -11 10 -5 0
-7 -4 -4 -10z"/>
<path d="M7140 7760 c0 -5 5 -10 11 -10 5 0 7 5 4 10 -3 6 -8 10 -11 10 -2 0
-4 -4 -4 -10z"/>
<path d="M6650 7740 c0 -5 5 -10 11 -10 5 0 7 5 4 10 -3 6 -8 10 -11 10 -2 0
-4 -4 -4 -10z"/>
<path d="M6812 7690 c12 -16 26 -30 32 -30 5 0 -3 14 -19 30 -16 17 -30 30
-32 30 -2 0 6 -13 19 -30z"/>
<path d="M7310 7696 c0 -2 7 -7 16 -10 8 -3 12 -2 9 4 -6 10 -25 14 -25 6z"/>
<path d="M7004 7664 c3 -9 6 -18 6 -20 0 -2 7 -4 15 -4 13 0 14 4 5 20 -13 24
-35 27 -26 4z"/>
<path d="M6380 7632 c0 -4 15 -16 33 -26 l32 -19 -24 26 c-24 27 -41 34 -41
19z"/>
<path d="M6916 7625 c-11 -8 -16 -15 -10 -15 5 0 18 7 28 15 11 8 16 15 10 15
-5 0 -18 -7 -28 -15z"/>
<path d="M6750 7620 c0 -5 5 -10 11 -10 5 0 7 5 4 10 -3 6 -8 10 -11 10 -2 0
-4 -4 -4 -10z"/>
<path d="M7132 7599 c2 -7 -12 -17 -29 -22 -18 -5 -33 -14 -33 -19 0 -5 -4 -7
-8 -4 -5 3 -20 -1 -35 -9 -14 -7 -35 -11 -47 -8 -23 6 -26 -3 -6 -23 13 -12
17 -12 30 1 8 8 24 15 35 15 12 0 31 6 42 13 17 10 23 10 26 0 5 -15 53 -18
53 -4 0 5 -5 11 -12 13 -6 2 -8 9 -4 16 3 6 13 9 21 6 8 -4 12 -10 9 -15 -3
-5 -1 -9 5 -9 6 0 22 -12 36 -27 24 -27 25 -27 25 -6 0 12 -7 29 -16 37 -8 9
-13 24 -10 34 5 16 0 19 -39 21 -31 1 -44 -2 -43 -10z"/>
<path d="M6460 7589 c0 -5 5 -7 10 -4 6 3 10 8 10 11 0 2 -4 4 -10 4 -5 0 -10
-5 -10 -11z"/>
<path d="M6560 7550 c0 -5 5 -10 11 -10 5 0 7 5 4 10 -3 6 -8 10 -11 10 -2 0
-4 -4 -4 -10z"/>
<path d="M7266 7551 c-7 -11 22 -23 36 -15 6 4 5 10 -3 15 -18 11 -26 11 -33
0z"/>
<path d="M7141 7486 c-24 -25 -27 -36 -8 -36 12 1 57 34 57 43 0 16 -31 12
-49 -7z"/>
<path d="M7023 7407 c41 -49 61 -60 44 -23 -7 14 -18 26 -24 26 -16 0 -17 12
-2 27 9 9 4 12 -20 11 l-31 -1 33 -40z"/>
<path d="M7080 7419 c0 -5 5 -7 10 -4 6 3 10 8 10 11 0 2 -4 4 -10 4 -5 0 -10
-5 -10 -11z"/>
<path d="M6924 7411 c4 -5 0 -12 -6 -14 -8 -3 -6 -6 5 -6 9 -1 17 6 17 14 0 8
-5 15 -11 15 -5 0 -8 -4 -5 -9z"/>
<path d="M7610 7337 c0 -7 18 -31 40 -52 33 -33 40 -36 40 -19 0 21 -52 84
-69 84 -6 0 -11 -6 -11 -13z"/>
<path d="M7680 7225 c0 -8 2 -15 4 -15 2 0 12 -3 21 -7 15 -5 16 -3 6 15 -13
25 -31 29 -31 7z"/>
<path d="M5516 8205 c14 -22 34 -34 34 -20 0 7 -39 45 -45 45 -3 0 2 -11 11
-25z"/>
<path d="M6035 7709 c-4 -6 0 -18 8 -27 8 -9 23 -27 33 -39 25 -31 40 -29 58
7 l14 30 -32 0 c-18 0 -41 9 -54 20 -13 12 -23 16 -27 9z"/>
<path d="M6108 7513 c7 -3 16 -2 19 1 4 3 -2 6 -13 5 -11 0 -14 -3 -6 -6z"/>
<path d="M6430 7439 c0 -5 5 -7 10 -4 6 3 10 8 10 11 0 2 -4 4 -10 4 -5 0 -10
-5 -10 -11z"/>
<path d="M6388 7433 c6 -2 18 -2 25 0 6 3 1 5 -13 5 -14 0 -19 -2 -12 -5z"/>
<path d="M6108 7423 c7 -3 16 -2 19 1 4 3 -2 6 -13 5 -11 0 -14 -3 -6 -6z"/>
<path d="M6180 7371 c0 -5 5 -13 10 -16 6 -3 10 -2 10 4 0 5 -4 13 -10 16 -5
3 -10 2 -10 -4z"/>
<path d="M5880 7215 c24 -13 40 -11 40 4 0 4 -15 8 -32 9 l-33 1 25 -14z"/>
<path d="M5940 7210 c-13 -8 -13 -10 2 -10 9 0 20 5 23 10 8 13 -5 13 -25 0z"/>
<path d="M5965 7180 c3 -5 16 -10 28 -10 18 0 19 2 7 10 -20 13 -43 13 -35 0z"/>
<path d="M5860 7000 c0 -5 5 -10 11 -10 5 0 7 5 4 10 -3 6 -8 10 -11 10 -2 0
-4 -4 -4 -10z"/>
<path d="M5917 6950 c-3 -11 0 -23 7 -28 7 -4 16 -16 20 -27 7 -18 9 -18 15
-3 4 13 10 15 21 8 8 -5 10 -10 5 -10 -6 0 -9 -19 -7 -45 5 -58 22 -59 22 -1
0 26 6 51 15 60 19 19 19 32 -1 40 -8 3 -12 2 -9 -4 3 -6 2 -10 -4 -10 -6 0
-15 9 -21 20 -14 27 -56 27 -63 0z"/>
<path d="M6051 6894 c0 -11 3 -14 6 -6 3 7 2 16 -1 19 -3 4 -6 -2 -5 -13z"/>
<path d="M6115 6890 c3 -5 14 -10 23 -10 15 0 15 2 2 10 -20 13 -33 13 -25 0z"/>
<path d="M5255 6559 c-10 -15 3 -25 16 -12 7 7 7 13 1 17 -6 3 -14 1 -17 -5z"/>
<path d="M5245 6418 c-4 -9 -4 -22 0 -28 10 -16 45 -12 45 5 0 8 -6 15 -14 15
-8 0 -16 6 -19 13 -3 8 -7 7 -12 -5z"/>
<path d="M5020 6275 c7 -8 17 -15 22 -15 6 0 5 7 -2 15 -7 8 -17 15 -22 15 -6
0 -5 -7 2 -15z"/>
<path d="M5125 6250 c3 -5 8 -10 11 -10 2 0 4 5 4 10 0 6 -5 10 -11 10 -5 0
-7 -4 -4 -10z"/>
<path d="M5167 6199 c4 -12 11 -18 20 -15 8 3 17 6 20 6 3 0 0 7 -7 15 -19 22
-39 19 -33 -6z"/>
<path d="M5304 6085 c3 -9 6 -19 6 -21 0 -2 7 -4 15 -4 21 0 19 13 -6 29 -19
11 -21 11 -15 -4z"/>
<path d="M6406 7101 c-7 -11 3 -41 13 -41 12 0 31 23 31 37 0 15 -36 18 -44 4z"/>
<path d="M6902 6968 c-7 -7 -12 -16 -12 -21 0 -5 7 -1 16 8 9 9 14 18 12 20
-2 3 -10 -1 -16 -7z"/>
<path d="M7283 6893 c-17 -6 -16 -23 1 -23 8 0 28 -16 45 -35 19 -22 36 -33
46 -29 8 3 15 2 15 -4 0 -6 -6 -12 -12 -15 -9 -3 -6 -12 10 -29 12 -13 22 -30
22 -36 0 -10 5 -10 20 -2 21 11 28 40 9 40 -5 0 -8 4 -4 9 7 13 -47 101 -62
101 -7 0 -13 5 -13 11 0 8 -4 8 -14 0 -10 -9 -16 -8 -26 4 -13 16 -17 17 -37
8z"/>
<path d="M7177 6841 c3 -10 18 -34 33 -52 l29 -34 -8 32 c-8 26 -42 73 -55 73
-2 0 -2 -9 1 -19z"/>
<path d="M7970 6810 c6 -11 15 -18 20 -15 13 8 0 35 -16 35 -12 0 -12 -4 -4
-20z"/>
<path d="M6222 5914 c-7 -8 -12 -20 -9 -27 2 -7 9 -2 16 11 15 28 11 36 -7 16z"/>
<path d="M6160 5813 c0 -19 280 -313 298 -313 4 0 18 -12 31 -25 26 -28 38
-27 23 2 -40 75 -191 237 -272 292 -73 50 -80 54 -80 44z"/>
<path d="M6588 5783 c7 -3 16 -2 19 1 4 3 -2 6 -13 5 -11 0 -14 -3 -6 -6z"/>
<path d="M7587 5726 c-3 -7 -18 -17 -33 -20 -22 -6 -84 -58 -84 -72 0 -12 32
-1 58 21 16 13 41 29 56 34 14 6 26 17 26 25 0 20 -17 29 -23 12z"/>
<path d="M7430 5621 c0 -6 5 -13 10 -16 6 -3 10 1 10 9 0 9 -4 16 -10 16 -5 0
-10 -4 -10 -9z"/>
<path d="M7363 5584 c-27 -12 -53 -34 -39 -34 10 0 96 40 96 45 0 8 -23 4 -57
-11z"/>
<path d="M5895 5441 c-3 -5 -1 -12 5 -16 5 -3 10 1 10 9 0 18 -6 21 -15 7z"/>
<path d="M6200 4730 c0 -5 5 -10 11 -10 5 0 7 5 4 10 -3 6 -8 10 -11 10 -2 0
-4 -4 -4 -10z"/>
<path d="M8037 4419 c-9 -6 -27 -9 -40 -7 -17 2 -22 -2 -22 -20 0 -19 9 -27
38 -37 92 -32 206 -134 248 -223 17 -37 38 -75 47 -84 16 -19 47 -24 57 -9 11
18 14 154 4 173 -7 13 -7 23 1 32 27 33 -47 116 -122 137 -24 7 -48 17 -55 22
-7 5 -17 6 -22 2 -6 -3 -19 -2 -28 3 -31 16 -87 22 -106 11z"/>
<path d="M8003 3783 c-26 -31 -77 -87 -111 -124 -61 -65 -64 -69 -57 -107 3
-21 15 -54 27 -73 l20 -33 25 29 c14 17 23 25 19 19 -3 -6 1 -19 8 -29 18 -24
44 -13 52 22 4 15 26 69 49 118 56 119 71 235 30 235 -8 0 -35 -26 -62 -57z"/>
<path d="M6979 3451 c-15 -18 -24 -42 -27 -73 -3 -42 -1 -48 15 -48 21 0 67
55 59 69 -6 10 27 43 40 40 20 -3 24 2 15 20 -16 29 -72 24 -102 -8z"/>
<path d="M7734 3355 c-4 -9 -4 -37 -1 -62 4 -41 2 -50 -23 -75 -16 -16 -31
-37 -35 -47 -3 -10 -17 -23 -30 -29 -14 -6 -25 -20 -25 -29 0 -10 -7 -27 -15
-37 -20 -26 -19 -36 4 -36 19 0 61 55 61 79 0 6 18 27 40 47 22 20 40 40 40
45 0 5 14 31 30 57 43 70 41 83 -13 96 -20 5 -29 2 -33 -9z"/>
<path d="M7490 2959 c0 -18 2 -19 15 -9 15 12 12 30 -6 30 -5 0 -9 -10 -9 -21z"/>
<path d="M7368 2877 c-16 -6 -28 -14 -28 -19 0 -14 21 -9 47 12 28 22 23 24
-19 7z"/>
<path d="M7165 2623 c-11 -3 -28 -11 -38 -18 -17 -12 -15 -16 25 -63 45 -52
67 -67 48 -32 -9 17 -7 28 9 54 20 32 20 34 3 50 -10 9 -20 15 -23 15 -2 -1
-13 -4 -24 -6z"/>
<path d="M7202 1639 c2 -6 8 -10 13 -10 5 0 11 4 13 10 2 6 -4 11 -13 11 -9 0
-15 -5 -13 -11z"/>
<path d="M4772 5081 c2 -7 7 -12 11 -12 12 1 9 15 -3 20 -7 2 -11 -2 -8 -8z"/>
<path d="M3890 3559 c0 -5 5 -7 10 -4 6 3 10 8 10 11 0 2 -4 4 -10 4 -5 0 -10
-5 -10 -11z"/>
<path d="M6340 2670 c0 -5 5 -10 11 -10 5 0 7 5 4 10 -3 6 -8 10 -11 10 -2 0
-4 -4 -4 -10z"/>
<path d="M5523 10389 c-4 -14 -11 -18 -22 -14 -11 4 -13 3 -6 -4 6 -6 24 -6
45 -1 19 4 29 8 23 9 -7 1 -13 8 -13 16 0 22 -21 18 -27 -6z"/>
<path d="M5683 10363 c9 -9 19 -14 23 -11 10 10 -6 28 -24 28 -15 0 -15 -1 1
-17z"/>
<path d="M5655 10310 c-13 -6 -15 -9 -5 -9 8 0 22 4 30 9 18 12 2 12 -25 0z"/>
<path d="M5756 10286 c6 -16 63 -27 83 -16 19 10 0 20 -49 25 -30 3 -38 1 -34
-9z"/>
<path d="M5873 10287 c3 -10 2 -17 -3 -17 -6 0 -10 -4 -10 -10 0 -5 6 -10 13
-10 8 0 22 -9 32 -20 10 -11 21 -17 25 -15 8 5 101 -41 110 -54 3 -4 28 -13
55 -20 28 -7 60 -19 73 -27 12 -8 22 -10 22 -5 0 15 -81 70 -95 65 -16 -7 -54
12 -136 69 -93 63 -93 63 -86 44z"/>
<path d="M5875 10170 c-3 -5 -2 -10 4 -10 5 0 13 5 16 10 3 6 2 10 -4 10 -5 0
-13 -4 -16 -10z"/>
<path d="M5930 10171 c0 -5 14 -16 30 -25 36 -18 40 -5 5 18 -28 18 -35 20
-35 7z"/>
<path d="M6410 9956 c0 -2 7 -7 16 -10 8 -3 12 -2 9 4 -6 10 -25 14 -25 6z"/>
<path d="M6470 9920 c6 -11 16 -20 23 -19 9 0 9 2 0 6 -7 2 -13 9 -13 14 0 6
8 6 19 -1 29 -15 38 -12 15 5 -10 8 -27 15 -37 15 -15 0 -16 -3 -7 -20z"/>
<path d="M6855 9780 c3 -5 13 -10 21 -10 8 0 12 5 9 10 -3 6 -13 10 -21 10 -8
0 -12 -4 -9 -10z"/>
<path d="M6998 9763 c6 -2 18 -2 25 0 6 3 1 5 -13 5 -14 0 -19 -2 -12 -5z"/>
<path d="M6886 9751 c12 -13 117 -52 122 -46 3 2 -8 10 -24 16 -16 7 -43 18
-61 25 -36 16 -51 18 -37 5z"/>
<path d="M6710 9690 c0 -5 7 -10 16 -10 8 0 12 5 9 10 -3 6 -10 10 -16 10 -5
0 -9 -4 -9 -10z"/>
<path d="M6758 9683 c7 -3 16 -2 19 1 4 3 -2 6 -13 5 -11 0 -14 -3 -6 -6z"/>
<path d="M6950 9674 c0 -8 5 -12 10 -9 6 3 10 10 10 16 0 5 -4 9 -10 9 -5 0
-10 -7 -10 -16z"/>
<path d="M7114 9666 c-9 -10 -7 -15 7 -24 34 -22 47 -9 26 26 -10 15 -19 15
-33 -2z"/>
<path d="M7018 9658 c5 -5 16 -8 23 -6 8 3 3 7 -10 11 -17 4 -21 3 -13 -5z"/>
<path d="M6860 9640 c0 -5 5 -10 11 -10 5 0 7 5 4 10 -3 6 -8 10 -11 10 -2 0
-4 -4 -4 -10z"/>
<path d="M7410 9460 c0 -12 40 -34 48 -26 3 4 -3 13 -14 21 -22 17 -34 19 -34
5z"/>
<path d="M368 4428 c9 -9 15 -9 24 0 9 9 7 12 -12 12 -19 0 -21 -3 -12 -12z"/>
<path d="M298 4413 c6 -2 18 -2 25 0 6 3 1 5 -13 5 -14 0 -19 -2 -12 -5z"/>
<path d="M371 4224 c0 -11 3 -14 6 -6 3 7 2 16 -1 19 -3 4 -6 -2 -5 -13z"/>
<path d="M563 818 c-4 -8 -29 -31 -56 -52 -37 -31 -45 -41 -36 -52 6 -8 20
-14 29 -14 10 0 20 -4 22 -9 2 -4 13 -11 25 -15 27 -9 68 29 76 72 9 43 -40
101 -60 70z"/>
<path d="M645 540 c-8 -25 2 -57 19 -63 7 -3 31 0 54 6 34 9 42 16 42 34 0 20
-5 23 -39 23 -22 0 -43 5 -46 10 -10 16 -23 12 -30 -10z m92 -32 c-3 -8 -6 -5
-6 6 -1 11 2 17 5 13 3 -3 4 -12 1 -19z"/>
<path d="M10360 513 c-47 -52 -47 -64 -10 -173 11 -30 24 -85 30 -122 7 -37
18 -72 26 -79 12 -10 14 20 14 205 0 119 -4 216 -9 216 -5 0 -27 -21 -51 -47z"/>
</g>
</svg>
