<?xml version="1.0" standalone="no"?>
<!DOCTYPE svg PUBLIC "-//W3C//DTD SVG 20010904//EN"
 "http://www.w3.org/TR/2001/REC-SVG-20010904/DTD/svg10.dtd">
<svg version="1.0" xmlns="http://www.w3.org/2000/svg"
 width="675.000000pt" height="675.000000pt" viewBox="0 0 675.000000 675.000000"
 preserveAspectRatio="xMidYMid meet">
<metadata>
Created by potrace 1.11, written by Peter Selinger 2001-2013
</metadata>
<g transform="translate(0.000000,675.000000) scale(0.100000,-0.100000)"
fill="#000000" stroke="none">
<path d="M245 6713 c-57 -82 -178 -277 -210 -341 l-35 -67 0 -3093 c0 -2444 3
-3096 12 -3112 10 -16 10 -24 0 -40 -6 -11 -12 -29 -12 -39 0 -20 8 -20 284
-21 279 0 284 1 279 20 -7 25 7 25 40 0 25 -20 40 -20 3086 -20 l3061 0 0
2299 0 2300 -29 43 c-29 43 -87 76 -121 69 -28 -5 -66 -51 -95 -114 -63 -140
-95 -201 -96 -187 -1 8 -3 42 -4 75 -3 54 -17 177 -26 230 -3 13 4 23 17 29
17 8 23 21 27 60 2 27 0 64 -5 83 -6 24 -5 40 7 63 13 25 14 37 5 68 -6 20
-13 68 -16 105 -4 72 -8 81 -120 265 -43 72 -47 92 -18 92 12 0 12 3 2 20 -7
11 -21 23 -30 26 -10 3 -18 10 -18 17 0 13 -86 143 -100 152 -6 4 -10 21 -10
39 0 23 -9 41 -30 61 -20 19 -28 35 -25 49 6 25 -2 39 -32 55 -14 7 -23 21
-23 35 0 12 -13 40 -30 62 -16 21 -30 42 -30 46 0 4 -25 42 -56 85 -31 43 -59
85 -63 93 -4 8 -17 32 -30 53 -18 29 -26 35 -33 25 -6 -10 -13 -7 -29 12 -11
14 -39 45 -62 68 -32 35 -38 46 -26 52 12 8 11 12 -3 27 -17 16 -18 16 -18 -2
0 -15 -9 -10 -41 24 -23 23 -42 50 -43 59 -2 9 -23 30 -47 47 -41 29 -123 90
-179 135 -14 11 -47 23 -75 26 l-50 6 34 -22 c18 -11 31 -23 29 -26 -9 -8 -58
15 -64 31 -5 13 -283 15 -2464 15 l-2459 0 -26 -37z m4993 -57 c37 -25 54 -46
36 -46 -15 0 -64 36 -64 47 0 7 -4 13 -10 13 -5 0 -10 -5 -10 -11 0 -8 -5 -8
-15 1 -44 37 6 33 63 -4z m62 18 c0 -8 -4 -12 -10 -9 -5 3 -10 10 -10 16 0 5
5 9 10 9 6 0 10 -7 10 -16z m69 -30 c3 -5 30 -29 59 -53 29 -24 51 -46 48 -49
-7 -6 -106 57 -106 68 0 4 -13 13 -30 20 -16 7 -30 16 -30 20 0 11 50 5 59 -6z
m-1415 -70 c3 -8 2 -12 -4 -9 -6 3 -10 10 -10 16 0 14 7 11 14 -7z m1423 -8
c30 -26 27 -45 -5 -25 -23 14 -46 49 -33 49 6 0 23 -11 38 -24z m-1252 -55
c-7 -6 -65 50 -65 63 0 5 16 -5 35 -24 19 -18 32 -36 30 -39z m-275 49 c0 -5
-2 -10 -4 -10 -3 0 -8 5 -11 10 -3 6 -1 10 4 10 6 0 11 -4 11 -10z m190 -10
c11 -11 25 -20 30 -20 6 0 9 -3 8 -8 -4 -12 77 -82 95 -82 10 0 14 -6 11 -13
-3 -8 19 -39 50 -71 30 -31 60 -70 66 -87 7 -16 16 -29 21 -29 5 0 8 -3 8 -7
-3 -18 1 -36 7 -31 15 15 102 -63 117 -105 4 -10 12 -15 17 -12 6 4 19 -4 29
-17 17 -20 17 -24 5 -31 -12 -7 -12 -12 -4 -22 7 -8 9 -19 5 -25 -3 -5 1 -10
10 -10 12 0 14 6 9 26 -5 19 -4 25 5 20 6 -4 11 -13 11 -20 0 -7 9 -21 20 -31
11 -10 20 -24 20 -31 0 -7 4 -14 9 -16 5 -1 20 -21 35 -42 14 -21 26 -32 26
-23 0 8 6 18 13 20 8 4 7 6 -3 6 -14 1 -70 70 -70 86 0 4 -16 25 -35 48 -19
22 -35 47 -35 54 0 7 -24 39 -52 71 -72 79 -108 124 -108 135 0 5 30 -24 68
-64 37 -40 76 -83 88 -94 12 -11 26 -30 33 -43 7 -12 16 -20 20 -17 5 2 15 -3
22 -12 12 -15 12 -16 -6 -9 -18 7 -18 5 3 -17 12 -13 22 -28 22 -33 0 -6 16
-26 36 -45 41 -39 114 -144 114 -163 0 -8 7 -19 15 -26 17 -14 20 -40 6 -40
-6 0 -13 5 -16 10 -3 6 -11 10 -16 10 -6 0 2 -16 17 -35 14 -19 33 -35 40 -35
8 0 14 -6 14 -13 0 -7 9 -20 20 -30 11 -9 20 -24 20 -33 0 -9 18 -35 40 -58
46 -48 72 -84 134 -186 26 -41 62 -95 80 -120 19 -25 49 -73 66 -107 17 -35
33 -63 36 -63 9 0 -7 43 -26 70 -9 14 -20 35 -23 48 -4 19 -3 21 9 11 8 -6 14
-17 14 -23 0 -17 87 -133 105 -140 14 -5 -40 89 -71 125 -8 8 -14 21 -14 27 0
7 -9 17 -20 24 -11 7 -25 29 -30 49 -6 20 -22 50 -37 67 -47 52 -53 61 -54 79
0 17 -1 17 -7 1 -11 -27 -35 -5 -34 30 0 22 -7 36 -28 52 -16 13 -27 27 -24
31 3 5 0 9 -5 9 -14 0 -48 39 -78 90 -17 27 -20 40 -11 40 7 0 24 -19 37 -42
21 -37 25 -40 31 -23 7 18 10 16 30 -17 12 -21 25 -38 29 -38 4 0 14 -12 22
-27 12 -25 80 -119 138 -195 12 -14 21 -31 21 -36 0 -5 7 -12 15 -16 8 -3 15
-16 15 -28 0 -26 31 -50 49 -39 9 6 -1 27 -36 75 -26 37 -54 78 -61 91 -7 13
-23 32 -35 42 -35 28 -69 82 -63 99 3 8 2 12 -3 9 -6 -3 -18 8 -27 25 -10 16
-23 30 -30 30 -6 0 -16 10 -22 23 -6 12 -23 40 -37 62 -14 22 -27 47 -31 55
-3 8 -12 29 -19 47 -13 28 -12 31 5 36 15 4 28 -6 49 -36 17 -23 34 -47 39
-52 4 -6 20 -36 35 -68 15 -31 31 -57 35 -57 5 0 21 -20 36 -44 15 -25 34 -47
42 -50 7 -3 11 -12 8 -20 -3 -8 4 -23 15 -32 14 -12 19 -25 15 -40 -4 -17 0
-26 18 -35 12 -7 26 -12 30 -11 4 1 17 -15 29 -36 13 -20 27 -40 32 -43 6 -4
7 -14 4 -23 -3 -8 -2 -18 3 -21 6 -4 10 -13 10 -21 0 -8 12 -27 26 -42 32 -34
77 -120 69 -132 -4 -6 -17 -7 -31 -4 -16 4 -24 2 -24 -6 0 -7 -8 -10 -20 -7
-11 3 -20 1 -20 -5 0 -6 -11 -8 -25 -6 -15 3 -25 1 -25 -7 0 -6 -48 -26 -107
-45 -96 -29 -151 -50 -218 -80 -63 -29 -181 -48 -169 -28 3 4 -7 15 -21 24
-14 9 -25 21 -25 26 0 5 -13 21 -30 35 -16 13 -30 34 -30 45 0 11 -9 33 -21
49 -13 19 -20 40 -17 58 3 23 1 27 -14 23 -28 -7 -21 12 12 31 37 22 40 40 4
27 -14 -6 -30 -10 -35 -10 -16 0 -10 20 9 26 45 15 82 36 77 43 -7 12 39 41
64 41 18 0 19 2 6 27 -13 24 -12 28 5 40 10 7 23 13 27 12 4 -1 21 3 36 9 16
7 35 12 43 12 8 0 14 7 14 15 0 16 -16 21 -22 6 -1 -5 -21 -11 -43 -14 -22 -3
-56 -10 -75 -16 -47 -15 -50 -14 -47 11 1 17 -4 24 -20 26 -12 2 -45 28 -73
59 -28 30 -54 53 -57 49 -6 -6 90 -122 119 -144 24 -17 23 -35 -1 -27 -10 3
-24 -1 -31 -10 -7 -8 -19 -15 -26 -15 -8 0 -14 -4 -14 -10 0 -5 5 -10 10 -10
6 0 10 -4 10 -10 0 -14 -27 -13 -32 1 -3 8 -10 9 -23 2 -11 -6 -40 -13 -64
-16 l-44 -6 29 20 29 20 -42 -6 c-36 -6 -43 -4 -43 9 0 12 -6 15 -24 10 -17
-4 -28 1 -44 20 -11 14 -28 26 -37 26 -10 0 -36 18 -57 40 -22 22 -44 40 -49
40 -16 0 -79 74 -69 80 8 5 -6 22 -81 95 -11 11 -22 30 -26 43 -5 21 -6 22
-19 5 -12 -17 -13 -17 -28 2 -21 27 -22 52 -1 35 11 -9 19 -9 28 -2 7 6 23 9
35 5 13 -3 22 -1 22 6 0 7 12 1 27 -13 29 -27 46 -28 19 -1 -9 9 -16 23 -16
31 0 19 -48 23 -60 5 -13 -19 -42 -20 -62 -1 -12 11 -27 20 -32 19 -6 0 -5 -3
2 -6 15 -6 16 -43 1 -43 -6 0 -13 9 -16 19 -6 23 -40 34 -47 16 -3 -8 0 -15 6
-17 6 -2 8 -9 5 -15 -9 -15 -67 16 -67 35 0 6 -7 12 -15 12 -8 0 -15 -4 -15
-10 0 -5 -4 -10 -9 -10 -6 0 -10 30 -10 67 0 59 -3 71 -24 89 -23 20 -66 129
-54 140 9 9 46 -15 58 -38 9 -16 8 -22 -2 -29 -17 -10 -7 -21 14 -14 17 7 29
42 17 50 -4 2 -7 16 -7 30 0 29 -42 72 -53 55 -5 -7 -11 -6 -19 3 -9 11 -8 17
4 27 8 7 15 20 15 30 0 10 -7 23 -15 30 -11 9 -12 16 -5 25 7 8 7 21 1 38 -7
17 -7 28 -1 32 6 4 10 0 10 -7 0 -8 18 -31 39 -52 22 -22 37 -45 34 -52 -3 -8
0 -14 6 -14 6 0 10 3 10 8 -4 27 4 21 25 -18 23 -41 23 -46 8 -57 -13 -11 -20
-8 -45 17 -17 17 -32 29 -34 27 -9 -10 44 -77 65 -83 12 -3 22 -12 22 -19 0
-6 16 -20 35 -31 19 -10 35 -22 35 -26 0 -5 6 -8 14 -8 8 0 21 -8 28 -17 7
-10 20 -19 28 -21 13 -2 12 0 -1 10 -15 12 -35 56 -31 70 1 3 -5 12 -13 18 -8
7 -15 16 -15 20 0 4 -13 22 -30 40 -16 18 -30 37 -30 43 0 6 7 1 16 -11 9 -14
22 -21 31 -18 8 3 11 1 8 -4 -4 -6 1 -7 12 -3 10 3 15 3 11 -2 -4 -4 1 -20 12
-35 11 -16 20 -31 20 -35 0 -9 123 -125 133 -125 11 0 0 14 -62 82 -25 27 -51
59 -59 71 -8 12 -26 34 -40 49 -33 36 -20 49 16 15 21 -20 31 -23 44 -16 14 7
16 7 12 -4 -3 -8 2 -20 11 -27 8 -7 15 -19 15 -27 0 -8 6 -13 13 -10 16 6 45
-18 77 -63 14 -19 49 -66 79 -103 30 -38 56 -76 57 -84 3 -20 54 -73 71 -73 7
0 10 -6 6 -17 -4 -11 -3 -14 6 -9 7 5 23 -1 38 -15 l26 -24 -25 43 c-14 23
-46 66 -71 95 -83 94 -157 185 -157 194 0 5 -13 22 -30 38 -46 44 -83 103 -76
120 3 9 2 14 -3 11 -13 -8 -151 143 -145 158 3 8 0 17 -7 22 -9 5 -10 2 -6
-10 4 -11 3 -15 -4 -11 -6 4 -8 14 -5 22 4 9 -13 34 -44 65 -28 28 -50 53 -50
55 0 8 63 -40 99 -75 19 -19 45 -41 58 -49 13 -8 23 -19 23 -25 0 -5 17 -27
37 -49 66 -71 89 -109 73 -119 -11 -7 -8 -10 11 -15 27 -7 103 -105 113 -147
3 -16 12 -28 19 -28 12 -1 77 -80 77 -94 0 -4 9 -16 20 -28 11 -12 20 -19 20
-16 0 11 -30 73 -46 96 -24 32 -10 27 26 -10 16 -18 35 -50 40 -70 11 -40 32
-58 60 -51 12 3 33 -11 61 -41 23 -25 47 -42 52 -39 9 6 -92 109 -104 106 -4
-1 -5 7 -2 17 6 24 -9 26 -27 5 -7 -8 -17 -12 -22 -9 -6 4 -5 10 3 15 11 6 8
14 -14 37 -15 15 -27 33 -27 40 0 7 -4 12 -10 12 -12 0 -13 10 0 30 7 12 13
11 34 -9 14 -13 25 -26 24 -30 -2 -20 4 -31 16 -31 12 0 13 4 3 23 -22 40 -70
107 -76 107 -4 0 -16 7 -27 16 -18 15 -18 15 3 5 19 -10 20 -8 15 12 -7 28
-42 80 -50 73 -3 -4 1 -17 8 -31 15 -29 7 -44 -14 -26 -24 20 -41 70 -28 83
11 11 25 7 87 -25 17 -9 18 -8 8 5 -7 8 -9 18 -5 22 4 4 2 6 -4 4 -15 -4 -144
113 -144 131 0 8 -11 27 -25 41 -24 25 -24 26 -5 38 16 10 18 9 13 -5 -4 -9
-2 -14 3 -11 5 3 25 -15 44 -40 19 -25 57 -66 83 -91 27 -25 55 -57 62 -71 8
-14 39 -52 69 -85 41 -44 55 -54 51 -37 -2 12 0 22 6 22 22 0 7 21 -19 26 -19
4 -44 26 -75 64 -26 32 -47 62 -47 66 0 5 4 2 10 -6 5 -8 12 -11 15 -8 4 4 -3
17 -15 30 -17 19 -20 20 -14 4 10 -25 -16 -17 -30 10 -6 10 -17 30 -26 44 -8
14 -13 28 -12 33 1 4 -1 6 -5 5 -5 -1 -30 21 -58 49 -46 48 -60 65 -89 117
-14 25 -56 66 -67 66 -5 0 -9 9 -9 20 0 11 -4 20 -10 20 -5 0 -10 6 -10 14 0
8 -6 17 -12 19 -10 4 -10 6 0 6 6 1 21 -8 32 -19z m-226 -34 c14 -19 26 -38
26 -42 0 -10 -29 16 -51 48 -29 40 -7 35 25 -6z m-38 -34 c-6 -5 -36 23 -36
34 0 4 9 -1 20 -11 11 -10 18 -20 16 -23z m1674 13 c17 -9 30 -21 30 -27 0 -7
-7 -5 -17 4 -10 8 -27 20 -38 26 -31 17 -8 14 25 -3z m-1514 -42 c59 -56 107
-119 102 -134 -3 -9 -149 150 -156 171 -6 18 3 11 54 -37z m72 25 c14 -14 16
-28 2 -28 -5 0 -14 9 -20 20 -12 22 -1 27 18 8z m-149 -56 c3 -1 -5 -1 -16 1
-27 4 -54 27 -47 39 3 5 18 -1 33 -14 14 -13 28 -24 30 -26z m1731 18 c0 -5
-4 -10 -10 -10 -5 0 -10 5 -10 10 0 6 5 10 10 10 6 0 10 -4 10 -10z m-1487
-34 c4 -10 6 -21 3 -23 -7 -7 -46 21 -46 33 0 19 34 11 43 -10z m-343 -39 c0
-6 -9 -2 -20 8 -11 10 -20 23 -20 28 0 6 9 2 20 -8 11 -10 20 -23 20 -28z
m286 18 c24 -37 10 -42 -16 -6 -12 17 -17 31 -11 31 6 0 18 -11 27 -25z m279
-13 c-8 -8 -25 10 -25 26 0 13 2 13 14 -4 8 -10 13 -21 11 -22z m-180 -19 c5
-17 2 -23 -10 -23 -19 0 -30 24 -21 47 8 19 21 9 31 -24z m465 6 c0 -6 14 -31
30 -56 39 -57 35 -74 -6 -25 -32 39 -52 92 -34 92 5 0 10 -5 10 -11z m-606
-36 c3 -10 19 -27 34 -37 16 -10 36 -35 45 -55 10 -20 28 -53 42 -73 31 -46
10 -54 -27 -9 -25 31 -29 37 -86 126 -60 94 -57 88 -34 76 11 -6 23 -19 26
-28z m-44 -3 c13 -24 12 -25 -7 -7 -11 9 -23 14 -26 10 -4 -3 -7 -1 -7 5 0 5
6 12 13 15 14 5 11 8 27 -23z m1805 -75 c55 -65 105 -138 99 -144 -8 -8 -83
82 -90 107 -3 12 -15 27 -25 32 -16 9 -79 91 -79 104 0 7 50 -45 95 -99z
m-2190 85 c3 -5 1 -10 -4 -10 -6 0 -11 5 -11 10 0 6 2 10 4 10 3 0 8 -4 11
-10z m321 -102 c3 -10 33 -45 66 -78 33 -34 58 -63 55 -67 -10 -10 -58 7 -51
18 5 8 -70 89 -82 89 -11 0 14 -45 34 -60 17 -14 20 -20 9 -20 -8 0 -31 21
-50 47 -28 37 -33 50 -24 64 8 14 5 24 -14 51 -45 58 -43 64 5 18 25 -24 49
-52 52 -62z m444 92 c0 -5 -2 -10 -4 -10 -3 0 -8 5 -11 10 -3 6 -1 10 4 10 6
0 11 -4 11 -10z m147 -12 c13 -12 23 -26 23 -32 0 -5 9 -20 21 -32 12 -12 19
-28 17 -34 -2 -6 -21 14 -43 44 -22 31 -43 56 -47 56 -10 0 -11 20 -1 20 4 0
17 -10 30 -22z m-867 -19 c0 -6 -4 -7 -10 -4 -5 3 -10 11 -10 16 0 6 5 7 10 4
6 -3 10 -11 10 -16z m828 -15 c29 -46 30 -80 1 -44 -11 14 -26 32 -33 40 -12
16 -11 40 2 40 4 -1 17 -17 30 -36z m-653 -4 c3 -5 1 -10 -4 -10 -6 0 -11 5
-11 10 0 6 2 10 4 10 3 0 8 -4 11 -10z m721 -80 c25 -38 28 -60 5 -46 -11 7
-41 64 -41 78 0 16 10 7 36 -32z m-868 -27 c0 -32 -11 -29 -29 10 -15 33 -14
33 7 23 13 -6 22 -20 22 -33z m922 15 c0 -18 -2 -20 -9 -8 -6 8 -7 18 -5 22 9
14 14 9 14 -14z m-360 -18 c36 -31 35 -56 0 -28 -16 13 -29 29 -29 36 -1 16 2
15 29 -8z m-729 -41 c7 -18 13 -48 13 -68 1 -33 4 -36 30 -36 26 -1 31 -6 43
-50 14 -47 74 -121 87 -108 8 8 28 -48 22 -63 -3 -7 7 -24 22 -39 25 -25 33
-59 19 -81 -4 -7 9 -16 33 -24 21 -7 41 -19 44 -26 3 -8 13 -14 22 -14 9 0 44
-17 78 -37 33 -21 64 -38 69 -39 4 -1 11 -2 15 -3 5 0 18 -10 30 -21 18 -17
22 -18 22 -5 0 9 5 13 10 10 6 -4 8 -10 5 -15 -5 -8 109 -90 124 -90 4 0 28
-19 53 -42 25 -24 64 -58 87 -76 22 -18 41 -41 41 -51 0 -9 6 -23 12 -29 10
-10 10 -15 -2 -22 -8 -5 -23 -10 -32 -10 -11 0 -18 -8 -18 -21 0 -11 5 -17 10
-14 6 3 17 0 25 -9 21 -21 19 -28 -5 -14 -16 11 -23 10 -37 -6 -13 -13 -15
-20 -6 -23 19 -7 -3 -43 -25 -42 -16 1 -16 2 1 6 40 10 1 43 -52 43 -23 0 -29
4 -25 15 4 8 2 15 -2 15 -5 0 -19 3 -31 6 -14 4 -23 2 -23 -5 0 -6 9 -11 20
-11 15 0 20 -7 20 -25 0 -31 -14 -32 -43 -2 -34 36 -127 107 -140 107 -7 0
-32 11 -57 25 -25 13 -57 29 -72 36 -37 15 -38 49 -3 49 14 0 25 -4 25 -9 0
-5 11 -8 24 -8 14 0 38 -10 55 -22 17 -12 31 -19 31 -16 0 10 -27 35 -38 35
-6 0 -12 7 -16 15 -3 8 -17 15 -31 15 -14 0 -25 5 -25 11 0 5 -4 7 -10 4 -5
-3 -10 -1 -10 4 0 6 -4 10 -9 8 -5 -1 -11 3 -13 8 -1 6 11 12 27 13 17 2 36 8
42 14 7 6 19 8 26 5 8 -3 20 -1 28 4 10 6 10 9 2 9 -7 0 -13 5 -13 11 0 5 5 7
10 4 6 -3 10 -1 10 5 0 6 -10 10 -22 8 -14 -2 -22 2 -21 10 2 6 -4 12 -12 12
-8 0 -15 5 -15 10 0 14 12 12 38 -6 22 -15 42 -12 42 6 0 6 -15 16 -32 24 -18
7 -49 28 -68 45 -43 39 -72 53 -82 37 -5 -7 -8 -5 -8 7 0 11 -8 17 -25 17 -14
0 -25 4 -25 8 0 4 -16 14 -36 21 -41 15 -154 117 -154 139 0 13 3 13 12 4 7
-7 16 -12 20 -12 5 0 -10 18 -34 40 -24 22 -46 40 -50 40 -5 0 -8 11 -8 25 0
14 3 24 8 24 26 -4 42 3 42 21 0 11 -4 20 -8 20 -5 0 -19 20 -31 45 -12 24
-26 47 -31 50 -5 3 -12 20 -16 37 -3 18 -11 40 -17 49 -11 17 -4 49 11 49 5 0
15 -14 23 -31z m1333 -11 c12 -9 17 -17 12 -18 -16 0 -46 32 -45 49 0 13 2 13
6 1 4 -8 16 -22 27 -32z m-1594 -59 c0 -5 -9 -9 -21 -9 -12 0 -19 5 -17 12 3
7 -6 21 -19 31 -13 10 -23 23 -23 29 0 5 18 -5 40 -22 22 -17 40 -36 40 -41z
m920 40 c0 -6 -4 -7 -10 -4 -5 3 -10 11 -10 16 0 6 5 7 10 4 6 -3 10 -11 10
-16z m76 -32 c9 -17 23 -37 30 -45 8 -7 14 -21 14 -30 -1 -13 -7 -9 -25 13
-14 17 -25 35 -25 41 0 6 -9 19 -20 29 -11 10 -17 22 -14 26 8 14 22 2 40 -34z
m-556 18 c7 -8 8 -15 2 -15 -5 0 -15 7 -22 15 -7 8 -8 15 -2 15 5 0 15 -7 22
-15z m1114 -21 c7 -19 2 -18 -19 6 -16 17 -16 20 -3 15 9 -4 19 -13 22 -21z
m-34 -23 c16 -30 12 -36 -10 -16 -21 19 -26 35 -10 35 5 0 14 -9 20 -19z m-70
-11 c0 -5 -2 -10 -4 -10 -3 0 -8 5 -11 10 -3 6 -1 10 4 10 6 0 11 -4 11 -10z
m170 -37 c0 -13 -3 -13 -15 -3 -8 7 -15 16 -15 21 0 5 7 6 15 3 8 -4 15 -13
15 -21z m-1653 -5 c31 -29 31 -60 1 -56 -31 4 -57 34 -51 58 7 26 21 25 50 -2z
m713 8 c0 -3 -4 -8 -10 -11 -5 -3 -10 -1 -10 4 0 6 5 11 10 11 6 0 10 -2 10
-4z m837 -22 c-3 -3 -12 -4 -19 -1 -8 3 -5 6 6 6 11 1 17 -2 13 -5z m-412 -24
c4 -6 -1 -7 -11 -3 -14 5 -16 2 -10 -23 l6 -29 -20 24 c-11 13 -20 27 -20 32
0 12 47 11 55 -1z m480 -40 c17 -33 10 -40 -11 -12 -13 17 -19 42 -9 42 2 0
11 -13 20 -30z m-1498 -10 c3 -16 10 -30 15 -30 5 0 28 -20 51 -45 24 -25 47
-45 53 -45 14 0 46 -58 39 -70 -8 -14 -57 -1 -72 18 -16 20 -17 3 -2 -35 6
-15 13 -41 16 -58 6 -38 9 -41 27 -26 9 8 21 8 40 1 21 -8 26 -16 25 -42 0
-18 -3 -27 -6 -20 -2 6 -15 12 -28 12 -13 0 -25 5 -27 11 -2 5 -23 13 -46 16
-44 6 -68 23 -33 23 30 0 26 16 -6 29 -39 14 -66 38 -59 50 10 16 -20 38 -64
45 -22 3 -38 11 -35 16 3 5 12 7 20 3 8 -3 15 -1 15 5 0 17 -27 33 -44 26 -13
-5 -16 0 -16 24 0 17 -6 32 -15 36 -19 7 -19 45 0 52 8 4 27 -2 42 -12 81 -58
102 -61 62 -10 -25 32 -19 56 16 56 20 0 27 -6 32 -30z m1558 -30 c19 -37 19
-51 -1 -25 -26 34 -36 55 -25 55 6 0 17 -13 26 -30z m-15 -36 c0 -8 -4 -14
-10 -14 -5 0 -10 9 -10 21 0 11 5 17 10 14 6 -3 10 -13 10 -21z m-1740 -19 c7
-9 10 -18 7 -21 -10 -11 -37 5 -37 21 0 19 14 19 30 0z m1940 -6 c0 -6 -4 -7
-10 -4 -5 3 -10 11 -10 16 0 6 5 7 10 4 6 -3 10 -11 10 -16z m-203 -82 c33
-54 36 -71 7 -42 -14 14 -54 82 -54 92 0 15 21 -7 47 -50z m-1314 -21 c6 -16
-2 -28 -14 -20 -12 7 -11 34 0 34 5 0 11 -6 14 -14z m397 -37 c0 -14 -17 -10
-23 5 -4 10 -1 13 9 9 7 -3 14 -9 14 -14z m1330 -20 c0 -6 -4 -7 -10 -4 -5 3
-10 11 -10 16 0 6 5 7 10 4 6 -3 10 -11 10 -16z m-13 -35 c-6 -7 -37 25 -37
39 0 6 9 1 21 -12 12 -12 19 -24 16 -27z m-2066 -43 c19 -17 19 -20 3 -35 -27
-28 -58 -17 -62 22 -3 27 0 32 18 32 11 0 30 -8 41 -19z m2084 -51 c3 -5 1
-10 -4 -10 -6 0 -11 5 -11 10 0 6 2 10 4 10 3 0 8 -4 11 -10z m-1615 -10 c0
-5 -4 -10 -10 -10 -5 0 -10 5 -10 10 0 6 5 10 10 10 6 0 10 -4 10 -10z m1677
-32 c6 -5 9 -16 6 -24 -5 -12 -10 -11 -29 7 -13 12 -24 26 -24 30 0 9 28 1 47
-13z m-2114 -10 c29 -15 13 -20 -37 -13 -29 5 -46 12 -46 21 0 15 48 10 83 -8z
m127 -1 c0 -8 -12 -14 -28 -15 -19 0 -29 5 -29 14 0 9 11 14 29 14 17 0 28 -5
28 -13z m445 -17 c4 -6 -5 -10 -19 -10 -14 0 -26 5 -26 10 0 6 9 10 19 10 11
0 23 -4 26 -10z m95 0 c0 -5 -4 -10 -10 -10 -5 0 -10 5 -10 10 0 6 5 10 10 10
6 0 10 -4 10 -10z m2355 0 c3 -5 2 -10 -4 -10 -5 0 -13 5 -16 10 -3 6 -2 10 4
10 5 0 13 -4 16 -10z m-863 -47 c10 -9 18 -22 18 -30 0 -10 6 -12 20 -8 23 7
74 -40 63 -58 -14 -23 -11 -60 6 -86 47 -70 81 -135 77 -147 -3 -8 -16 -14
-29 -14 -13 0 -28 -5 -34 -11 -16 -16 -43 17 -43 54 0 18 -7 44 -14 60 -8 15
-11 27 -5 27 5 0 9 7 9 15 0 8 -4 15 -10 15 -5 0 -10 -5 -10 -12 0 -6 -9 -3
-20 7 -21 19 -27 45 -10 45 5 0 13 -7 18 -16 8 -15 10 -15 15 0 3 8 2 18 -3
21 -5 3 -7 12 -4 20 7 16 -23 65 -40 65 -17 0 -68 55 -59 63 11 12 36 8 55
-10z m-62 -43 c6 -11 7 -20 2 -20 -6 0 -12 9 -15 20 -3 11 -3 20 -1 20 2 0 8
-9 14 -20z m-633 -73 c2 7 11 9 19 6 17 -6 19 -23 3 -23 -7 0 -22 -11 -34 -24
-22 -23 -65 -44 -65 -30 0 3 15 19 33 35 17 16 26 29 20 29 -7 0 -13 5 -13 11
0 8 6 7 17 -2 12 -10 17 -11 20 -2z m877 -50 c16 -21 18 -32 10 -45 -8 -13 -7
-23 4 -39 8 -13 11 -23 8 -23 -10 0 -54 51 -72 83 -31 57 10 77 50 24z m-1665
-42 c16 -8 32 -11 36 -7 5 4 5 1 1 -5 -6 -12 5 -18 27 -14 4 0 7 -3 7 -9 0 -5
-3 -10 -6 -10 -15 0 -104 44 -104 51 0 12 7 11 39 -6z m636 5 c3 -6 -1 -7 -9
-4 -18 7 -21 14 -7 14 6 0 13 -4 16 -10z m-125 -25 c0 -8 -9 -15 -20 -15 -11
0 -20 7 -20 15 0 8 9 15 20 15 11 0 20 -7 20 -15z m-320 -67 c0 -13 -28 -9
-60 7 -29 15 -36 26 -24 37 7 8 84 -33 84 -44z m-320 22 c0 -13 -20 -13 -40 0
-12 8 -9 10 13 10 15 0 27 -4 27 -10z m148 -36 c18 -8 40 -14 48 -14 8 0 12
-4 9 -10 -3 -5 0 -7 9 -4 15 6 65 -21 79 -43 10 -17 5 -28 -12 -28 -8 0 -16
-6 -19 -14 -3 -8 0 -11 7 -7 7 5 11 -1 11 -13 0 -12 -6 -21 -12 -21 -9 0 -8
-3 2 -10 11 -7 12 -12 3 -21 -8 -8 -20 -7 -47 6 -54 26 -55 11 -2 -16 26 -12
46 -27 45 -33 -1 -6 -1 -24 0 -41 1 -21 4 -26 10 -16 5 7 6 22 4 32 -4 13 0
19 11 19 9 0 16 -5 16 -11 0 -6 8 -8 19 -4 11 3 22 1 26 -5 3 -5 13 -10 21
-10 11 0 13 6 9 21 -5 16 -3 20 6 17 14 -5 14 -12 4 -78 -3 -19 -2 -30 1 -23
4 9 11 7 26 -7 11 -10 17 -23 14 -28 -3 -6 -1 -22 5 -36 12 -26 5 -76 -11 -76
-5 0 -21 -11 -36 -25 -15 -14 -38 -28 -51 -31 -13 -4 -23 -11 -23 -16 0 -6 -7
-8 -15 -4 -9 3 -15 0 -15 -9 0 -8 -7 -15 -15 -15 -8 0 -23 -8 -33 -17 -10 -10
-37 -31 -60 -46 -24 -15 -51 -37 -60 -47 -9 -11 -21 -20 -27 -20 -10 0 -76
-55 -160 -133 -16 -15 -40 -30 -52 -33 -13 -4 -23 -10 -23 -15 0 -5 -7 -9 -15
-9 -8 0 -15 -4 -15 -10 0 -5 -7 -10 -15 -10 -8 0 -15 -5 -15 -11 0 -6 -9 -9
-20 -6 -13 3 -20 0 -20 -9 0 -7 -12 -17 -27 -20 -16 -4 -36 -13 -46 -19 -28
-20 -72 -4 -72 25 0 25 -41 78 -52 67 -3 -4 -1 -13 6 -20 13 -17 5 -47 -14
-47 -17 0 -37 25 -27 35 4 5 1 5 -6 1 -7 -4 -10 -12 -7 -17 4 -5 3 -9 -2 -10
-4 0 -18 -2 -31 -3 -30 -4 -62 36 -54 67 5 21 5 21 -12 5 -23 -24 -49 -24 -42
0 4 11 -4 26 -24 42 -17 14 -30 31 -30 39 0 8 -7 11 -19 8 -12 -3 -27 3 -37
14 -10 11 -24 17 -31 15 -7 -3 -17 3 -23 14 -6 11 -16 17 -23 15 -6 -3 -18 4
-25 15 -7 11 -9 20 -5 19 26 -4 21 6 -21 45 -39 38 -46 50 -44 78 1 25 -5 40
-26 61 -17 17 -25 34 -22 43 3 9 6 19 6 24 0 5 8 10 18 13 12 3 10 6 -11 12
-21 5 -27 13 -25 29 2 15 9 20 22 18 17 -3 18 -1 8 11 -7 8 -10 22 -6 31 5 12
-1 18 -25 22 -60 12 -30 54 39 54 25 0 54 7 64 15 17 13 18 15 3 15 -9 0 -17
7 -17 15 0 17 16 20 25 6 8 -14 65 -41 86 -41 13 0 17 5 12 18 -4 9 5 4 20
-13 l27 -30 19 25 c19 23 26 25 96 23 42 -1 82 -7 90 -13 8 -7 28 -9 49 -4 32
5 36 4 36 -15 0 -22 14 -28 25 -11 3 6 24 10 45 10 33 0 38 -3 34 -17 -5 -17
-4 -16 9 0 13 16 18 16 36 5 16 -10 23 -10 29 -2 8 14 50 20 72 11 16 -6 174
-18 168 -12 -1 1 -20 12 -41 24 -42 23 -78 28 -74 9 1 -7 -5 -13 -13 -13 -8 0
-14 6 -13 12 2 7 -8 15 -21 19 -31 7 -41 43 -18 60 16 13 16 13 0 14 -36 0
-19 29 20 32 29 2 37 7 37 23 1 11 6 19 13 18 7 -2 12 2 12 7 0 6 -7 10 -16 8
-10 -2 -19 2 -21 7 -5 16 122 35 160 24 17 -5 40 -9 50 -9 23 0 12 20 -11 20
-9 0 -24 11 -34 23 l-16 23 51 -9 c29 -5 67 -15 85 -23z m562 -3 c0 -5 -7 -12
-16 -15 -14 -5 -15 -4 -4 9 14 17 20 19 20 6z m50 -17 c0 -8 -5 -12 -10 -9 -6
4 -8 11 -5 16 9 14 15 11 15 -7z m1256 -26 c16 -25 28 -60 30 -89 7 -91 -34
-64 -60 39 -9 35 -16 70 -16 78 0 26 20 14 46 -28z m-96 11 c0 -6 -4 -7 -10
-4 -5 3 -10 11 -10 16 0 6 5 7 10 4 6 -3 10 -11 10 -16z m-1280 -24 c-13 -14
-28 -25 -34 -25 -6 0 3 11 19 25 39 31 45 32 15 0z m90 10 c0 -1 -7 -8 -15
-15 -13 -10 -15 -9 -15 8 0 15 5 20 15 16 8 -4 15 -7 15 -9z m1760 -10 c14
-19 14 -19 -2 -6 -10 7 -18 18 -18 24 0 6 1 8 3 6 1 -2 9 -13 17 -24z m-1690
-6 c0 -6 -4 -7 -10 -4 -5 3 -10 11 -10 16 0 6 5 7 10 4 6 -3 10 -11 10 -16z
m-27 -38 c-2 -11 2 -21 7 -21 6 0 10 -7 10 -16 0 -8 4 -13 9 -10 5 3 14 -1 21
-10 7 -8 19 -13 26 -10 8 3 13 1 11 -3 -2 -8 60 -71 69 -71 2 0 1 6 -2 14 -4
12 0 13 22 7 28 -7 51 -46 34 -56 -6 -4 -10 -1 -10 4 0 6 -5 11 -11 11 -5 0
-7 -5 -4 -10 3 -6 0 -12 -7 -14 -113 -32 -139 -38 -155 -31 -10 5 -25 7 -34 6
-19 -2 -71 24 -63 31 3 4 -3 5 -13 5 -9 -1 -18 5 -18 13 0 16 -47 16 -53 -1
-5 -11 -42 13 -42 27 0 7 6 14 14 17 14 6 31 55 22 64 -6 6 -28 -15 -44 -42
-10 -18 -11 -18 -12 -2 0 10 -7 20 -15 23 -24 10 -17 37 16 67 17 15 29 21 26
13 -3 -8 4 -21 18 -30 21 -14 24 -14 29 0 4 10 13 13 25 9 14 -4 21 0 26 15 6
20 8 21 26 4 17 -15 19 -15 19 -1 0 15 24 27 45 22 6 -1 9 -12 8 -24z m-430 2
c9 -9 -12 -33 -30 -33 -11 0 -11 4 -3 20 11 21 22 25 33 13z m487 -3 c0 -5 -2
-10 -4 -10 -3 0 -8 5 -11 10 -3 6 -1 10 4 10 6 0 11 -4 11 -10z m37 -25 c0
-20 -4 -19 -17 5 -8 15 -8 18 3 14 8 -3 14 -11 14 -19z m1101 2 c4 -20 -25
-34 -39 -20 -14 14 1 45 20 41 9 -2 17 -11 19 -21z m-98 -32 c0 -8 -4 -15 -10
-15 -5 0 -10 7 -10 15 0 8 5 15 10 15 6 0 10 -7 10 -15z m-104 -63 c18 -15 36
-39 39 -54 4 -15 10 -30 15 -33 12 -8 57 -107 65 -145 10 -44 -16 -36 -27 9
-5 17 -13 29 -18 26 -16 -10 -12 -31 10 -50 11 -10 20 -24 20 -31 0 -8 9 -28
20 -46 11 -18 20 -50 20 -72 0 -21 7 -64 15 -96 23 -88 15 -212 -18 -276 -50
-99 -243 -248 -464 -358 -62 -31 -116 -56 -122 -56 -5 0 -25 -9 -43 -19 -95
-56 -318 -128 -424 -137 -99 -9 -161 8 -237 65 -75 56 -229 209 -277 274 -19
26 -47 62 -61 79 -14 17 -34 55 -43 84 -16 51 -16 54 4 97 11 24 40 66 63 94
49 58 224 201 314 256 9 6 11 3 7 -7 -3 -8 -13 -18 -22 -21 -10 -2 -37 -23
-62 -44 -25 -22 -70 -61 -102 -88 -31 -26 -57 -53 -57 -59 -1 -6 -10 -15 -22
-20 l-20 -9 23 -30 c12 -16 21 -38 20 -48 -3 -13 0 -17 9 -12 9 6 10 1 4 -21
-13 -52 -12 -59 6 -72 11 -7 19 -23 19 -36 0 -12 5 -27 12 -34 8 -8 9 -12 1
-12 -6 0 -14 6 -17 13 -3 6 -5 3 -3 -8 4 -30 49 -27 54 4 2 12 10 32 18 44 8
12 15 33 15 47 1 28 26 67 37 56 10 -9 4 -84 -9 -121 -9 -25 -6 -37 15 -78 14
-26 29 -43 32 -37 4 6 2 16 -3 23 -8 9 -4 12 13 12 13 0 21 -4 18 -10 -3 -5
-1 -5 6 1 9 8 25 8 57 1 34 -8 54 -7 80 2 24 9 39 9 47 2 17 -14 39 2 31 22
-7 19 -4 20 20 11 13 -5 14 -9 5 -20 -9 -11 -7 -14 9 -14 12 0 22 9 26 23 4
15 8 18 14 10 5 -9 20 -2 52 23 25 20 57 38 72 41 36 7 35 18 -3 33 -24 10
-29 18 -27 39 3 24 0 26 -31 26 -19 0 -36 6 -38 13 -3 6 2 12 10 12 8 0 17 13
20 29 3 16 12 35 20 42 7 8 16 22 20 33 5 14 4 17 -8 12 -23 -8 -18 24 7 45
11 11 27 19 35 19 7 0 13 5 13 11 0 6 7 8 16 5 10 -4 18 1 21 13 4 16 11 19
35 14 22 -4 33 -2 40 10 5 10 18 17 28 17 25 0 25 5 -1 31 -30 30 -10 47 54
47 28 1 53 6 55 12 2 6 10 17 18 24 8 8 14 24 14 37 0 16 3 19 13 11 15 -13
43 1 33 16 -3 6 -2 12 3 14 11 4 21 98 11 98 -4 0 -11 15 -17 33 -6 21 -15 32
-26 31 -13 -2 -15 1 -7 11 12 15 -11 28 -34 19 -7 -3 -16 2 -19 10 -4 9 -13
13 -22 10 -19 -8 -20 -24 -1 -24 8 0 25 -14 38 -31 13 -17 33 -41 44 -54 12
-13 19 -26 16 -29 -3 -3 2 -6 11 -6 15 0 14 -3 -3 -20 -17 -17 -37 -21 -138
-25 -64 -2 -127 -6 -139 -9 -25 -5 -33 17 -11 30 7 4 8 3 4 -4 -4 -7 -1 -12 8
-12 26 0 18 14 -19 34 -19 11 -35 23 -35 27 0 4 -15 9 -32 11 -31 3 -27 6 52
46 47 23 91 42 98 42 7 0 12 5 12 11 0 6 9 8 20 4 11 -3 20 -2 20 3 0 5 15 15
33 22 17 7 41 16 52 21 11 4 52 18 90 29 39 11 84 25 101 30 17 6 59 10 95 10
60 0 65 -2 77 -27 6 -15 12 -33 12 -39 0 -7 9 -16 20 -19 11 -3 20 -10 20 -14
0 -12 71 -91 81 -91 10 0 -12 63 -37 107 -11 18 -25 33 -33 33 -19 0 -51 30
-51 48 0 22 66 6 106 -26z m288 -75 c10 -17 20 -48 21 -67 1 -19 10 -60 19
-90 9 -30 16 -67 16 -84 0 -35 20 -107 33 -121 6 -6 8 6 4 35 -3 25 -2 52 3
60 7 10 10 11 10 3 0 -7 6 -13 13 -13 14 0 127 -243 127 -272 0 -8 9 -27 20
-41 11 -14 20 -31 20 -39 0 -7 9 -28 20 -46 12 -19 30 -80 41 -135 11 -56 30
-120 41 -142 12 -22 25 -60 29 -85 15 -97 40 -226 49 -255 13 -42 66 -262 89
-370 56 -257 73 -511 47 -697 -22 -155 -84 -366 -152 -511 -29 -64 -54 -122
-54 -127 0 -6 -9 -39 -19 -73 -27 -86 -48 -209 -61 -362 -15 -178 -36 -294
-72 -400 -52 -155 -91 -223 -210 -363 -133 -156 -234 -241 -428 -356 -149 -89
-185 -106 -234 -110 -24 -2 -49 -7 -56 -11 -8 -5 -16 -1 -22 9 -5 9 -17 16
-26 16 -9 0 -31 15 -47 33 -17 18 -47 45 -68 61 -21 16 -35 31 -32 34 2 3 0
11 -7 19 -6 7 -8 16 -4 20 3 3 6 1 6 -5 0 -7 5 -12 10 -12 34 0 -40 98 -98
129 -12 7 -20 16 -16 22 4 6 11 6 20 -2 23 -19 42 -3 46 40 2 23 1 41 -2 41
-13 -1 -28 -17 -34 -37 -7 -21 -26 -32 -26 -15 0 4 -3 17 -6 29 -5 17 -1 22
18 25 18 2 24 10 26 36 3 27 0 32 -19 32 -12 0 -31 -8 -41 -17 -17 -15 -20
-15 -46 10 -16 15 -38 27 -50 27 -28 0 -29 17 -1 25 18 6 20 13 16 42 -4 24
-2 36 9 40 16 6 19 49 4 58 -6 4 -9 14 -8 22 2 9 -3 18 -9 20 -7 3 -13 -2 -13
-11 0 -23 -16 -20 -34 6 -18 25 -13 38 12 31 26 -6 43 33 46 107 3 56 6 66 32
88 25 22 41 51 60 113 3 9 -1 23 -10 31 -8 9 -12 19 -8 23 4 3 -1 11 -11 16
-9 6 -17 19 -17 29 0 10 -5 30 -11 44 -10 22 -8 28 17 50 33 29 64 34 64 10 0
-10 12 -4 38 20 20 20 43 34 49 31 13 -4 34 28 47 73 l8 23 -37 -21 c-20 -11
-40 -18 -46 -15 -5 4 -9 -3 -9 -14 0 -21 -56 -56 -65 -40 -4 5 -20 2 -37 -7
-30 -16 -178 -29 -177 -16 7 45 -16 56 -24 12 -7 -33 -62 -66 -128 -76 -30 -5
-40 -2 -64 22 -29 29 -64 97 -65 125 0 22 21 38 56 44 16 2 51 10 77 16 38 10
53 10 68 1 24 -15 30 -15 28 1 -4 29 4 36 52 53 58 21 80 41 59 54 -7 4 -18 6
-25 4 -6 -3 -22 5 -35 16 -13 11 -26 17 -29 14 -3 -4 0 -9 7 -11 10 -4 10 -8
0 -21 -7 -9 -8 -13 -3 -10 6 3 15 0 22 -7 10 -10 9 -14 -2 -19 -25 -9 -47 5
-43 28 5 26 -17 50 -38 42 -10 -4 -18 1 -21 12 -4 16 -10 18 -41 12 -20 -4
-44 -11 -53 -14 -15 -7 -15 -2 -3 46 19 71 18 74 -16 106 -16 16 -33 44 -36
63 -4 19 -11 43 -17 53 -9 18 -10 19 -22 2 -10 -13 -15 -14 -21 -5 -4 8 1 18
14 27 18 12 22 24 22 68 0 30 3 54 8 54 4 0 16 13 27 29 10 16 22 28 26 25 16
-9 69 32 69 54 0 12 5 22 10 22 15 0 12 16 -5 34 -8 8 -15 22 -15 31 0 9 -9
19 -20 22 -10 3 -22 14 -25 24 -4 10 -11 19 -17 19 -6 0 -8 9 -5 19 3 11 -1
22 -7 24 -7 3 -18 24 -26 48 -7 24 -16 49 -19 54 -11 20 -8 65 5 76 8 6 14 8
14 5 0 -4 5 -4 12 0 8 5 6 10 -8 15 -30 12 -52 10 -50 -3 0 -7 -3 -15 -9 -18
-5 -3 -11 10 -12 28 -2 17 -4 45 -6 61 -1 15 -8 35 -15 44 -10 12 -10 17 -1
23 9 5 6 10 -8 15 -34 12 -88 139 -59 139 6 0 5 4 -3 9 -7 5 -11 14 -7 19 4 6
-5 19 -19 28 -14 9 -25 21 -25 26 0 5 -14 23 -31 40 -24 25 -29 36 -24 58 5
24 2 30 -22 42 -22 11 -27 20 -25 40 2 17 -6 36 -23 54 -14 15 -38 50 -54 77
-23 40 -27 56 -20 75 10 27 4 42 -17 42 -8 0 -14 8 -14 17 0 13 3 14 12 5 16
-16 29 -15 22 2 -3 8 -14 16 -25 19 -13 3 -19 14 -19 31 0 14 1 28 3 29 1 2
-4 11 -12 20 -7 9 -11 23 -8 31 3 8 -3 22 -13 31 -11 10 -17 21 -15 26 3 4 -4
11 -16 14 -17 6 -19 9 -8 16 10 6 10 9 2 9 -7 0 -10 7 -7 15 4 8 2 15 -4 15
-6 0 -13 -6 -15 -12 -5 -12 -11 16 -8 35 0 4 -4 7 -10 7 -6 0 -9 10 -7 23 2
18 10 23 48 25 25 2 63 -2 85 -8 76 -23 202 -90 291 -155 150 -111 230 -164
257 -171 54 -13 354 65 532 139 318 131 674 377 748 516 32 61 42 175 22 251
-8 30 -17 96 -20 145 -4 50 -10 110 -16 135 -11 58 2 159 25 175 9 7 16 17 16
24 0 21 15 11 34 -22z m-324 13 c0 -5 -5 -10 -11 -10 -5 0 -7 5 -4 10 3 6 8
10 11 10 2 0 4 -4 4 -10z m-1240 -16 c0 -8 -4 -12 -10 -9 -5 3 -10 10 -10 16
0 5 5 9 10 9 6 0 10 -7 10 -16z m1404 -20 c11 -27 7 -37 -9 -24 -16 14 -20 40
-6 40 5 0 12 -7 15 -16z m-559 -54 c3 -5 1 -10 -4 -10 -6 0 -11 5 -11 10 0 6
2 10 4 10 3 0 8 -4 11 -10z m-415 -80 c0 -5 -2 -10 -4 -10 -3 0 -8 5 -11 10
-3 6 -1 10 4 10 6 0 11 -4 11 -10z m-25 -10 c3 -5 22 -10 41 -10 34 0 64 -18
64 -38 0 -5 -15 -15 -32 -22 -18 -6 -41 -16 -50 -21 -10 -5 -24 -9 -32 -9 -8
0 -16 -6 -19 -12 -2 -7 -6 -1 -9 14 -3 15 -1 25 3 22 5 -3 9 0 9 5 0 6 -5 11
-11 11 -8 0 -8 4 -1 13 8 10 6 13 -8 14 -11 1 -22 -2 -25 -8 -4 -5 -10 -9 -15
-9 -6 0 -2 9 7 20 10 11 25 20 35 20 10 0 18 5 18 10 0 6 4 10 9 10 6 0 13 -4
16 -10z m126 -23 c-1 -12 -15 -9 -19 4 -3 6 1 10 8 8 6 -3 11 -8 11 -12z m909
-52 c0 -8 -2 -15 -4 -15 -2 0 -6 7 -10 15 -3 8 -1 15 4 15 6 0 10 -7 10 -15z
m-1080 -39 c0 -11 -19 -15 -25 -6 -3 5 1 10 9 10 9 0 16 -2 16 -4z m253 -18
c9 -5 17 -13 17 -19 0 -12 -46 -59 -58 -59 -12 0 -34 49 -26 61 3 6 0 17 -7
26 -12 14 -10 15 21 8 19 -4 43 -11 53 -17z m-293 3 c0 -12 -30 -22 -43 -14
-7 4 -3 9 9 14 26 10 34 10 34 0z m-435 -31 c-5 -29 -4 -30 16 -20 18 10 40 7
28 -4 -2 -1 -31 -25 -65 -52 -33 -27 -101 -83 -151 -124 -136 -113 -154 -127
-205 -155 -53 -29 -63 -18 -20 21 l27 25 -28 -17 c-15 -9 -30 -14 -34 -10 -3
3 -1 6 6 6 18 0 10 63 -9 72 -11 5 -9 7 8 7 12 1 22 -4 22 -11 0 -16 13 -1 16
18 2 10 -3 14 -12 10 -19 -7 -18 4 4 21 9 8 11 12 5 8 -7 -3 -13 -4 -13 -1 0
3 14 13 30 21 17 9 28 20 25 26 -4 5 -3 9 2 8 21 -4 44 2 39 9 -3 5 1 9 9 10
8 1 22 3 30 4 9 1 14 7 11 15 -3 8 -2 12 3 9 5 -3 15 1 22 10 7 8 26 22 43 30
17 8 51 26 76 41 113 65 123 67 115 23z m625 -26 c0 -14 -21 -19 -33 -7 -9 9
13 34 24 27 5 -3 9 -12 9 -20z m-423 -244 c-20 -41 -33 -59 -35 -48 -3 16 57
123 64 115 1 -1 -11 -32 -29 -67z m-1283 45 c-4 -8 -11 -15 -16 -15 -6 0 -5 6
2 15 7 8 14 15 16 15 2 0 1 -7 -2 -15z m846 -83 c0 -11 -7 -18 -19 -18 -15 0
-17 3 -7 18 6 10 14 18 18 18 5 0 8 -8 8 -18z m800 14 c0 -3 -4 -8 -10 -11 -5
-3 -10 -1 -10 4 0 6 5 11 10 11 6 0 10 -2 10 -4z m-1430 -66 c6 -11 8 -20 5
-20 -3 0 -15 9 -27 20 -18 17 -19 20 -5 20 9 0 21 -9 27 -20z m643 -27 c3 -27
8 -60 10 -75 4 -28 -16 -69 -28 -57 -5 6 -8 74 -6 152 2 44 18 31 24 -20z
m823 -4 c7 -12 -15 -31 -28 -23 -4 3 -8 12 -8 20 0 17 26 19 36 3z m-2001 -73
c17 -1 33 -5 37 -11 5 -6 12 -5 20 3 17 17 63 15 78 -3 8 -9 17 -12 24 -7 6 5
38 9 71 9 33 1 52 -1 43 -4 -22 -6 -24 -23 -2 -23 9 0 18 9 21 20 7 26 28 25
47 -2 20 -29 20 -38 0 -38 -9 0 -39 -16 -65 -35 -27 -19 -52 -35 -56 -35 -3 0
-14 -6 -22 -13 -30 -26 -310 -131 -378 -142 l-43 -7 -2 39 c-1 21 -2 53 -2 71
-1 18 -7 36 -13 40 -15 9 -9 78 9 99 8 10 7 17 -8 28 -18 14 -18 14 3 15 12 0
25 -4 28 -10 9 -15 59 -12 91 5 19 10 40 13 59 9 17 -4 44 -7 60 -8z m395 -16
c0 -5 -4 -10 -10 -10 -5 0 -10 5 -10 10 0 6 5 10 10 10 6 0 10 -4 10 -10z
m1327 -56 c-3 -3 -12 -4 -19 -1 -8 3 -5 6 6 6 11 1 17 -2 13 -5z m-1037 -129
c7 -8 8 -15 2 -15 -5 0 -15 7 -22 15 -7 8 -8 15 -2 15 5 0 15 -7 22 -15z m49
-72 c12 -27 26 -55 30 -63 36 -67 72 -288 74 -445 1 -130 -15 -188 -63 -230
-21 -19 -20 -16 6 35 26 50 29 66 33 177 5 196 -17 324 -84 491 -36 88 -33
113 4 35z m-541 -22 c2 -6 10 -11 17 -11 13 0 25 -21 25 -43 0 -7 -3 -8 -10
-1 -9 9 -117 -2 -160 -18 -94 -32 -121 -41 -158 -50 -82 -19 -83 0 -2 45 124
68 200 97 245 92 22 -2 41 -9 43 -14z m-60 -168 c2 -12 10 -27 18 -33 16 -14
19 -56 5 -64 -10 -7 -21 17 -21 46 0 16 -5 19 -21 15 -45 -12 -62 12 -32 45
21 24 47 19 51 -9z m122 -133 c0 -5 -6 -10 -14 -10 -8 0 -18 -5 -22 -12 -5 -8
3 -9 30 -5 l37 6 -3 -50 c-2 -27 -6 -49 -10 -49 -5 0 -8 -7 -8 -15 0 -21 -50
-67 -66 -61 -8 3 -14 13 -14 23 1 17 1 17 14 0 11 -14 15 -15 25 -3 6 7 9 21
5 29 -5 13 -10 14 -30 5 -13 -6 -24 -17 -24 -24 0 -7 -20 -15 -50 -19 -28 -4
-53 -13 -58 -20 -8 -14 -56 -24 -59 -12 -5 18 -33 37 -46 31 -8 -3 -17 2 -20
10 -7 18 18 46 41 46 23 1 94 55 84 65 -4 4 5 5 21 3 22 -4 31 0 44 23 20 33
41 44 58 29 10 -8 15 -8 21 1 5 8 3 9 -6 4 -9 -5 -11 -4 -6 3 9 15 56 16 56 2z
m-964 -155 c-10 -8 -33 -28 -52 -44 -37 -34 -46 -38 -38 -17 7 19 96 88 103
80 3 -3 -2 -12 -13 -19z m-126 -136 c-18 -24 -20 -35 -12 -52 5 -12 22 -54 36
-93 15 -40 49 -104 76 -144 28 -39 50 -75 50 -80 0 -5 3 -10 8 -12 4 -1 18
-16 30 -33 34 -44 150 -162 199 -202 40 -33 44 -34 130 -34 97 0 136 7 266 46
110 32 133 28 41 -7 -116 -45 -215 -70 -296 -75 -69 -5 -83 -3 -131 20 -91 45
-272 228 -414 419 -48 64 -53 76 -53 122 0 54 24 111 63 154 29 31 34 10 7
-29z m794 37 c-7 -18 -35 -30 -31 -13 2 13 17 27 29 27 4 0 5 -6 2 -14z m164
-12 c-9 -9 -22 -14 -30 -11 -8 3 -4 8 12 15 35 15 37 14 18 -4z m-63 -9 c5 0
11 -8 13 -18 3 -12 -6 -21 -27 -28 -17 -6 -31 -17 -31 -25 0 -18 -15 -18 -34
1 -23 23 2 79 30 68 8 -3 14 0 14 7 0 6 5 8 13 3 6 -4 16 -8 22 -8z m-85 -100
c14 -9 13 -35 -2 -35 -6 0 -21 -8 -32 -19 -12 -10 -37 -21 -57 -24 -31 -5 -38
-2 -50 19 -18 34 -2 57 42 65 38 6 83 4 99 -6z m-972 -72 c-5 -26 -38 -29 -38
-4 0 15 6 21 21 21 14 0 19 -5 17 -17z m-83 -43 c-3 -5 -10 -10 -16 -10 -5 0
-9 5 -9 10 0 6 7 10 16 10 8 0 12 -4 9 -10z m-99 -29 c-7 -11 -46 -21 -46 -12
0 13 13 21 32 21 11 0 17 -4 14 -9z m654 -262 c0 -11 -4 -18 -10 -14 -5 3 -7
12 -3 20 7 21 13 19 13 -6z m-130 -138 c12 -12 10 -11 -9 0 -14 9 -27 22 -29
30 -3 11 -1 11 10 -1 8 -8 20 -21 28 -29z m46 -42 c19 -22 19 -22 -3 -10 -24
12 -39 31 -25 31 5 0 17 -10 28 -21z m60 -66 c-7 -7 -26 7 -26 19 0 6 6 6 15
-2 9 -7 13 -15 11 -17z m-139 -15 c-3 -8 -6 -5 -6 6 -1 11 2 17 5 13 3 -3 4
-12 1 -19z m563 2 c-8 -5 -26 -9 -40 -9 -23 0 -23 1 -5 9 11 5 29 9 40 9 17 1
17 -1 5 -9z m-370 -15 c7 -8 9 -15 6 -15 -4 0 -14 7 -22 15 -9 8 -11 15 -6 15
5 0 15 -7 22 -15z m68 -24 c10 -6 10 -10 -1 -20 -17 -14 -47 -4 -47 15 0 15
28 18 48 5z m137 -7 c-11 -8 -26 -12 -33 -9 -8 3 -26 6 -40 7 -17 0 -10 4 18
8 73 11 77 11 55 -6z m-315 -34 c0 -5 -2 -10 -4 -10 -3 0 -8 5 -11 10 -3 6 -1
10 4 10 6 0 11 -4 11 -10z m50 -25 c0 -8 -4 -15 -10 -15 -5 0 -10 7 -10 15 0
8 5 15 10 15 6 0 10 -7 10 -15z m70 -7 c0 -10 3 -10 9 0 6 10 12 5 20 -20 11
-30 13 -31 25 -15 16 21 26 22 26 2 0 -8 5 -15 10 -15 6 0 10 11 10 25 0 20 5
25 25 25 14 0 25 -4 25 -9 0 -5 3 -16 6 -24 3 -9 -3 -16 -15 -20 -15 -4 -21
-13 -21 -35 0 -17 6 -33 13 -35 9 -4 8 -8 -3 -16 -13 -9 -13 -11 3 -11 9 0 16
-6 15 -12 -2 -8 7 -13 21 -13 13 0 26 6 29 13 2 7 -6 12 -22 12 -21 0 -26 5
-26 25 0 21 5 25 30 25 26 0 30 -4 30 -26 0 -14 9 -37 19 -50 20 -26 18 -62
-5 -71 -16 -6 -19 -43 -4 -43 6 0 10 -4 10 -10 0 -5 -9 -10 -20 -10 -17 0 -20
7 -20 46 0 27 4 43 10 39 6 -3 10 -1 10 4 0 21 -35 11 -68 -20 -28 -27 -34
-29 -47 -15 -8 8 -15 21 -15 30 0 19 -17 29 -26 15 -8 -14 -53 38 -54 63 0 9
-12 23 -27 30 -36 17 -45 72 -14 81 13 3 21 13 21 26 0 12 5 21 10 21 6 0 10
-6 10 -12z m10 -214 c0 -2 -7 -4 -15 -4 -8 0 -15 4 -15 10 0 5 7 7 15 4 8 -4
15 -8 15 -10z m110 -103 c0 -11 5 -23 10 -26 16 -10 11 -25 -9 -25 -10 0 -24
7 -31 15 -10 12 -9 16 4 21 10 4 15 13 12 20 -3 8 -1 14 4 14 6 0 10 -9 10
-19z m75 -11 c3 -5 -3 -10 -14 -10 -11 0 -23 5 -26 10 -3 6 3 10 14 10 11 0
23 -4 26 -10z m695 -158 c0 -22 -105 -92 -138 -92 -11 0 -23 -4 -27 -9 -3 -6
-15 -9 -26 -8 -32 2 -21 48 16 66 17 8 39 19 50 24 43 22 125 34 125 19z
m1244 -67 c3 -8 1 -15 -4 -15 -6 0 -10 7 -10 15 0 8 2 15 4 15 2 0 6 -7 10
-15z m-1474 -14 c0 -5 -7 -11 -14 -14 -10 -4 -13 -1 -9 9 6 15 23 19 23 5z
m1637 -67 c-9 -9 -28 6 -21 18 4 6 10 6 17 -1 6 -6 8 -13 4 -17z m-294 -181
c-23 -9 24 -73 54 -73 13 0 13 3 3 15 -9 11 -10 19 -3 26 19 19 36 -26 22 -53
-40 -78 -91 -89 -138 -31 l-31 38 -16 -23 c-33 -48 -55 -62 -78 -50 -31 16
-66 50 -66 64 0 15 16 20 90 29 30 4 62 13 70 20 22 17 50 26 50 15 0 -6 7
-10 16 -10 10 0 14 6 11 14 -6 16 1 26 17 25 6 0 6 -3 -1 -6z m-755 -390 c2
-8 -5 -13 -17 -13 -21 0 -35 13 -24 24 10 10 36 3 41 -11z m-198 -59 c0 -23
-3 -25 -37 -22 -50 4 -57 31 -11 45 41 12 48 9 48 -23z m-680 -165 c0 -4 -7
-6 -15 -3 -8 4 -15 10 -15 15 0 4 7 6 15 3 8 -4 15 -10 15 -15z m51 -29 c18
-15 20 -19 8 -20 -9 0 -24 9 -34 20 -23 26 -4 26 26 0z m69 -42 c0 -4 -4 -8
-9 -8 -6 0 -12 4 -15 8 -3 5 1 9 9 9 8 0 15 -4 15 -9z m64 -39 c20 -12 36 -26
36 -32 0 -5 -8 -3 -18 6 -10 10 -23 17 -29 17 -6 0 -16 7 -23 15 -17 20 -8 19
34 -6z m536 -294 c36 -18 79 -40 95 -49 17 -9 38 -16 47 -16 9 0 20 -4 23 -10
15 -24 -39 -5 -160 55 -72 36 -116 63 -100 60 17 -4 59 -21 95 -40z m-3066
-11 c25 -9 19 -33 -10 -40 -14 -4 -30 -17 -34 -30 -11 -27 -30 -32 -30 -9 0 8
5 15 10 15 6 0 10 6 10 13 0 12 27 57 35 57 2 0 10 -3 19 -6z m3213 0 c-3 -3
-12 -4 -19 -1 -8 3 -5 6 6 6 11 1 17 -2 13 -5z m-3402 -95 c0 -8 -10 -15 -22
-17 -25 -4 -30 7 -11 26 15 15 33 10 33 -9z m3555 -22 c47 -17 87 -35 88 -39
2 -4 10 -8 17 -8 8 0 16 -4 19 -9 8 -12 -34 -1 -61 17 -13 8 -37 18 -55 22
-66 17 -128 43 -128 52 0 6 8 7 18 3 9 -4 55 -21 102 -38z m-3247 -71 c19 -15
14 -46 -9 -46 -13 0 -44 37 -44 52 0 13 33 9 53 -6z m3454 -8 c29 -12 53 -25
53 -30 0 -8 -20 -2 -60 19 -14 7 -30 13 -37 13 -6 0 -15 5 -18 10 -9 15 4 12
62 -12z m-3567 -148 c0 -5 -9 -14 -20 -20 -16 -8 -20 -8 -20 4 0 8 8 17 18 19
9 3 18 5 20 6 1 0 2 -3 2 -9z"/>
<path d="M3717 6159 c7 -7 15 -10 18 -7 3 3 -2 9 -12 12 -14 6 -15 5 -6 -5z"/>
<path d="M4460 6066 c0 -2 7 -9 15 -16 13 -11 14 -10 9 4 -5 14 -24 23 -24 12z"/>
<path d="M3990 6036 c0 -2 8 -10 18 -17 15 -13 16 -12 3 4 -13 16 -21 21 -21
13z"/>
<path d="M3810 5942 c0 -12 39 -60 40 -49 0 5 -9 20 -20 34 -11 14 -20 21 -20
15z"/>
<path d="M4506 5925 c9 -14 21 -22 26 -19 5 3 0 15 -11 25 -28 26 -35 24 -15
-6z"/>
<path d="M4100 5923 c0 -5 9 -18 20 -28 11 -10 20 -16 20 -13 0 3 -9 15 -20
28 -11 13 -20 19 -20 13z"/>
<path d="M3777 5867 c-3 -10 8 -35 29 -66 2 -2 10 4 19 13 15 14 15 18 1 38
-17 24 -43 32 -49 15z"/>
<path d="M3876 5871 c-4 -7 -5 -15 -2 -18 9 -9 19 4 14 18 -4 11 -6 11 -12 0z"/>
<path d="M3970 5868 c0 -8 5 -19 10 -26 6 -6 7 -10 4 -7 -4 3 -13 0 -21 -6 -9
-9 -13 -8 -13 0 0 6 -6 11 -14 11 -8 0 -16 6 -19 13 -3 9 -7 9 -17 0 -13 -12
-4 -77 10 -68 4 3 6 15 3 28 -5 18 1 15 31 -17 20 -21 36 -42 36 -47 0 -5 7
-9 16 -9 8 0 12 -4 9 -10 -3 -5 -1 -10 6 -10 6 0 9 8 6 20 -6 24 -1 25 20 5
20 -21 28 -12 13 15 -9 18 -9 24 0 30 8 5 3 9 -13 12 -20 4 -23 1 -19 -14 6
-24 -6 -23 -30 4 -16 19 -17 23 -3 30 19 11 19 32 0 48 -12 10 -15 10 -15 -2z"/>
<path d="M4419 5848 c6 -7 16 -14 22 -14 5 -1 14 -2 20 -3 5 0 8 -5 5 -9 -7
-11 42 -38 51 -29 3 4 4 8 2 10 -2 2 -19 15 -37 30 -34 27 -89 40 -63 15z"/>
<path d="M4661 5843 c-1 -6 11 -26 26 -43 23 -28 27 -30 36 -15 9 17 -15 44
-40 45 -6 0 -14 6 -16 13 -4 8 -6 8 -6 0z"/>
<path d="M4130 5811 c0 -6 5 -13 10 -16 6 -4 8 -11 5 -16 -3 -5 1 -6 9 -3 19
7 20 16 4 32 -14 14 -28 16 -28 3z"/>
<path d="M4225 5763 c13 -22 22 -29 26 -21 5 7 7 13 6 13 -1 0 -13 9 -26 20
l-24 20 18 -32z"/>
<path d="M4918 5758 c7 -7 12 -22 12 -35 0 -22 10 -30 23 -17 8 9 -24 64 -37
64 -6 0 -5 -5 2 -12z"/>
<path d="M4207 5729 c7 -7 15 -10 18 -7 3 3 -2 9 -12 12 -14 6 -15 5 -6 -5z"/>
<path d="M4660 5715 c7 -8 17 -12 22 -9 6 4 5 10 -3 15 -22 14 -33 10 -19 -6z"/>
<path d="M4435 5680 c3 -5 10 -10 16 -10 5 0 9 5 9 10 0 6 -7 10 -16 10 -8 0
-12 -4 -9 -10z"/>
<path d="M4976 5672 c-8 -14 31 -102 45 -102 7 0 8 7 4 18 -4 9 -13 32 -19 49
-15 39 -22 48 -30 35z"/>
<path d="M4040 5630 c0 -5 5 -10 11 -10 5 0 7 5 4 10 -3 6 -8 10 -11 10 -2 0
-4 -4 -4 -10z"/>
<path d="M4560 5637 c0 -9 36 -42 49 -45 12 -3 12 -1 1 13 -13 16 -50 39 -50
32z"/>
<path d="M4445 5610 c8 -27 36 -63 42 -56 6 6 -16 47 -35 65 -13 13 -14 12 -7
-9z"/>
<path d="M4435 5549 c-4 -6 1 -19 11 -29 17 -17 21 -17 39 -3 19 15 19 15 -4
8 -15 -4 -21 -3 -17 3 3 5 -1 15 -8 21 -11 9 -16 9 -21 0z"/>
<path d="M4960 5550 c0 -5 5 -10 11 -10 5 0 7 5 4 10 -3 6 -8 10 -11 10 -2 0
-4 -4 -4 -10z"/>
<path d="M4632 5420 c7 -11 17 -20 22 -20 5 0 1 9 -9 20 -10 11 -20 20 -22 20
-2 0 2 -9 9 -20z"/>
<path d="M5038 5423 c7 -3 16 -2 19 1 4 3 -2 6 -13 5 -11 0 -14 -3 -6 -6z"/>
<path d="M4780 5413 c0 -13 29 -38 35 -31 3 3 -4 13 -15 23 -11 10 -20 13 -20
8z"/>
<path d="M4281 5377 c2 -1 13 -9 24 -17 19 -14 19 -14 6 3 -7 9 -18 17 -24 17
-6 0 -8 -1 -6 -3z"/>
<path d="M4710 5370 c-8 -5 -10 -10 -5 -10 6 0 17 5 25 10 8 5 11 10 5 10 -5
0 -17 -5 -25 -10z"/>
<path d="M4883 5348 c1 -7 -8 -14 -20 -16 -13 -2 -23 -8 -23 -13 0 -6 -4 -8
-8 -5 -12 7 -38 -12 -29 -21 4 -4 17 -2 27 5 26 16 43 15 37 -1 -4 -10 2 -13
19 -9 19 3 23 9 19 23 -4 11 -2 19 4 19 6 0 11 -4 11 -10 0 -5 5 -10 11 -10 6
0 20 -10 30 -22 l20 -23 -7 25 c-4 14 -11 28 -16 31 -5 3 -6 13 -2 22 5 14 -1
17 -35 17 -27 0 -40 -4 -38 -12z"/>
<path d="M5000 5310 c0 -5 7 -10 16 -10 8 0 12 5 9 10 -3 6 -10 10 -16 10 -5
0 -9 -4 -9 -10z"/>
<path d="M4756 5286 c3 -8 12 -12 20 -9 21 8 17 23 -6 23 -13 0 -18 -5 -14
-14z"/>
<path d="M4877 5240 c-20 -22 -33 -40 -28 -40 5 0 14 7 21 15 7 8 18 15 25 15
19 0 40 29 29 40 -6 6 -24 -6 -47 -30z"/>
<path d="M4778 5238 c-4 -9 -4 -18 0 -20 4 -2 20 -19 36 -38 25 -31 28 -32 21
-10 -4 14 -12 28 -18 31 -5 4 -6 13 -2 20 6 9 4 11 -8 6 -10 -4 -17 0 -19 11
-3 16 -4 16 -10 0z"/>
<path d="M4740 5211 c0 -7 -4 -10 -9 -7 -5 3 -11 -1 -15 -9 -3 -8 -2 -15 3
-15 13 0 35 30 27 37 -3 3 -6 1 -6 -6z"/>
<path d="M5280 5137 c0 -7 14 -26 30 -42 35 -33 40 -18 8 25 -23 32 -38 38
-38 17z"/>
<path d="M5332 5048 c2 -6 10 -14 16 -16 7 -2 10 2 6 12 -7 18 -28 22 -22 4z"/>
<path d="M3595 5830 c3 -5 8 -10 11 -10 2 0 4 5 4 10 0 6 -5 10 -11 10 -5 0
-7 -4 -4 -10z"/>
<path d="M3997 5443 c-7 -11 29 -54 37 -46 3 4 6 -1 6 -10 0 -10 8 -17 20 -17
11 0 20 4 20 9 0 5 3 16 6 25 5 12 0 16 -18 16 -13 0 -33 7 -45 15 -12 8 -24
12 -26 8z"/>
<path d="M4058 5283 c7 -3 16 -2 19 1 4 3 -2 6 -13 5 -11 0 -14 -3 -6 -6z"/>
<path d="M4050 5216 c0 -2 7 -7 16 -10 8 -3 12 -2 9 4 -6 10 -25 14 -25 6z"/>
<path d="M3860 5049 c0 -5 4 -9 9 -9 5 0 17 -3 27 -7 11 -4 15 -3 11 4 -9 14
-47 24 -47 12z"/>
<path d="M3930 5040 c-9 -6 -10 -10 -3 -10 6 0 15 5 18 10 8 12 4 12 -15 0z"/>
<path d="M3940 5016 c0 -2 9 -6 20 -9 11 -3 18 -1 14 4 -5 9 -34 13 -34 5z"/>
<path d="M3907 4827 c-2 -7 4 -23 14 -36 16 -20 19 -21 19 -5 0 31 11 7 20
-43 7 -45 8 -46 9 -11 0 20 8 43 16 52 19 19 19 32 -1 40 -8 3 -12 2 -9 -4 3
-6 1 -10 -5 -10 -6 0 -13 7 -16 15 -7 18 -40 20 -47 2z"/>
<path d="M4068 4778 c5 -5 16 -8 23 -6 8 3 3 7 -10 11 -17 4 -21 3 -13 -5z"/>
<path d="M3377 4513 c-4 -3 -7 -11 -7 -17 0 -6 5 -5 12 2 6 6 9 14 7 17 -3 3
-9 2 -12 -2z"/>
<path d="M3360 4386 c0 -18 27 -29 36 -14 4 5 0 14 -7 19 -20 13 -29 11 -29
-5z"/>
<path d="M3170 4286 c0 -2 7 -7 16 -10 8 -3 12 -2 9 4 -6 10 -25 14 -25 6z"/>
<path d="M3265 4260 c3 -5 8 -10 11 -10 2 0 4 5 4 10 0 6 -5 10 -11 10 -5 0
-7 -4 -4 -10z"/>
<path d="M3300 4220 c0 -13 5 -18 15 -14 8 4 15 10 15 14 0 4 -7 10 -15 14
-10 4 -15 -1 -15 -14z"/>
<path d="M3410 4125 c0 -8 7 -15 16 -15 14 0 14 3 4 15 -7 8 -14 15 -16 15 -2
0 -4 -7 -4 -15z"/>
<path d="M4307 4953 c-4 -3 -7 -12 -7 -20 0 -17 26 -17 33 1 8 21 -11 35 -26
19z"/>
<path d="M4699 4833 c-13 -16 -12 -17 4 -4 16 13 21 21 13 21 -2 0 -10 -8 -17
-17z"/>
<path d="M4934 4722 c8 -16 22 -34 30 -41 14 -12 15 -10 6 16 -6 15 -19 34
-31 41 -19 12 -19 12 -5 -16z"/>
<path d="M5562 4719 c2 -7 10 -15 17 -17 8 -3 12 1 9 9 -2 7 -10 15 -17 17 -8
3 -12 -1 -9 -9z"/>
<path d="M4125 4100 c-3 -5 -1 -10 4 -10 6 0 11 5 11 10 0 6 -2 10 -4 10 -3 0
-8 -4 -11 -10z"/>
<path d="M4230 3930 c0 -5 5 -10 11 -10 5 0 7 5 4 10 -3 6 -8 10 -11 10 -2 0
-4 -4 -4 -10z"/>
<path d="M4109 3892 c5 -10 59 -68 119 -129 154 -155 205 -187 120 -74 -66 88
-118 140 -180 182 -64 44 -73 47 -59 21z"/>
<path d="M4575 3890 c-3 -5 -2 -10 4 -10 5 0 13 5 16 10 3 6 2 10 -4 10 -5 0
-13 -4 -16 -10z"/>
<path d="M5250 3830 c0 -5 -7 -10 -15 -10 -8 0 -29 -13 -47 -30 -25 -22 -29
-29 -15 -30 9 0 26 9 36 19 10 10 28 22 40 26 21 6 30 35 11 35 -5 0 -10 -4
-10 -10z"/>
<path d="M5130 3750 c0 -5 5 -10 11 -10 5 0 7 5 4 10 -3 6 -8 10 -11 10 -2 0
-4 -4 -4 -10z"/>
<path d="M5055 3710 c-8 -13 5 -13 25 0 13 8 13 10 -2 10 -9 0 -20 -4 -23 -10z"/>
<path d="M4135 3030 c3 -5 8 -10 11 -10 2 0 4 5 4 10 0 6 -5 10 -11 10 -5 0
-7 -4 -4 -10z"/>
<path d="M5626 2783 c-4 -4 -19 -7 -34 -8 -49 0 -36 -28 25 -55 73 -31 160
-117 197 -192 22 -46 32 -58 51 -58 21 0 23 5 27 61 1 33 0 70 -5 81 -4 11 -3
26 2 32 7 8 4 21 -8 40 -29 44 -66 63 -181 92 -66 16 -65 16 -74 7z"/>
<path d="M5602 2278 c-17 -18 -58 -63 -91 -100 -53 -59 -61 -72 -55 -95 18
-72 39 -99 56 -69 9 16 11 16 22 0 15 -20 46 -13 46 11 0 9 16 50 36 92 28 58
37 91 38 132 1 66 -12 74 -52 29z"/>
<path d="M4764 1996 c-21 -24 -28 -96 -9 -96 16 0 45 33 45 52 0 20 26 42 40
33 5 -3 10 -3 10 2 -1 35 -58 42 -86 9z"/>
<path d="M5375 1882 c6 -44 4 -51 -25 -82 -45 -51 -54 -62 -73 -92 -20 -33
-22 -48 -4 -48 14 0 47 50 47 73 0 8 8 17 18 19 17 5 102 135 102 156 0 12
-24 22 -52 22 -18 0 -19 -4 -13 -48z"/>
<path d="M5176 1612 c-3 -6 -1 -14 5 -17 15 -10 25 3 12 16 -7 7 -13 7 -17 1z"/>
<path d="M5075 1533 c-16 -9 -25 -18 -18 -20 7 -3 22 5 35 16 26 25 23 26 -17
4z"/>
<path d="M4895 1320 c-4 -6 -11 -8 -16 -5 -16 11 -10 -11 12 -39 22 -28 49
-35 49 -12 0 7 7 19 15 26 12 10 13 16 4 26 -13 16 -55 19 -64 4z"/>
<path d="M4937 1229 c7 -7 15 -10 18 -7 3 3 -2 9 -12 12 -14 6 -15 5 -6 -5z"/>
<path d="M4945 530 c3 -5 10 -10 16 -10 5 0 9 5 9 10 0 6 -7 10 -16 10 -8 0
-12 -4 -9 -10z"/>
<path d="M2605 3790 c-3 -5 -1 -10 4 -10 6 0 11 5 11 10 0 6 -2 10 -4 10 -3 0
-8 -4 -11 -10z"/>
<path d="M2985 3310 c3 -5 8 -10 11 -10 2 0 4 5 4 10 0 6 -5 10 -11 10 -5 0
-7 -4 -4 -10z"/>
</g>
</svg>
