<svg id="Capa_1" enable-background="new 0 0 512.006 512.006" height="512" viewBox="0 0 512.006 512.006" width="512" xmlns="http://www.w3.org/2000/svg"><path d="m1.587 67.713 28.416 56.832v326.46c0 8.284 6.716 15 15 15s15-6.716 15-15v-315h65.667c15.547 35.35 45.245 60 85.333 60 49.634 0 109.414-38.299 133.495-55.292l20.899 20.899c5.857 5.858 15.355 5.859 21.213 0 5.858-5.858 5.858-15.355 0-21.213l-4.394-4.394h69.787v315c0 8.284 6.716 15 15 15s15-6.716 15-15v-326.46l28.416-56.832c3.705-7.41.702-16.419-6.708-20.125-7.406-3.703-16.418-.702-20.124 6.708l-16.584 33.167-16.584-33.167c-3.705-7.41-12.713-10.414-20.124-6.708-7.41 3.705-10.413 12.715-6.708 20.125l19.146 38.292h-60.517l4.394-4.394c5.858-5.858 5.858-15.355 0-21.213-5.857-5.858-15.355-5.858-21.213 0l-20.899 20.899c-24.081-16.994-83.861-55.292-133.495-55.292-39.708 0-69.598 24.22-85.333 60h-56.397l19.146-38.292c3.705-7.41.702-16.419-6.708-20.125-7.406-3.703-16.418-.702-20.124 6.708l-16.584 33.168-16.584-33.167c-3.704-7.41-12.713-10.414-20.124-6.708-7.41 3.705-10.413 12.714-6.708 20.124zm225.505 96.665c8.827-12.443 13.912-27.534 13.912-43.373 0-15.863-5.1-30.975-13.953-43.429 33.806 6.152 71.941 29.145 93.182 43.47-23.579 15.854-61.071 37.33-93.141 43.332zm-40.211-83.243c14.622 7.691 24.122 23.083 24.122 39.87 0 16.803-9.519 32.21-24.166 39.893-21.32-9.756-31.488-30.889-34.968-39.873 3.484-8.909 13.721-30.097 35.012-39.89z"/><path d="m90.003 421.005c0 24.857 21.096 45 46 45h240c24.813 0 45-20.187 45-45s-20.187-45-45-45h-23.072c5.123-8.833 8.072-19.075 8.072-30 0-10.494-2.767-20.854-8.018-29.989l-38.994-67.5c-2.68-4.639-7.631-7.497-12.988-7.497s-10.309 2.858-12.988 7.497l-32.011 55.415-32.013-55.415c-2.68-4.639-7.631-7.497-12.988-7.497s-10.309 2.858-12.988 7.497l-39.023 67.554c-5.226 9.087-7.988 19.438-7.988 29.934 0 10.925 2.949 21.167 8.072 30h-23.072c-24.863.001-46.001 20.097-46.001 45.001zm30 0c0-7.991 7.477-15 16-15.01h197.58c-1.665 4.705-2.58 9.752-2.58 15.01s.915 10.305 2.58 15h-197.58c-8.523 0-16-7.009-16-15zm256 15c-8.271 0-15-6.729-15-15s6.729-15 15-15 15 6.729 15 15-6.728 15-15 15zm-101.02-104.953 26.021-45.045 25.989 44.988c2.624 4.564 4.011 9.755 4.011 15.01 0 16.542-13.458 30-30 30s-30-13.458-30-30c-.001-5.255 1.38-10.435 3.979-14.953zm-93.98 14.953c0-5.255 1.381-10.435 3.979-14.953l26.021-45.045 25.989 44.988c2.624 4.564 4.011 9.755 4.011 15.01 0 16.542-13.458 30-30 30s-30-13.458-30-30z"/></svg>